<svg width="105" height="130" viewBox="0 0 105 130" fill="none" xmlns="http://www.w3.org/2000/svg">
<path d="M48.1011 26.7448C48.1275 48.3025 48.2071 69.8604 48.1487 91.4179C48.1306 98.1074 43.76 102.558 37.6952 102.531C31.6907 102.505 27.5992 97.992 27.6039 91.1933C27.6185 70.1449 27.6913 49.0965 27.7414 28.05C30.1577 32.274 33.5552 35.2872 38.6321 34.8911C43.5281 34.5091 46.5442 31.3247 48.1011 26.7448Z" fill="#F10062"/>
<path d="M55.4264 85.4182C55.428 76.6625 55.3487 67.9058 55.4571 59.1515C55.5246 53.6972 58.3691 49.8659 63.0023 48.467C67.2509 47.1841 71.776 48.8056 74.3645 52.5631C75.8598 54.7337 76.3357 57.1892 76.3348 59.7803C76.3294 76.9125 76.3621 94.0447 76.3207 111.177C76.3033 118.409 72.0961 123.017 65.747 122.963C59.5891 122.91 55.4824 118.331 55.4379 111.308C55.3832 102.678 55.4248 94.0481 55.4264 85.4182ZM76.003 79.1C76.0797 73.3798 71.7885 68.7958 66.2222 68.6517C60.4042 68.501 55.7939 72.947 55.7293 78.7706C55.6641 84.6492 60.1401 89.2652 65.8935 89.2526C71.4938 89.2404 75.9268 84.7885 76.003 79.1Z" fill="#FFE509"/>
<path d="M0.400105 90.0441C0.276402 71.2746 -0.0177108 52.5046 0.551419 33.7403C2.77698 39.0264 6.07364 41.6507 10.5956 41.4886C15.7688 41.3033 18.971 38.4615 20.5801 33.6588C20.6732 41.6084 20.8307 49.5579 20.8439 57.5077C20.862 68.3672 20.7703 79.2269 20.7257 90.0858C18.7798 85.6269 15.7657 82.4546 10.578 82.4412C5.38591 82.4277 2.36499 85.5955 0.400105 90.0441Z" fill="#26E0E7"/>
<path d="M103.852 47.8784C103.876 59.5654 103.9 71.2524 103.924 82.9401C101.815 78.281 98.7354 75.085 93.1107 75.3361C87.985 75.565 85.3945 78.8224 83.4655 82.9927C83.4895 71.269 83.5134 59.5454 83.5374 47.8225C84.313 49.1041 84.9377 50.5116 85.8893 51.6445C91.0761 57.8195 99.459 56.0371 103.852 47.8784Z" fill="#26E0E7"/>
<path d="M55.5393 30.7655C55.8697 24.9906 60.8016 20.4283 66.3501 20.765C72.0092 21.1084 76.5838 26.1755 76.2333 31.7123C75.8691 37.4651 70.904 42.0503 65.4026 41.7142C59.719 41.367 55.2185 36.3713 55.5393 30.7655Z" fill="#F10062"/>
<path d="M103.852 47.8784C99.459 56.0371 91.0761 57.8195 85.8893 51.6445C84.9377 50.5116 84.313 49.1041 83.5374 47.8225C83.4337 45.8052 83.1318 43.7868 83.7706 41.7924C85.3521 36.8551 90.3522 33.6464 95.2492 34.4493C100.308 35.2787 103.946 39.5931 103.982 44.8409C103.989 45.8531 103.898 46.8659 103.852 47.8784Z" fill="#FFE509"/>
<path d="M20.5801 33.6588C18.971 38.4615 15.7688 41.3033 10.5956 41.4886C6.07363 41.6507 2.77697 39.0264 0.551411 33.7403C0.571659 31.7427 0.191395 29.7415 0.927029 27.771C2.8583 22.5978 7.44188 20.3988 13.9149 21.6068C17.4192 22.2608 20.564 26.6567 20.6322 31.0203C20.646 31.8993 20.599 32.7792 20.5801 33.6588Z" fill="#FFE509"/>
<path d="M27.572 119.279C27.5709 113.338 31.9464 108.939 37.8272 108.969C43.6363 108.998 48.1925 113.536 48.2004 119.302C48.2082 124.922 43.4438 129.673 37.7975 129.674C32.0153 129.676 27.5731 125.159 27.572 119.279Z" fill="#FFE509"/>
<path d="M48.1011 26.7448C46.5442 31.3247 43.5281 34.5091 38.6321 34.8911C33.5552 35.2872 30.1577 32.274 27.7414 28.05C27.2574 25.6398 27.2695 23.2317 27.7444 20.8216C30.2483 17.0003 33.2648 13.6777 38.2459 13.9979C43.2722 14.321 46.3953 17.4776 48.1023 22.1033C48.1019 23.6504 48.1015 25.1976 48.1011 26.7448Z" fill="#26E0E7"/>
<path d="M0.400101 90.0441C2.36499 85.5955 5.3859 82.4277 10.5779 82.4412C15.7657 82.4546 18.7798 85.6269 20.7257 90.0858C20.9447 91.8825 21.06 93.669 20.2449 95.3709C19.0069 100.247 15.6472 102.933 10.8292 103.091C5.46372 103.268 2.5414 100.087 0.380127 95.7607C0.386787 93.8552 0.39344 91.9497 0.400101 90.0441Z" fill="#44239D"/>
<path d="M83.4655 82.9927C85.3945 78.8224 87.985 75.565 93.1107 75.3361C98.7354 75.085 101.815 78.281 103.924 82.9401C103.984 84.5608 104.173 86.195 103.443 87.7372C102.91 91.8588 100.36 94.2373 96.5912 95.4143C91.0943 97.1312 86.9758 94.8278 83.4654 88.2192C83.4654 86.477 83.4655 84.7348 83.4655 82.9927Z" fill="#F10062"/>
<path d="M48.1023 22.1033C46.3953 17.4776 43.2722 14.321 38.2459 13.9979C33.2648 13.6777 30.2483 17.0003 27.7444 20.8216C27.7022 17.1595 27.526 13.4908 27.6494 9.83223C27.8271 4.56602 31.8078 0.478189 36.9232 0.0388842C42.0292 -0.399608 46.6157 2.90686 47.735 8.1182C48.7258 12.7308 48.0706 17.4373 48.1023 22.1033Z" fill="#F10062"/>
<path d="M83.4654 88.2192C86.9758 94.8278 91.0943 97.1312 96.5912 95.4143C100.36 94.2373 102.91 91.8588 103.443 87.7372C104.531 92.3187 104.342 97.0015 103.647 101.532C102.871 106.59 97.6967 109.946 92.7169 109.386C87.4935 108.799 83.6246 104.822 83.4386 99.5839C83.3043 95.8008 83.4465 92.0078 83.4654 88.2192Z" fill="#26E0E7"/>
<path d="M0.380137 95.7607C2.54141 100.087 5.46373 103.268 10.8292 103.091C15.6472 102.933 19.0069 100.247 20.2449 95.3709C21.3857 99.814 21.3435 104.348 20.2966 108.713C19.0369 113.966 14.4398 116.668 8.98598 116.002C4.28397 115.429 0.532549 111.419 0.315211 106.41C0.161532 102.868 0.3464 99.3109 0.380137 95.7607Z" fill="#26E0E7"/>
<path d="M76.003 79.1C75.9268 84.7885 71.4938 89.2404 65.8936 89.2526C60.1401 89.2652 55.6641 84.6492 55.7293 78.7706C55.7939 72.947 60.4042 68.501 66.2222 68.6517C71.7885 68.7958 76.0797 73.3798 76.003 79.1Z" fill="#F10062"/>
</svg>
