<svg width="237" height="295" viewBox="0 0 237 295" fill="none" xmlns="http://www.w3.org/2000/svg">
<g opacity="0.4">
<g clip-path="url(#clip0_14_344)">
<rect width="236.203" height="295" transform="translate(0.398682)" fill="white" fill-opacity="0.2"/>
<path d="M109.165 60.8564C109.165 109.906 109.415 158.932 109.279 207.981C109.279 223.201 99.3085 233.325 85.5452 233.279C71.7818 233.234 62.6062 222.951 62.6289 207.481C62.6289 159.584 62.7274 111.695 62.9242 63.8139C68.4205 73.4372 76.1425 80.2849 87.6574 79.3977C98.7861 78.5104 105.645 71.2759 109.165 60.8564Z" fill="#D1D3D4"/>
<path d="M125.813 194.331C125.813 174.425 125.631 154.496 125.813 134.589C125.972 122.168 132.422 113.455 142.938 110.27C147.672 108.853 152.735 108.995 157.383 110.674C162.031 112.353 166.019 115.48 168.761 119.597C171.936 124.461 173.524 130.193 173.304 136C173.304 174.993 173.304 213.964 173.304 252.935C173.304 269.383 163.719 279.871 149.297 279.757C135.307 279.621 125.972 269.224 125.881 253.231C125.7 233.598 125.813 213.964 125.813 194.331ZM172.531 179.953C172.64 176.93 172.151 173.915 171.092 171.082C170.033 168.249 168.425 165.654 166.36 163.446C164.296 161.239 161.816 159.462 159.062 158.219C156.309 156.975 153.338 156.29 150.319 156.202C147.231 156.082 144.151 156.589 141.263 157.692C138.376 158.794 135.74 160.47 133.515 162.618C131.29 164.766 129.521 167.342 128.315 170.192C127.108 173.042 126.489 176.107 126.495 179.202C126.403 182.295 126.933 185.375 128.054 188.259C129.174 191.143 130.862 193.772 133.017 195.99C135.171 198.207 137.749 199.969 140.596 201.169C143.444 202.369 146.503 202.983 149.592 202.976C155.68 202.964 161.515 200.533 165.815 196.217C170.116 191.9 172.531 186.051 172.531 179.953Z" fill="#E6E7E8"/>
<path d="M0.830189 204.864C0.557647 162.162 -0.123721 119.461 1.17085 76.7587C6.23558 88.7935 13.7305 94.7768 23.9962 94.39C35.7382 93.9805 43.006 87.565 46.708 76.5767C46.9124 94.663 47.2758 112.749 47.3213 130.836C47.3213 155.542 47.1395 180.249 47.0487 204.955C42.6199 194.809 35.6928 187.597 23.9962 187.574C12.2996 187.552 5.30441 194.741 0.830189 204.864Z" fill="#E6E7E8"/>
<path d="M235.784 108.927C235.784 135.515 235.844 162.102 235.965 188.689C231.173 178.11 224.178 170.83 211.391 171.399C199.763 171.922 193.88 179.339 189.497 188.825C189.497 162.147 189.55 135.477 189.656 108.814C191.209 111.844 192.993 114.75 194.993 117.504C206.826 131.541 225.813 127.491 235.784 108.927Z" fill="#D1D3D4"/>
<path d="M126.063 70.0019C126.364 63.744 129.105 57.8542 133.696 53.5997C138.288 49.3452 144.363 47.0658 150.615 47.2519C156.85 47.6789 162.675 50.5157 166.862 55.1635C171.049 59.8114 173.269 65.9067 173.054 72.1632C172.236 85.2445 160.971 95.664 148.457 94.9132C142.222 94.4973 136.394 91.6623 132.212 87.0105C128.031 82.3588 125.825 76.2571 126.063 70.0019Z" fill="#BCBEC0"/>
<path d="M235.784 108.927C225.813 127.491 206.781 131.541 194.902 117.504C192.902 114.75 191.118 111.844 189.565 108.814C189.338 104.264 188.634 99.7135 190.088 95.1635C191.773 89.7475 195.312 85.101 200.081 82.0421C204.851 78.9833 210.545 77.7085 216.161 78.4422C221.739 79.3697 226.803 82.2638 230.439 86.6023C234.075 90.9408 236.043 96.4381 235.988 102.102C236.102 104.332 235.897 106.63 235.784 108.927Z" fill="#A7A9AC"/>
<path d="M46.6625 76.5767C43.0059 87.5195 35.7381 93.9805 23.9507 94.39C13.685 94.7767 6.19008 88.7935 1.12535 76.7587C1.12535 72.2087 0.307739 67.6587 1.98841 63.1087C6.37179 51.3241 16.7738 46.3191 31.5138 49.0719C39.4629 50.5734 46.6171 60.5606 46.7534 70.4797C46.8215 72.5727 46.7079 74.5747 46.6625 76.5767Z" fill="#D1D3D4"/>
<path d="M62.5383 271.363C62.4413 268.266 62.9769 265.182 64.1121 262.3C65.2474 259.418 66.9584 256.798 69.1402 254.602C71.3221 252.406 73.9288 250.679 76.8005 249.528C79.6723 248.377 82.7485 247.825 85.8406 247.907C88.9344 247.883 92.0023 248.475 94.8662 249.648C97.7301 250.82 100.333 252.551 102.524 254.739C104.715 256.928 106.45 259.53 107.629 262.395C108.808 265.26 109.408 268.332 109.393 271.431C109.31 277.674 106.793 283.637 102.379 288.045C97.9652 292.454 92.0051 294.958 85.7724 295.023C82.6815 295.048 79.6171 294.451 76.7613 293.266C73.9056 292.081 71.317 290.332 69.1494 288.125C66.9818 285.918 65.2795 283.296 64.1437 280.417C63.008 277.537 62.462 274.458 62.5383 271.363Z" fill="#D1D3D4"/>
<path d="M109.166 60.8564C105.645 71.2759 98.7863 78.5104 87.6575 79.3977C76.1426 80.2849 68.4206 73.4372 62.9243 63.8139C61.8341 58.3932 61.8341 52.8091 62.9243 47.3884C68.6023 38.6751 75.4612 31.1221 86.7717 31.8501C98.0822 32.5781 105.282 39.7671 109.143 50.3004L109.166 60.8564Z" fill="white"/>
<path d="M0.830101 204.864C5.37246 194.741 12.186 187.529 23.9507 187.574C35.7154 187.62 42.5744 194.809 47.0032 204.955C47.8169 208.988 47.438 213.17 45.913 216.99C43.0967 228.069 35.4656 234.189 24.5185 234.553C12.345 234.94 5.69042 227.728 0.784668 217.877L0.830101 204.864Z" fill="white"/>
<path d="M189.497 188.825C193.88 179.339 199.763 171.922 211.391 171.399C224.178 170.83 231.173 178.11 235.965 188.689C236.102 192.397 236.511 196.105 234.853 199.609C233.649 208.982 227.857 214.397 219.295 217.081C206.826 220.994 197.469 215.739 189.497 200.701V188.825Z" fill="#D1D3D4"/>
<path d="M109.166 50.3004C105.305 39.7671 98.1958 32.6008 86.7945 31.8501C75.3931 31.0993 68.625 38.6751 62.9471 47.3884C62.8335 39.0391 62.4474 30.7126 62.72 22.3633C62.859 16.6981 65.0872 11.285 68.9749 7.16806C72.8627 3.05113 78.1345 0.521921 83.7738 0.0682496C89.4136 -0.451105 95.0455 1.13986 99.5834 4.53429C104.121 7.92872 107.244 12.8861 108.348 18.4503C110.596 28.9836 109.166 39.6761 109.166 50.3004Z" fill="#D1D3D4"/>
<path d="M189.497 200.701C197.469 215.739 206.826 220.994 219.295 217.081C227.857 214.397 233.649 208.982 234.853 199.609C237.032 209.945 237.194 220.606 235.33 231.004C233.558 242.493 221.703 250.137 210.506 248.863C204.875 248.38 199.618 245.843 195.732 241.733C191.846 237.622 189.603 232.226 189.429 226.568C189.134 217.968 189.452 209.323 189.497 200.701Z" fill="#D1D3D4"/>
<path d="M0.784675 217.877C5.69042 227.705 12.345 234.94 24.5185 234.553C35.4656 234.189 43.0967 228.069 45.913 216.99C48.3996 226.953 48.3996 237.376 45.913 247.339C43.0513 259.282 32.6039 265.539 20.226 263.923C14.8931 263.209 9.98645 260.622 6.38028 256.622C2.77412 252.622 0.70261 247.47 0.534844 242.083C0.285014 234.03 0.716539 225.954 0.784675 217.877Z" fill="#E6E7E8"/>
<path d="M172.531 179.953C172.531 186.051 170.116 191.9 165.816 196.217C161.515 200.533 155.68 202.964 149.593 202.976C146.495 202.984 143.428 202.366 140.575 201.161C137.721 199.955 135.139 198.185 132.983 195.958C130.827 193.731 129.142 191.091 128.027 188.196C126.912 185.302 126.391 182.212 126.495 179.111C126.489 176.016 127.108 172.951 128.315 170.101C129.521 167.251 131.29 164.675 133.515 162.527C135.74 160.379 138.376 158.703 141.263 157.601C144.151 156.498 147.231 155.991 150.319 156.111C153.346 156.199 156.325 156.887 159.084 158.136C161.844 159.385 164.328 161.17 166.394 163.388C168.46 165.605 170.066 168.211 171.119 171.054C172.173 173.898 172.653 176.922 172.531 179.953Z" fill="white"/>
</g>
</g>
<defs>
<clipPath id="clip0_14_344">
<rect width="236.203" height="295" fill="white" transform="translate(0.398682)"/>
</clipPath>
</defs>
</svg>
