<svg width="27" height="21" viewBox="0 0 27 21" fill="none" xmlns="http://www.w3.org/2000/svg">
<g clip-path="url(#clip0_565_976)">
<path d="M0 6.53649C0.124677 6.06591 0.303592 5.62752 0.671989 5.29068C1.07082 4.91755 1.59482 4.71293 2.13712 4.71855C2.80559 4.71855 3.47546 4.71855 4.14111 4.71855H22.2552C23.2991 4.71855 24.1 5.26135 24.3825 6.1832C24.4562 6.43866 24.493 6.70366 24.4917 6.96987C24.5001 9.02239 24.4966 11.0756 24.4952 13.1281C24.4952 13.2168 24.5149 13.3341 24.4684 13.3884C24.3684 13.5057 24.2423 13.6459 24.1064 13.6745C23.9239 13.7138 23.7683 13.5865 23.7267 13.3842C23.708 13.2698 23.7009 13.1538 23.7056 13.038C23.7056 11.0475 23.7056 9.0572 23.7056 7.06714C23.7056 6.02372 23.2125 5.5181 22.1904 5.5181H2.25616C1.48133 5.5181 0.960789 5.90143 0.819911 6.58441C0.798648 6.70714 0.78968 6.83173 0.793144 6.95629C0.793144 10.8925 0.793144 14.8285 0.793144 18.7643C0.793144 19.6454 1.32285 20.1904 2.18361 20.1904C8.89035 20.1904 15.5964 20.1904 22.3017 20.1904C23.1702 20.1904 23.6999 19.6597 23.7042 18.7765C23.7105 17.5986 23.7042 16.42 23.7042 15.2421C23.7008 15.1442 23.7053 15.0461 23.7175 14.9489C23.7528 14.7344 23.8824 14.6157 24.0965 14.6149C24.143 14.6106 24.1898 14.6157 24.2343 14.63C24.2788 14.6442 24.32 14.6672 24.3557 14.6978C24.3913 14.7283 24.4207 14.7657 24.4419 14.8078C24.4632 14.85 24.4761 14.896 24.4797 14.9432C24.5022 15.0912 24.4987 15.2436 24.5072 15.393C25.7244 15.5246 26.3083 14.665 26.1921 13.7653C25.9434 11.8466 25.7427 9.92206 25.5229 7.99971C25.2926 5.98867 25.0665 3.97693 24.8298 1.96661C24.7403 1.20353 24.1141 0.725092 23.3266 0.809481C22.5391 0.89387 21.7565 0.992562 20.9711 1.08625L15.7114 1.7113C13.5043 1.974 11.2973 2.23623 9.09016 2.49798C7.20615 2.72015 5.32167 2.94066 3.43672 3.1595C3.02184 3.2067 2.65133 3.32041 2.36041 3.64938C2.18361 3.84963 1.94341 3.85034 1.77859 3.68586C1.61376 3.52137 1.62221 3.30181 1.78493 3.10872C2.19911 2.61669 2.74853 2.4286 3.36417 2.3578C5.59779 2.10177 7.83071 1.83144 10.0636 1.57112C12.2533 1.31366 14.4431 1.05669 16.6328 0.800183C18.8164 0.54201 20.9958 0.290985 23.1745 0.0185082C24.4536 -0.141688 25.4912 0.695763 25.6328 2.00022C25.8582 4.08348 26.1082 6.16389 26.3477 8.24573C26.5626 10.1144 26.7873 11.9832 26.9866 13.854C27.0161 14.13 26.9916 14.4092 26.9145 14.6755C26.8374 14.9419 26.7092 15.1901 26.5373 15.4061C26.3654 15.622 26.1532 15.8013 25.9129 15.9337C25.6726 16.0661 25.4089 16.149 25.1369 16.1776C24.4952 16.2534 24.4952 16.2534 24.4952 16.9235C24.4952 17.5307 24.4952 18.1393 24.4952 18.7443C24.486 20.1188 23.6154 20.9978 22.2616 20.9985H2.30195C1.0742 20.9985 0.383893 20.4707 0.0338109 19.2656C0.0295845 19.2513 0.0112703 19.2399 0 19.227V6.53649Z" fill="#44239D"/>
<path d="M5.0371 9.45229C5.44142 9.45229 5.84574 9.44728 6.24935 9.45229C7.04813 9.46444 7.54895 9.96935 7.55952 10.7753C7.56656 11.3108 7.56656 11.8462 7.55952 12.3816C7.54755 13.1683 7.03898 13.6875 6.26485 13.6961C5.45715 13.7046 4.64874 13.7046 3.83963 13.6961C3.05776 13.6875 2.54285 13.1518 2.53721 12.3573C2.53346 11.8328 2.53346 11.3062 2.53721 10.7775C2.54355 9.99509 3.05142 9.47088 3.82414 9.453C4.22846 9.44514 4.63278 9.45229 5.0371 9.45229ZM5.05964 12.8958C5.4548 12.8958 5.84996 12.9015 6.24513 12.8958C6.59732 12.8894 6.76356 12.7263 6.76778 12.3701C6.77483 11.8438 6.77412 11.3174 6.76778 10.7911C6.76356 10.427 6.60859 10.2626 6.25358 10.2597C5.45527 10.2525 4.65696 10.2525 3.85865 10.2597C3.49448 10.2597 3.33318 10.4363 3.33036 10.8097C3.33036 11.3174 3.33036 11.8266 3.33036 12.3344C3.33036 12.722 3.49659 12.8915 3.87556 12.8972C4.26861 12.9001 4.66236 12.8958 5.05964 12.8958Z" fill="#44239D"/>
<path d="M7.19817 17.1918C8.55976 17.1918 9.92205 17.1875 11.2836 17.1989C11.4369 17.1991 11.585 17.2549 11.7013 17.3563C11.9127 17.5708 11.7598 17.9284 11.4576 17.987C11.3791 17.9965 11.2999 17.9991 11.2209 17.9949H3.10355C3.05987 17.9949 3.0155 17.9949 2.97182 17.9949C2.7105 17.9813 2.53651 17.8168 2.53933 17.588C2.54215 17.3591 2.71684 17.1953 2.98169 17.1946C3.88683 17.1903 4.79197 17.1946 5.69641 17.1946L7.19817 17.1918Z" fill="#44239D"/>
<path d="M21.1028 10.0759C21.1088 10.7729 20.9575 11.4621 20.6605 12.0905C20.5344 12.3651 20.3139 12.4674 20.0927 12.363C19.8716 12.2586 19.8166 12.0376 19.9378 11.7673C20.4421 10.6395 20.4463 9.51308 19.942 8.38384C19.8145 8.09777 19.88 7.87107 20.1061 7.77166C20.3322 7.67225 20.5344 7.77166 20.6654 8.05773C20.9615 8.68757 21.1112 9.37805 21.1028 10.0759Z" fill="#44239D"/>
<path d="M19.8554 15.848C19.3376 15.848 18.8199 15.848 18.3022 15.848C17.9725 15.848 17.7852 15.7049 17.7781 15.4518C17.7711 15.1986 17.9606 15.0463 18.2853 15.0456C19.3386 15.0456 20.3914 15.0456 21.4438 15.0456C21.7784 15.0456 21.9509 15.1886 21.9481 15.4482C21.9453 15.7078 21.7685 15.8465 21.4346 15.848C20.9077 15.8494 20.3815 15.848 19.8554 15.848Z" fill="#44239D"/>
<path d="M4.61094 15.8473C4.06715 15.8473 3.52266 15.8551 2.97887 15.8473C2.6302 15.8408 2.41888 15.5097 2.60413 15.2515C2.64962 15.1955 2.70574 15.1494 2.76915 15.1158C2.83256 15.0823 2.90196 15.062 2.97323 15.0563C4.07842 15.0413 5.18361 15.0456 6.2888 15.0499C6.54802 15.0499 6.70017 15.1993 6.71144 15.4289C6.72271 15.6585 6.5614 15.8422 6.29796 15.8465C5.73374 15.8537 5.17234 15.8473 4.61094 15.8473Z" fill="#44239D"/>
<path d="M14.7985 15.0448C15.3339 15.0448 15.8692 15.0448 16.4046 15.0448C16.6955 15.0448 16.8687 15.1936 16.8744 15.4325C16.88 15.6713 16.6976 15.8444 16.3961 15.8458C15.3264 15.8487 14.2559 15.8487 13.1848 15.8458C12.8763 15.8458 12.7037 15.6914 12.7058 15.4382C12.7079 15.185 12.8741 15.0456 13.1932 15.0441C13.7286 15.0434 14.2632 15.0448 14.7985 15.0448Z" fill="#44239D"/>
<path d="M9.70016 15.848C9.17398 15.848 8.64358 15.848 8.12092 15.848C7.81099 15.848 7.63207 15.7007 7.62785 15.4554C7.6208 15.1943 7.79831 15.047 8.12796 15.0463C9.18032 15.0463 10.2329 15.0463 11.2857 15.0463C11.6154 15.0463 11.8007 15.1936 11.7985 15.4461C11.7964 15.6985 11.607 15.8473 11.2808 15.8487C10.7525 15.8494 10.227 15.848 9.70016 15.848Z" fill="#44239D"/>
<path d="M19.4863 10.0666C19.3637 10.5086 19.2651 10.9291 19.1263 11.336C19.039 11.5935 18.8101 11.6836 18.603 11.5992C18.3825 11.5091 18.2937 11.2774 18.4071 11.0213C18.5475 10.7234 18.6203 10.3973 18.6203 10.067C18.6203 9.73667 18.5475 9.41057 18.4071 9.11258C18.2973 8.86656 18.379 8.64629 18.5875 8.54975C18.6372 8.52444 18.6917 8.51056 18.7473 8.5091C18.8029 8.50764 18.8581 8.51864 18.909 8.54131C18.9599 8.56398 19.0053 8.59776 19.0419 8.64026C19.0785 8.68276 19.1054 8.73292 19.1207 8.78718C19.2616 9.20054 19.363 9.62964 19.4863 10.0666Z" fill="#44239D"/>
<path d="M17.7542 10.0716C17.7091 10.2607 17.6517 10.4466 17.5823 10.628C17.5624 10.6755 17.5332 10.7184 17.4963 10.7539C17.4594 10.7894 17.4157 10.8168 17.3679 10.8343C17.3201 10.8519 17.2692 10.8593 17.2185 10.8561C17.1678 10.8528 17.1182 10.8389 17.073 10.8154C16.8793 10.7145 16.8159 10.5544 16.8582 10.3269C16.8874 10.158 16.8874 9.98522 16.8582 9.81631C16.8201 9.58674 16.892 9.39579 17.0906 9.31569C17.1371 9.29481 17.1874 9.28381 17.2382 9.28338C17.2891 9.28296 17.3395 9.2931 17.3864 9.3132C17.4332 9.3333 17.4755 9.36293 17.5107 9.40025C17.5458 9.43758 17.5731 9.48182 17.5907 9.53024C17.6561 9.70713 17.7107 9.88793 17.7542 10.0716Z" fill="#44239D"/>
<path d="M5.085 11.1851C5.23326 11.1762 5.38191 11.1762 5.53017 11.1851C5.74149 11.2123 5.85631 11.3503 5.85842 11.5677C5.86053 11.7851 5.74853 11.9396 5.53862 11.9546C5.21541 11.9757 4.89119 11.9757 4.56797 11.9546C4.35666 11.9418 4.23621 11.7809 4.23621 11.5727C4.23621 11.3525 4.35807 11.1994 4.5884 11.1794C4.75393 11.1644 4.92087 11.1794 5.08711 11.1794L5.085 11.1851Z" fill="#44239D"/>
</g>
<defs>
<clipPath id="clip0_565_976">
<rect width="27" height="21" fill="white"/>
</clipPath>
</defs>
</svg>
