<svg width="152" height="140" viewBox="0 0 152 140" fill="none" xmlns="http://www.w3.org/2000/svg">
<g clip-path="url(#clip0_42_362)">
<path d="M110.655 124.575C110.554 124.893 110.493 125.223 110.474 125.557C110.886 130.065 108.442 132.743 104.732 134.67C100.734 136.746 96.4448 137.882 92.0522 138.615C79.8354 140.649 67.6363 140.534 55.5708 137.675C52.5336 136.954 49.5617 135.711 46.75 134.32C43.3628 132.648 41.076 130.026 41.5773 125.835C41.6218 125.468 41.4824 125.076 41.3904 124.438C40.3909 124.438 39.4418 124.403 38.4957 124.438C30.357 124.806 22.2807 124.263 14.3705 122.318C11.2223 121.492 8.1656 120.351 5.24714 118.91C1.68798 117.208 -0.0263518 114.393 0.00330794 110.134C0.16347 87.4076 0.121945 64.6778 0.0566932 41.951C0.0566932 39.0831 1.00284 36.8261 3.36079 35.4262C5.88779 33.9434 8.54233 32.496 11.3274 31.6389C21.6727 28.4477 32.3146 28.08 43.0247 28.9371C48.66 29.3879 54.2094 30.2302 59.5303 32.2321C60.4527 32.5791 61.3633 32.9676 62.2649 33.371C66.8474 35.4203 69.4218 38.5789 69.0244 43.9825C68.6833 48.5943 68.9532 53.2506 68.9532 58.1175H83.0178C83.0623 57.1032 83.1424 56.1423 83.1424 55.1784C83.1424 41.5358 83.2284 27.8931 83.0593 14.2713C83.0089 10.4158 84.483 7.67834 87.7189 6.05309C90.6849 4.57019 93.8288 3.16737 97.0528 2.42C111.645 -0.95507 126.25 -0.904651 140.721 3.17627C143.248 3.89103 145.68 5.13073 147.973 6.43864C150.722 8.01644 152.009 10.4751 152.003 13.8175C151.934 46.1327 151.934 78.447 152.003 110.76C152.003 114.224 150.553 116.582 147.803 118.385C144.692 120.423 141.21 121.514 137.642 122.351C129.604 124.24 121.442 124.765 113.208 124.427C112.615 124.403 112.022 124.355 111.429 124.352C111.163 124.398 110.904 124.472 110.655 124.575ZM33.3319 48.6121C42.0133 48.452 49.6922 47.9893 57.0596 45.4625C58.9259 44.8371 60.7165 44.0055 62.3984 42.9831C64.5754 41.6366 64.6258 40.2605 62.3984 38.9971C60.0256 37.6536 57.4601 36.4435 54.8263 35.7762C41.776 32.4634 28.6338 32.499 15.5361 35.3877C12.4099 36.0757 9.36984 37.4637 6.51065 38.9466C4.25354 40.1329 4.29507 41.5921 6.51065 42.9327C8.53401 44.1506 10.6957 45.1224 12.9498 45.8273C19.8901 47.9982 27.0885 48.4045 33.3319 48.6121ZM147.243 12.1596C146.439 11.436 145.76 10.57 144.849 10.0658C143.396 9.23349 141.864 8.54702 140.276 8.01644C130.15 4.73331 119.719 4.3181 109.243 5.29681C104.462 5.74168 99.7162 6.81826 95.0359 7.9423C92.9835 8.43462 91.0289 9.59721 89.2226 10.7598C87.4846 11.8779 87.5291 13.0168 89.19 14.2565C90.2891 15.0919 91.5067 15.7586 92.8025 16.2346C95.3001 17.1473 97.8555 17.8934 100.452 18.4679C110.806 20.5884 121.214 20.5439 131.657 19.061C135.664 18.4916 139.629 17.679 143.266 15.766C144.737 14.9979 146.332 14.3573 147.243 12.1596ZM105.719 70.123C104.732 69.3697 103.765 68.3435 102.584 67.7919C100.555 66.788 98.4318 65.9845 96.2461 65.3926C83.2878 62.1747 70.2464 62.1747 57.2524 65.0218C54.0344 65.7277 50.9112 67.1602 47.9571 68.6727C45.8335 69.7612 45.964 71.0454 47.8978 72.5283C48.592 73.0824 49.3673 73.5265 50.1964 73.8451C52.9815 74.8208 55.7428 75.9686 58.6138 76.5588C68.987 78.6603 79.6556 78.8613 90.1005 77.1519C93.8673 76.5588 97.5629 75.3428 101.199 74.1357C102.988 73.5337 104.904 72.7032 105.707 70.123H105.719ZM105.648 77.834C85.7436 84.8363 66.1771 84.8541 46.4178 77.834C46.4178 79.7707 46.5097 81.6421 46.3911 83.5017C46.2784 85.2278 47.005 86.4467 48.4495 87.0992C50.9587 88.2351 53.4738 89.5133 56.1254 90.151C69.4129 93.3421 82.7628 93.271 96.0503 90.151C98.6099 89.5578 101.066 88.3567 103.43 87.1614C104.364 86.6899 105.411 85.5362 105.55 84.5723C105.853 82.3836 105.636 80.1207 105.636 77.837L105.648 77.834ZM147.172 33.8781C127.35 41.0405 107.724 40.9278 87.8969 33.976C87.8969 36.0046 87.9739 37.876 87.8731 39.7385C87.7841 41.3341 88.4663 42.467 89.7773 43.1225C91.7971 44.1279 93.8495 45.1451 96.0058 45.8273C101.881 47.6957 107.982 48.3067 114.098 48.4965C122.614 48.7723 131.078 48.2829 139.282 45.7264C141.335 45.0858 143.292 44.1041 145.232 43.1521C146.315 42.6213 147.166 41.7493 147.175 40.391C147.181 38.2556 147.172 36.1113 147.172 33.8722V33.8781ZM4.8853 48.0427C4.8853 50.1543 4.95945 52.1177 4.86454 54.0722C4.78446 55.6766 5.50223 56.774 6.81912 57.4205C8.75886 58.3725 10.7075 59.4254 12.7748 59.983C27.0767 63.8385 41.4349 63.8118 55.7576 60.1046C58.0147 59.5114 60.171 58.417 62.2323 57.293C63.0598 56.8392 63.9318 55.733 64.0386 54.8344C64.2996 52.6486 64.1216 50.4094 64.1216 48.1762C44.2585 55.1013 24.8225 55.3415 4.8853 48.0457V48.0427ZM147.181 48.1613C127.285 55.1725 107.71 55.2258 87.9354 48.1613C87.9354 50.1929 87.9977 52.1592 87.9146 54.1196C87.8523 55.5877 88.4396 56.6702 89.6764 57.2782C91.7052 58.2776 93.7309 59.4046 95.905 59.9919C110.029 63.8296 124.224 63.7614 138.387 60.2262C140.759 59.633 143.025 58.5357 145.173 57.3642C146.062 56.8778 146.952 55.6529 147.101 54.6564C147.382 52.5566 147.181 50.3975 147.181 48.1643V48.1613ZM105.616 120.512C85.8414 127.576 66.2868 127.567 46.3763 120.544C46.3763 122.401 46.486 124.249 46.3436 126.081C46.2013 127.914 46.9131 129.228 48.494 129.916C51.104 131.052 53.7259 132.289 56.4664 132.986C64.264 135 72.2425 135.424 80.2625 135.062C86.0876 134.804 91.895 134.264 97.4651 132.425C99.6127 131.714 101.69 130.806 103.67 129.712C104.509 129.249 105.42 128.166 105.527 127.271C105.793 125.067 105.616 122.81 105.616 120.512ZM46.4 92.0402C46.4 93.9828 46.5186 95.7622 46.3673 97.515C46.2013 99.4902 47.097 100.813 48.7193 101.557C51.0417 102.619 53.3997 103.728 55.8614 104.33C69.2261 107.593 82.6471 107.516 96.0147 104.387C98.6604 103.77 101.193 102.492 103.628 101.234C104.518 100.768 105.441 99.5436 105.58 98.5649C105.877 96.4651 105.672 94.2912 105.672 92.0639C85.8207 99.0483 66.2779 99.1343 46.4 92.0461V92.0402ZM46.4 106.303C46.4 108.254 46.4801 110.209 46.3763 112.151C46.2902 113.744 46.9457 114.871 48.2744 115.532C50.1193 116.455 51.973 117.472 53.9424 118.012C68.3274 121.962 82.7776 121.98 97.2041 118.258C99.4582 117.665 101.632 116.588 103.67 115.431C104.56 114.921 105.449 113.702 105.577 112.703C105.874 110.627 105.666 108.462 105.666 106.27C85.7643 113.326 66.2156 113.335 46.4 106.309V106.303ZM87.8998 19.586C87.8998 21.579 88.0155 23.4415 87.8672 25.2922C87.7189 27.1428 88.5078 28.4211 90.0679 29.1002C92.6809 30.2361 95.3088 31.4432 98.0494 32.1491C105.553 34.0827 113.238 34.5632 120.959 34.2637C127.08 34.0234 133.184 33.4866 139.051 31.5618C141.197 30.8511 143.27 29.9364 145.241 28.8303C146.074 28.3647 146.952 27.2674 147.059 26.3687C147.323 24.177 147.145 21.9349 147.145 19.7016C127.288 26.7157 107.739 26.8225 87.8998 19.5919V19.586ZM147.151 104.755C141.219 107.48 135.367 109.088 129.257 109.547C123.147 110.007 116.937 110.212 110.693 110.532V119.521C121.151 120.097 131.247 119.723 141.032 116.369C142.613 115.819 144.117 115.07 145.508 114.138C146.243 113.652 146.991 112.655 147.077 111.828C147.293 109.601 147.151 107.355 147.151 104.755ZM110.056 67.3856C110.278 70.6479 110.474 73.5692 110.675 76.5617C111.064 76.6776 111.461 76.7658 111.862 76.8257C120.671 77.4396 129.403 76.8761 137.962 74.6251C140.501 73.9548 142.924 72.7448 145.274 71.5347C146.107 71.1047 147 69.9925 147.107 69.0998C147.37 66.9111 147.192 64.666 147.192 62.0976C135.026 67.4745 122.608 67.955 110.056 67.3856ZM4.84674 104.82C4.84674 106.991 4.96537 108.844 4.8141 110.677C4.66284 112.51 5.5022 113.753 7.01188 114.497C8.94866 115.449 10.9181 116.407 12.9765 117.027C20.1156 119.186 27.48 119.741 34.8979 119.738C37.0364 119.738 39.1778 119.548 41.515 119.441C41.6218 116.161 41.6514 113.183 41.5358 110.14C28.8474 110.612 16.7077 110.093 4.84674 104.82ZM4.8853 62.0739C4.8853 63.6398 4.8853 64.8142 4.8853 65.9887C4.92089 70.7784 5.35096 71.4398 9.74653 73.1926C10.9402 73.6656 12.1579 74.0754 13.3946 74.4204C21.9574 76.8286 30.6952 77.3862 39.5337 76.8375C40.1894 76.7595 40.8401 76.6436 41.4824 76.4905C41.6188 73.3854 41.7493 70.4789 41.8858 67.3885C29.4139 67.9105 17.0309 67.5309 4.8853 62.0739ZM4.85563 90.5751C4.85563 92.746 4.98613 94.5225 4.82004 96.2694C4.62132 98.381 5.57338 99.7216 7.34703 100.481C9.78209 101.528 12.229 102.652 14.7827 103.295C22.6752 105.279 30.7278 105.795 38.8427 105.392C39.6939 105.348 40.5363 105.152 41.4379 105.018V95.9016C28.9927 96.3821 16.85 95.8571 4.85563 90.5751ZM4.87639 76.3571C4.87639 78.5963 4.95647 80.5448 4.85266 82.4844C4.76961 84.0681 5.40136 85.1862 6.72122 85.8802C8.17959 86.6975 9.70107 87.3967 11.271 87.9711C20.4655 91.0437 29.9744 91.6101 39.5842 91.0881C40.2217 91.0136 40.8545 90.9027 41.4794 90.756C41.7108 87.725 41.7018 84.6806 41.4527 81.651C28.7999 82.1641 16.6721 81.5858 4.87639 76.3571ZM110.637 90.9754C121.107 91.6843 131.265 91.2008 141.127 87.8465C142.699 87.2668 144.194 86.4948 145.576 85.5481C146.255 85.1062 146.997 84.2372 147.077 83.4957C147.359 81.1203 147.339 78.7187 147.018 76.3482C135.228 81.6866 123.073 82.0544 110.643 81.7044L110.637 90.9754ZM147.172 90.4772C135.308 95.9787 123.058 96.2575 110.601 95.9431V104.873C110.898 105.036 111.076 105.185 111.248 105.199C120.757 105.962 130.156 105.383 139.339 102.664C141.391 102.056 143.328 101.009 145.271 100.042C146.59 99.3805 147.273 98.2624 147.201 96.6698C147.106 94.8072 147.172 92.9388 147.172 90.4772Z" fill="#6D6E71"/>
</g>
<defs>
<clipPath id="clip0_42_362">
<rect width="152" height="140" fill="white"/>
</clipPath>
</defs>
</svg>
