<svg width="226" height="226" viewBox="0 0 226 226" fill="none" xmlns="http://www.w3.org/2000/svg">
<g clip-path="url(#clip0_25_558)">
<path d="M60.5193 196.908V198.327C60.5193 206.579 60.5193 214.83 60.5193 223.081C60.5193 223.217 60.5193 223.355 60.5193 223.494C60.5193 225.144 59.9128 225.99 58.735 225.996C57.5571 226.002 56.9506 225.156 56.9506 223.508C56.9506 214.329 56.9506 205.149 56.9506 195.97C56.9506 194 57.2043 193.665 59.131 193.164C59.0889 192.975 59.0309 192.79 58.9577 192.611C54.8693 184.626 50.7849 176.638 46.7047 168.65C46.356 167.963 45.9208 167.825 45.2463 167.825C34.4867 167.84 23.7264 167.84 12.9654 167.825C5.793 167.825 0.609158 162.643 0.609158 155.464C0.609158 107.849 0.609158 60.2328 0.609158 12.615C0.598532 11.0381 0.900321 9.47474 1.4971 8.01513C2.09389 6.55553 2.97385 5.22857 4.08619 4.11086C5.19854 2.99314 6.52124 2.1068 7.97795 1.503C9.43467 0.899192 10.9965 0.58988 12.5734 0.592912C79.6835 0.584661 146.793 0.584661 213.903 0.592912C220.723 0.592912 225.983 6.01191 225.983 12.9698C225.983 28.4408 225.983 43.9119 225.983 59.3829V155.2C225.983 159.373 224.506 162.849 221.134 165.407C218.92 167.086 216.389 167.821 213.621 167.821C187.079 167.821 160.538 167.821 133.996 167.821C133.068 167.821 132.14 167.777 131.214 167.847C130.923 167.87 130.473 168.142 130.405 168.388C128.099 176.672 124.01 184.243 120.916 192.211C120.805 192.494 120.71 192.781 120.53 193.274C121.11 193.274 121.562 193.263 122.026 193.274C123.416 193.307 124.124 193.989 124.14 195.371C124.163 197.16 124.14 198.948 124.14 200.735V223.013C124.14 223.426 124.163 223.838 124.122 224.251C124.019 225.282 123.233 226.004 122.282 225.973C121.368 225.942 120.632 225.233 120.543 224.249C120.523 223.94 120.519 223.63 120.53 223.32C120.53 214.933 120.508 206.544 120.555 198.154C120.555 197.079 120.242 196.859 119.225 196.861C100.076 196.89 80.9273 196.897 61.7776 196.881L60.5193 196.908ZM198.727 153.338V152.125C198.727 106.916 198.727 61.7091 198.727 16.5033C198.727 15.1357 198.727 15.1336 197.42 15.1336H20.0264C18.7 15.1336 18.7 15.1336 18.7 16.4827C18.7 61.6554 18.7 106.831 18.7 152.009V153.247H41.9602C41.8426 152.783 41.7642 152.422 41.6611 152.069C40.2274 147.19 38.7979 142.304 37.354 137.435C36.0895 133.188 34.9632 128.891 33.4635 124.726C31.3966 118.994 33.7564 113.012 39.3157 110.516C39.7741 110.267 40.1461 109.885 40.3822 109.42C41.3888 107.549 42.1685 105.538 43.3237 103.766C46.8676 98.3267 51.839 94.6899 58.0212 92.7365C58.5802 92.5591 58.7741 92.2785 58.7597 91.705C58.7288 90.2611 58.7597 88.8171 58.7597 87.3732C58.7597 85.0772 58.7597 85.0773 56.6103 84.4027C55.5624 84.0747 54.9435 83.1506 55.1663 82.2306C55.3973 81.2404 56.3813 80.6835 57.5014 80.9083C57.883 80.9846 58.2667 81.0527 58.768 81.1476C58.768 79.6397 58.7288 78.303 58.7824 76.9704C58.8133 76.2319 58.5761 75.8874 57.8438 75.6626C54.1372 74.5537 50.7292 72.6216 47.8743 70.0105C37.7438 60.7176 35.8564 46.4697 43.1608 34.8314C49.1429 25.3136 61.4867 20.3752 72.3598 23.2137C81.9539 25.72 88.5075 31.6588 91.7853 41.0074C94.1926 47.8683 93.6686 54.6756 90.6239 61.2704C88.5446 65.7776 85.372 69.3731 81.3227 72.2177C81.0277 72.424 80.5945 72.7272 80.5842 72.9975C80.5161 74.7612 80.5491 76.5269 80.5491 78.534C81.8136 77.7873 82.843 77.1808 83.8682 76.5702C84.1034 76.43 84.32 76.2546 84.5613 76.1247C85.4628 75.6337 86.5189 75.8606 87.0367 76.6424C87.1659 76.8372 87.2553 77.0556 87.2997 77.2851C87.3442 77.5146 87.3428 77.7506 87.2956 77.9796C87.2484 78.2085 87.1564 78.4258 87.0249 78.6191C86.8934 78.8123 86.7249 78.9776 86.5292 79.1054C84.8398 80.1575 83.0988 81.129 81.3454 82.0676C80.7534 82.3832 80.4996 82.7174 80.5058 83.4084C80.5409 86.9152 80.5203 90.422 80.5244 93.9288C80.5244 94.2155 80.576 94.5022 80.6152 94.9024C83.8434 92.5075 87.2347 91.6184 91.0179 92.7921C94.8011 93.9659 97.1919 96.5898 98.4069 100.404C102.169 97.3262 106.246 96.4846 110.604 98.4876C114.963 100.491 116.859 104.224 116.978 108.985C117.319 108.876 117.548 108.816 117.766 108.731C124.532 106.134 131.42 110.844 131.416 118.072C131.416 122.954 131.405 127.836 131.383 132.718C131.35 139.144 131.305 145.571 131.249 151.999C131.239 153.333 131.228 153.336 132.6 153.336H198.734L198.727 153.338ZM76.9454 103.75C76.9454 92.8857 76.9454 82.0215 76.9454 71.1574C76.9454 66.5904 73.2612 63.1991 68.8613 63.6694C65.0678 64.082 62.3387 67.1927 62.3366 71.1677C62.3366 90.312 62.3366 109.458 62.3366 128.607C62.3366 130.702 62.3366 132.8 62.3469 134.896C62.3469 135.864 61.988 136.581 61.0329 136.866C60.0778 137.151 59.3022 136.683 58.7989 135.67C58.7391 135.548 58.6834 135.42 58.6236 135.296C55.7205 129.295 52.825 123.292 49.9371 117.288C48.3776 114.064 44.6027 112.566 41.1021 113.744C37.7871 114.856 35.7037 118.41 36.4443 121.847C36.6939 123.014 37.1869 124.126 37.5252 125.275C41.3125 138.128 45.0943 150.981 48.8706 163.835C49.1903 164.92 49.4379 166.055 49.9433 167.053C54.1947 175.453 58.5101 183.822 62.7657 192.219C63.1782 193.045 63.6568 193.321 64.5789 193.319C81.5269 193.289 98.4736 193.281 115.419 193.296C115.66 193.296 115.924 193.356 116.135 193.278C116.38 193.187 116.692 193.02 116.782 192.807C118.967 187.65 120.941 182.398 123.336 177.336C126.56 170.529 127.862 163.48 127.723 155.968C127.53 145.489 127.765 135.001 127.81 124.518C127.81 122.249 127.86 119.98 127.794 117.711C127.719 115.188 126.494 113.313 124.215 112.238C122.03 111.207 119.883 111.392 117.861 112.766C117.543 112.963 117.284 113.242 117.112 113.575C116.94 113.907 116.862 114.28 116.886 114.654C116.923 121.803 116.906 128.953 116.906 136.107C116.918 136.416 116.913 136.726 116.89 137.035C116.852 137.485 116.652 137.906 116.326 138.219C116.001 138.531 115.573 138.715 115.122 138.735C114.181 138.749 113.395 138.001 113.302 136.98C113.274 136.672 113.29 136.361 113.29 136.051C113.29 126.839 113.304 117.626 113.29 108.41C113.28 104.259 110.039 101.017 105.994 101.025C101.912 101.025 98.7637 104.245 98.7576 108.422C98.7576 113.614 98.7576 118.804 98.7576 123.994C98.7576 128.189 98.7438 132.383 98.7163 136.577C98.7163 137.918 97.9696 138.758 96.8845 138.733C95.8387 138.71 95.1476 137.881 95.1311 136.604C95.1105 135.195 95.0919 133.786 95.0919 132.377C95.0919 122.682 95.127 112.987 95.1208 103.292C95.1208 99.7087 92.8229 96.8538 89.3842 96.0534C86.1786 95.3067 82.8141 96.9281 81.2753 99.9357C80.5388 101.38 80.5326 102.918 80.5326 104.474C80.5326 114.993 80.5326 125.513 80.5326 136.035C80.5451 136.413 80.5327 136.791 80.4955 137.167C80.4444 137.596 80.2377 137.992 79.9146 138.279C79.5915 138.566 79.1743 138.724 78.7421 138.724C78.31 138.724 77.8928 138.566 77.5696 138.279C77.2465 137.992 77.0398 137.596 76.9887 137.167C76.9553 136.79 76.9457 136.411 76.9599 136.033L76.9454 103.75ZM45.2071 164.19C44.5758 162.03 43.9384 160.005 43.4104 157.952C43.2041 157.127 42.8163 156.902 41.985 156.906C33.8719 156.939 25.7589 156.927 17.6438 156.925C15.6429 156.925 15.0942 156.37 15.0942 154.344V14.1827C15.0942 12.0497 15.6305 11.5196 17.7758 11.5196H199.608C201.84 11.5196 202.341 12.0167 202.341 14.2343C202.341 60.8853 202.341 107.537 202.341 154.19C202.341 156.436 201.859 156.925 199.637 156.925H131.255V164.244H213.167C218.838 164.244 222.39 160.71 222.392 155.058V13.3431C222.392 7.75292 218.834 4.21107 213.223 4.21107H13.3367C7.63715 4.21107 4.17369 7.69722 4.17369 13.4153C4.17369 60.7554 4.17369 108.095 4.17369 155.433C4.17369 160.566 7.78773 164.229 12.9159 164.235C23.2629 164.249 33.6106 164.249 43.9591 164.235C44.3345 164.242 44.7017 164.211 45.2071 164.19ZM80.3821 68.3149C87.9567 62.8649 92.3959 51.2926 87.7422 40.4298C83.0101 29.3876 71.1077 23.7624 59.3765 26.9927C48.3755 30.0168 40.9927 41.3272 42.5625 52.7613C43.367 58.6197 45.9971 63.5209 50.4012 67.4361C52.7941 69.5608 55.4943 71.1884 58.407 72.0217C58.9206 69.6846 59.4054 67.4733 59.9128 65.165C59.9004 65.165 59.6942 65.0391 59.4838 64.9339C55.6882 63.0258 53.2087 59.9976 51.9545 55.9648C51.4759 54.4281 52.2639 53.3698 53.8667 53.3678C61.8429 53.3595 69.8191 53.3595 77.7953 53.3678C79.4332 53.3678 80.2088 54.3827 79.7323 55.9545C79.4507 56.9096 79.0625 57.8299 78.575 58.6981C77.884 59.9027 77.0486 61.027 76.3224 62.1141C77.1476 63.0609 78.0717 63.9149 78.7359 64.9339C79.4002 65.953 79.8478 67.1824 80.3821 68.3149ZM58.6772 96.4165C53.3964 97.3344 44.7904 105.379 44.3819 109.711C44.5408 109.748 44.7037 109.798 44.8688 109.823C48.883 110.419 51.7255 112.558 53.4439 116.244C54.9249 119.417 56.4782 122.558 58.0027 125.712C58.1574 126.032 58.3265 126.346 58.4895 126.661L58.6731 126.604L58.6772 96.4165ZM75.4107 57.2933L75.1549 57.0437H56.2967C57.5785 59.4793 59.7465 61.3297 62.3531 62.2131C62.5137 62.2448 62.679 62.2444 62.8394 62.2118C62.9998 62.1792 63.1521 62.1152 63.2876 62.0233C65.9692 60.2741 68.8571 59.6016 72.0153 60.272C72.3062 60.3339 72.76 60.2906 72.9374 60.1049C73.7996 59.2035 74.5938 58.236 75.4107 57.2933Z" fill="#606060"/>
<path d="M198.734 153.338H132.592C131.22 153.338 131.23 153.338 131.241 152.001C131.289 145.573 131.334 139.146 131.375 132.72C131.4 127.838 131.411 122.956 131.408 118.074C131.408 110.854 124.524 106.136 117.758 108.734C117.54 108.818 117.311 108.878 116.97 108.987C116.859 104.226 114.982 100.505 110.604 98.4896C106.227 96.4743 102.17 97.3344 98.4132 100.404C97.1982 96.5898 94.828 93.9721 91.0242 92.7921C87.2204 91.6122 83.8497 92.5075 80.6214 94.9024C80.5822 94.5022 80.5327 94.2155 80.5307 93.9288C80.5307 90.422 80.5472 86.9152 80.5121 83.4084C80.5121 82.7174 80.7597 82.377 81.3517 82.0676C83.1051 81.129 84.8461 80.1574 86.5355 79.1054C86.7312 78.9776 86.8997 78.8123 87.0312 78.6191C87.1627 78.4258 87.2547 78.2085 87.3019 77.9795C87.3491 77.7506 87.3505 77.5146 87.306 77.2851C87.2616 77.0556 87.1722 76.8372 87.043 76.6424C86.5252 75.8606 85.469 75.6337 84.5676 76.1247C84.3262 76.2546 84.1097 76.43 83.8745 76.5702C82.8431 77.1891 81.8117 77.7873 80.5554 78.534C80.5554 76.5269 80.5224 74.7612 80.5905 72.9974C80.6008 72.7272 81.034 72.424 81.329 72.2177C85.3783 69.3731 88.5488 65.7776 90.6302 61.2704C93.6749 54.6694 94.1988 47.8621 91.7915 41.0074C88.5117 31.6588 81.954 25.72 72.3599 23.2137C61.4889 20.3752 49.1327 25.3136 43.1609 34.8314C35.8565 46.4697 37.7439 60.7176 47.8744 70.0105C50.7275 72.6208 54.1334 74.5529 57.8377 75.6626C58.57 75.8874 58.8073 76.2319 58.7763 76.9704C58.7227 78.303 58.7619 79.6397 58.7619 81.1476C58.2606 81.0527 57.8769 80.9846 57.4953 80.9083C56.3752 80.6835 55.3912 81.2404 55.1602 82.2306C54.9539 83.1506 55.5728 84.0747 56.6042 84.4027C58.7557 85.0772 58.7557 85.0772 58.7536 87.3732C58.7536 88.8171 58.7309 90.2611 58.7536 91.705C58.7681 92.2785 58.5742 92.5591 58.0151 92.7365C51.8267 94.6961 46.8615 98.3267 43.3176 103.766C42.1625 105.538 41.3827 107.549 40.3761 109.42C40.14 109.885 39.768 110.267 39.3096 110.516C33.7565 113.012 31.3967 118.994 33.4595 124.726C34.9591 128.891 36.0854 133.184 37.3499 137.435C38.7939 142.308 40.2275 147.19 41.6612 152.069C41.7643 152.422 41.8427 152.783 41.9603 153.247H18.7021V152.009C18.7021 106.838 18.7021 61.6623 18.7021 16.4827C18.7021 15.1357 18.7021 15.1336 20.0285 15.1336H197.428C198.734 15.1336 198.736 15.1336 198.736 16.5033C198.736 61.7105 198.736 106.918 198.736 152.125L198.734 153.338ZM136.903 49.7042C136.938 64.7627 149.206 76.9663 164.264 76.9333C179.24 76.9065 191.431 64.641 191.421 49.6093C191.411 34.5777 179.114 22.4009 164.01 22.438C149.115 22.4752 136.868 34.7881 136.903 49.7042ZM136.903 120.576C136.903 135.564 149.136 147.815 164.132 147.834C179.129 147.853 191.413 135.622 191.421 120.644C191.421 105.586 179.17 93.3017 164.153 93.3243C149.136 93.347 136.909 105.596 136.903 120.576ZM102.182 50.8532C102.182 50.4406 102.182 50.0281 102.182 49.6155C102.172 48.3283 101.507 47.497 100.457 47.4558C99.4074 47.4145 98.6545 48.2603 98.6009 49.5908C98.5141 52.7536 98.0085 55.8909 97.0971 58.9208C95.7266 63.2944 93.4737 67.3404 90.4775 70.8088C89.7164 71.702 89.7246 72.8283 90.4507 73.4905C91.2346 74.2063 92.3547 74.0825 93.1922 73.1872C93.3325 73.0346 93.4645 72.8778 93.6048 72.719C98.8498 66.3655 101.709 59.0749 102.182 50.847V50.8532ZM32.1764 43.0414C33.1439 43.0537 33.7545 42.5174 34.0598 41.3519C35.4563 36.0423 37.8883 31.2772 41.6633 27.2733C43.165 25.6828 44.873 24.2843 46.515 22.832C47.3793 22.0688 47.6083 21.0044 46.9915 20.1896C46.418 19.4325 45.3124 19.3088 44.3985 19.9028C44.2253 20.0142 44.0623 20.1442 43.8993 20.27C38.9383 24.1048 35.1118 28.8492 32.6096 34.5983C31.7535 36.5703 31.1368 38.6579 30.5468 40.731C30.1796 41.9914 31.0089 43.0269 32.1764 43.0414ZM99.6612 36.0959C99.5766 35.8422 99.4776 35.444 99.3167 35.0645C96.8109 29.1914 92.8182 24.0726 87.7319 20.2123C86.5933 19.3376 85.4876 19.3686 84.811 20.2453C84.1344 21.122 84.3861 22.2029 85.5186 23.0734C88.954 25.6662 91.8435 28.9119 94.0214 32.6242C94.828 34.0145 95.4654 35.4997 96.1956 36.9396C96.6206 37.7853 97.4932 38.233 98.3162 38.0019C99.1888 37.7585 99.5828 37.1252 99.6612 36.0959ZM29.7217 53.1285C29.8021 56.8106 32.6921 65.299 34.8993 68.3149C35.5347 69.1874 36.6135 69.4432 37.4345 68.9131C37.8197 68.6441 38.0885 68.2391 38.1869 67.7798C38.2853 67.3204 38.2059 66.8408 37.9646 66.4377C35.4615 62.2332 33.8606 57.554 33.2635 52.6974C33.2436 52.4643 33.1776 52.2376 33.0691 52.0304C32.9607 51.8231 32.8121 51.6396 32.632 51.4904C32.4519 51.3412 32.2439 51.2293 32.0201 51.1614C31.7963 51.0934 31.5613 51.0707 31.3286 51.0946C30.3405 51.1791 29.6928 52.0022 29.7217 53.1285ZM50.8407 79.0889C50.6612 78.8434 50.4158 78.1998 49.9496 77.9193C47.1106 76.235 44.4932 74.2025 42.1583 71.8691C41.83 71.5285 41.3823 71.3285 40.9095 71.3112C40.4367 71.2939 39.9756 71.4606 39.6231 71.7763C38.9012 72.4405 38.8599 73.5503 39.5943 74.3692C40.1291 74.999 40.7247 75.5745 41.3724 76.0875C43.5672 77.7378 45.76 79.388 48.0435 80.9021C49.3348 81.7623 50.884 80.8629 50.8407 79.0889Z" fill="white"/>
<path d="M76.9453 103.75V136.027C76.9311 136.405 76.9408 136.784 76.9742 137.161C77.0252 137.59 77.2319 137.986 77.5551 138.273C77.8782 138.56 78.2954 138.718 78.7276 138.718C79.1597 138.718 79.5769 138.56 79.9 138.273C80.2232 137.986 80.4299 137.59 80.4809 137.161C80.5181 136.785 80.5305 136.406 80.5181 136.029C80.5181 125.51 80.5181 114.989 80.5181 104.468C80.5181 102.923 80.5181 101.373 81.2607 99.9295C82.7995 96.9219 86.164 95.3005 89.3696 96.0473C92.8083 96.8476 95.1042 99.7026 95.1062 103.286C95.1062 112.981 95.0856 122.676 95.0774 132.371C95.0774 133.78 95.0959 135.189 95.1166 136.598C95.1331 137.875 95.8241 138.704 96.8699 138.727C97.955 138.752 98.6935 137.902 98.7017 136.571C98.7265 132.377 98.7402 128.182 98.743 123.988C98.743 118.798 98.743 113.608 98.743 108.416C98.743 104.239 101.897 101.027 105.979 101.019C110.024 101.019 113.265 104.253 113.275 108.403C113.298 117.616 113.275 126.828 113.275 136.045C113.275 136.355 113.259 136.664 113.288 136.973C113.381 138.005 114.167 138.743 115.107 138.729C115.558 138.709 115.986 138.525 116.312 138.212C116.637 137.9 116.837 137.479 116.875 137.029C116.898 136.72 116.904 136.41 116.892 136.101C116.892 128.951 116.908 121.801 116.871 114.648C116.847 114.274 116.925 113.901 117.097 113.569C117.269 113.236 117.528 112.957 117.847 112.76C119.864 111.386 122.016 111.203 124.2 112.232C126.479 113.307 127.707 115.182 127.779 117.705C127.845 119.974 127.806 122.243 127.796 124.512C127.75 134.995 127.515 145.482 127.709 155.962C127.847 163.474 126.545 170.527 123.321 177.33C120.926 182.386 118.952 187.644 116.768 192.801C116.677 193.007 116.366 193.181 116.12 193.272C115.914 193.35 115.646 193.29 115.404 193.29C98.4576 193.29 81.511 193.298 64.5643 193.313C63.6422 193.313 63.1699 193.038 62.7511 192.213C58.5162 183.822 54.2008 175.453 49.9493 167.057C49.4439 166.059 49.1964 164.924 48.8767 163.839C45.0893 150.988 41.3075 138.135 37.5312 125.279C37.1929 124.13 36.7061 123.01 36.4503 121.851C35.716 118.414 37.7932 114.86 41.104 113.748C44.6108 112.57 48.3795 114.068 49.939 117.292C52.8462 123.291 55.741 129.295 58.6234 135.305C58.6833 135.428 58.7389 135.556 58.7988 135.678C59.3021 136.691 60.1025 137.149 61.0328 136.874C61.9631 136.6 62.355 135.872 62.3468 134.904C62.3324 132.809 62.3365 130.711 62.3365 128.615C62.3365 109.468 62.3365 90.3216 62.3365 71.176C62.3365 67.201 65.0676 64.082 68.8611 63.6777C73.2611 63.2074 76.9412 66.5986 76.9453 71.1657C76.9549 82.0257 76.9549 92.887 76.9453 103.75Z" fill="white"/>
<path d="M45.2071 164.19C44.7017 164.211 44.3346 164.242 43.9694 164.242C33.6224 164.242 23.2747 164.242 12.9263 164.242C7.79812 164.242 4.18408 160.572 4.18408 155.44C4.18408 108.101 4.18408 60.7616 4.18408 13.4215C4.18408 7.70341 7.64754 4.21726 13.3471 4.21726H213.233C218.844 4.21726 222.4 7.7591 222.402 13.3493V155.064C222.402 160.716 218.848 164.25 213.177 164.25H131.255V156.925H199.637C201.859 156.925 202.341 156.436 202.341 154.19C202.341 107.537 202.341 60.8853 202.341 14.2343C202.341 12.0167 201.84 11.5196 199.608 11.5196H17.778C15.6327 11.5196 15.0963 12.0497 15.0963 14.1827V154.344C15.0963 156.37 15.645 156.925 17.646 156.925C25.759 156.925 33.872 156.939 41.9871 156.906C42.8122 156.906 43.198 157.113 43.4125 157.952C43.9385 160.005 44.5739 162.03 45.2071 164.19ZM218.689 85.1144C218.675 81.6571 215.741 78.7321 212.301 78.7692C211.045 78.7769 209.82 79.1565 208.779 79.86C207.739 80.5635 206.931 81.5594 206.456 82.722C205.981 83.8846 205.862 85.1617 206.112 86.3922C206.363 87.6228 206.972 88.7515 207.863 89.636C208.755 90.5205 209.888 91.1211 211.121 91.362C212.353 91.6029 213.629 91.4733 214.788 90.9896C215.947 90.5059 216.937 89.6897 217.632 88.644C218.327 87.5984 218.697 86.3701 218.695 85.1144H218.689Z" fill="white"/>
<path d="M80.382 68.3149C79.8436 67.1824 79.4125 65.9777 78.7317 64.9339C78.051 63.8902 77.1454 63.0609 76.3182 62.1141C77.0443 61.027 77.8798 59.9027 78.5708 58.6981C79.0583 57.8299 79.4465 56.9096 79.7281 55.9545C80.2046 54.3827 79.429 53.3698 77.7911 53.3678C69.8149 53.3568 61.8387 53.3568 53.8625 53.3678C52.2638 53.3698 51.4759 54.4281 51.9544 55.9648C53.2086 59.9976 55.6881 63.0258 59.4899 64.9339C59.6961 65.0391 59.9024 65.1588 59.9189 65.165C59.4115 67.4733 58.9267 69.6846 58.4131 72.0217C55.5066 71.1884 52.8002 69.5608 50.4073 67.4361C45.997 63.5168 43.367 58.6197 42.5686 52.7613C40.9927 41.3272 48.3755 30.0168 59.3764 26.9927C71.1076 23.7644 83.01 29.3897 87.7421 40.4319C92.3958 51.2926 87.9566 62.8649 80.382 68.3149ZM64.1559 40.6072C64.1559 39.8523 64.1807 39.0952 64.1559 38.3382C64.0466 35.4502 61.7961 33.3606 58.7926 33.3503C55.7129 33.3503 53.4025 35.3966 53.2973 38.301C53.2437 39.811 53.2416 41.3251 53.2973 42.8392C53.4005 45.7787 55.7129 47.858 58.7617 47.8374C61.8105 47.8168 64.061 45.7271 64.1559 42.7753C64.1704 42.0512 64.1704 41.3334 64.1559 40.6072ZM67.8545 40.5639C67.8545 41.2508 67.8545 41.9378 67.8545 42.6267C67.9061 45.4796 69.907 47.6311 72.6794 47.8271C75.8892 48.0478 78.3068 46.2862 78.6141 43.2889C78.7936 41.5132 78.7936 39.724 78.6141 37.9483C78.315 34.8974 75.9284 33.1502 72.6279 33.3689C69.9029 33.5524 67.8834 35.7576 67.8566 38.6104C67.8484 39.2623 67.8566 39.9162 67.8545 40.5681V40.5639Z" fill="white"/>
<path d="M58.6773 96.4165V126.604L58.4937 126.661C58.3308 126.346 58.1616 126.032 58.0069 125.713C56.4825 122.558 54.9292 119.417 53.444 116.244C51.7215 112.558 48.879 110.419 44.8648 109.819C44.6997 109.794 44.5368 109.744 44.3779 109.707C44.7905 105.379 53.3965 97.3345 58.6773 96.4165Z" fill="white"/>
<path d="M75.4108 57.2933C74.5857 58.236 73.7998 59.2035 72.9355 60.1049C72.7581 60.2906 72.3043 60.3339 72.0134 60.272C68.847 59.6016 65.9653 60.272 63.2857 62.0233C63.1502 62.1152 62.9978 62.1792 62.8375 62.2118C62.6771 62.2444 62.5118 62.2448 62.3512 62.2131C59.7453 61.3293 57.5782 59.4789 56.2969 57.0437H75.1551L75.4108 57.2933Z" fill="white"/>
<path d="M136.903 49.7042C136.868 34.7881 149.115 22.4752 164.019 22.438C179.114 22.4009 191.411 34.5962 191.421 49.6135C191.431 64.6307 179.24 76.9127 164.264 76.9374C149.205 76.9663 136.938 64.7545 136.903 49.7042ZM164.241 26.0232C151.281 25.9861 140.552 36.6302 140.494 49.5887C140.436 62.5473 151.099 73.2883 164.148 73.3626C177.051 73.4368 187.782 62.7205 187.811 49.731C187.84 36.7415 177.212 26.0603 164.241 26.0232Z" fill="#606060"/>
<path d="M136.903 120.576C136.903 105.596 149.156 93.3471 164.153 93.3264C179.149 93.3058 191.431 105.586 191.421 120.644C191.421 135.62 179.137 147.851 164.134 147.832C149.131 147.813 136.897 135.564 136.903 120.576ZM164.132 96.9075C151.116 96.9632 140.41 107.739 140.488 120.692C140.573 133.687 151.254 144.272 164.241 144.224C177.229 144.177 187.848 133.522 187.805 120.531C187.761 107.539 177.064 96.8518 164.138 96.9075H164.132Z" fill="#606060"/>
<path d="M102.182 50.847C101.713 59.0845 98.8532 66.3731 93.6027 72.7128C93.4707 72.8716 93.3386 73.0284 93.1901 73.181C92.3526 74.0763 91.2325 74.2001 90.4486 73.4843C89.7225 72.8201 89.7143 71.6938 90.4755 70.8026C93.4716 67.3343 95.7245 63.2882 97.095 58.9147C98.0064 55.8848 98.5121 52.7474 98.5988 49.5846C98.6462 48.2541 99.3723 47.4063 100.455 47.4496C101.538 47.4929 102.17 48.3222 102.18 49.6052C102.184 50.0219 102.182 50.4345 102.182 50.847Z" fill="#606060"/>
<path d="M32.1765 43.0414C31.0089 43.0269 30.1797 41.9914 30.5427 40.731C31.141 38.6579 31.7577 36.5703 32.6056 34.5983C35.1119 28.8492 38.9384 24.1048 43.8994 20.27C44.0624 20.1442 44.2253 20.0142 44.3986 19.9029C45.3124 19.3088 46.4181 19.4325 46.9916 20.1896C47.6104 21.0044 47.3794 22.0688 46.5151 22.832C44.8648 24.276 43.1651 25.6828 41.6633 27.2733C37.8884 31.2772 35.4564 36.0423 34.0536 41.3519C33.7545 42.5174 33.1439 43.0537 32.1765 43.0414Z" fill="#606060"/>
<path d="M99.6611 36.0959C99.5827 37.1273 99.1887 37.7585 98.3161 38.004C97.491 38.235 96.6205 37.7874 96.1955 36.9416C95.4715 35.4977 94.8279 34.0166 94.0213 32.6262C91.8436 28.9132 88.9541 25.6668 85.5184 23.0734C84.386 22.2008 84.126 21.1426 84.8109 20.2535C85.4958 19.3645 86.5932 19.3459 87.7318 20.2205C92.8181 24.0808 96.8108 29.1997 99.3166 35.0727C99.4775 35.4502 99.5765 35.8422 99.6611 36.0959Z" fill="#606060"/>
<path d="M29.7214 53.1285C29.6966 52.0022 30.3402 51.1791 31.3324 51.0946C31.5651 51.0707 31.8002 51.0934 32.024 51.1614C32.2478 51.2293 32.4558 51.3412 32.6359 51.4904C32.816 51.6396 32.9646 51.8231 33.073 52.0304C33.1814 52.2376 33.2475 52.4643 33.2674 52.6974C33.8619 57.5534 35.46 62.2326 37.9602 66.4377C38.2015 66.8408 38.2809 67.3204 38.1825 67.7798C38.0841 68.2391 37.8153 68.6441 37.4301 68.9131C36.605 69.4432 35.5303 69.1874 34.8949 68.3149C32.6877 65.2887 29.7977 56.8106 29.7214 53.1285Z" fill="#606060"/>
<path d="M50.8405 79.0889C50.8838 80.8629 49.3346 81.7706 48.0433 80.9063C45.7598 79.388 43.567 77.7378 41.3722 76.0875C40.7272 75.5728 40.1344 74.9959 39.6023 74.3651C38.868 73.54 38.9092 72.4364 39.6312 71.7721C39.9832 71.4589 40.4425 71.2937 40.9133 71.311C41.3841 71.3283 41.8301 71.5268 42.1581 71.865C44.4928 74.1999 47.1101 76.2337 49.9494 77.9193C50.4156 78.1999 50.661 78.8434 50.8405 79.0889Z" fill="#606060"/>
<path d="M218.695 85.1144C218.694 86.3655 218.322 87.5882 217.628 88.6286C216.933 89.669 215.945 90.4805 214.79 90.9609C213.635 91.4414 212.364 91.5692 211.136 91.3284C209.908 91.0876 208.779 90.4889 207.891 89.6077C207.003 88.7265 206.396 87.6022 206.145 86.3764C205.895 85.1506 206.013 83.8781 206.484 82.7193C206.956 81.5604 207.76 80.5669 208.795 79.864C209.83 79.1611 211.049 78.7802 212.3 78.7692C215.741 78.732 218.674 81.6571 218.695 85.1144ZM212.3 87.8579C212.841 87.864 213.371 87.7092 213.824 87.4131C214.276 87.1169 214.63 86.6929 214.841 86.195C215.052 85.697 215.109 85.1476 215.007 84.6167C214.904 84.0858 214.646 83.5974 214.265 83.2136C213.885 82.8299 213.398 82.568 212.868 82.4615C212.338 82.355 211.788 82.4086 211.289 82.6155C210.789 82.8224 210.362 83.1732 210.063 83.6234C209.763 84.0735 209.604 84.6026 209.606 85.1433C209.621 85.8553 209.91 86.5343 210.412 87.0396C210.914 87.545 211.591 87.8379 212.302 87.8579H212.3Z" fill="#606060"/>
<path d="M64.158 40.6072C64.158 41.3292 64.1787 42.0512 64.158 42.7711C64.0611 45.7271 61.825 47.8271 58.7617 47.8374C55.6985 47.8477 53.3984 45.7746 53.2973 42.8475C53.2417 41.3375 53.2437 39.8234 53.2973 38.3093C53.4026 35.4007 55.7129 33.3441 58.7927 33.3585C61.792 33.3585 64.0425 35.4544 64.156 38.3464C64.1807 39.0993 64.156 39.8564 64.158 40.6072ZM56.9031 40.5887C56.9031 41.2715 56.8701 41.9584 56.9031 42.6391C56.9609 43.6334 57.6457 44.2378 58.6648 44.2564C59.6838 44.2749 60.4739 43.72 60.5213 42.7484C60.5873 41.3169 60.5873 39.875 60.5213 38.4434C60.4718 37.447 59.7333 36.9128 58.6792 36.9375C57.6251 36.9623 56.9712 37.5295 56.9093 38.5444C56.8681 39.221 56.9011 39.908 56.9031 40.5928V40.5887Z" fill="#606060"/>
<path d="M67.8566 40.5681C67.8566 39.9162 67.8566 39.2623 67.8566 38.6105C67.8937 35.7576 69.9029 33.5524 72.6278 33.3689C75.9283 33.1502 78.315 34.8974 78.6244 37.9504C78.7989 39.7258 78.7941 41.5144 78.61 43.2889C78.3026 46.28 75.885 48.0334 72.6753 47.8271C69.907 47.6311 67.9061 45.4796 67.8566 42.6288C67.8442 41.9419 67.8545 41.255 67.8566 40.5681ZM75.1135 40.6196C75.1135 39.9678 75.1424 39.3118 75.1135 38.662C75.0496 37.5254 74.375 36.9313 73.2219 36.9458C72.1266 36.9602 71.4892 37.5337 71.45 38.6641C71.4046 39.9678 71.4025 41.2777 71.45 42.5834C71.4933 43.6685 72.1926 44.2625 73.2714 44.2605C74.3503 44.2584 75.0248 43.6623 75.1012 42.5814C75.1486 41.9295 75.1032 41.2735 75.1135 40.6196Z" fill="#606060"/>
<path d="M164.242 26.0232C177.217 26.0603 187.842 36.7498 187.811 49.731C187.78 62.7123 177.052 73.4368 164.149 73.3626C151.099 73.2883 140.426 62.57 140.494 49.5887C140.563 36.6075 151.281 25.9861 164.242 26.0232ZM162.385 40.6691H162.317C162.317 39.9471 162.331 39.2252 162.317 38.5052C162.255 35.6173 160.083 33.4307 157.216 33.3627C153.985 33.2863 151.615 35.2728 151.467 38.266C151.39 39.8069 151.396 41.3602 151.467 42.9011C151.515 44.1509 152.018 45.34 152.882 46.2444C153.746 47.1487 154.911 47.7058 156.157 47.8106C159.2 48.0891 161.566 46.5729 162.154 43.8397C162.375 42.8124 162.321 41.7274 162.393 40.6691H162.385ZM176.992 40.6691L176.81 40.6547C176.81 39.7285 176.897 38.7982 176.794 37.8782C176.482 35.1099 174.234 33.3194 171.224 33.3689C168.429 33.4142 166.218 35.3739 166.046 38.0865C165.948 39.7352 165.944 41.3881 166.034 43.0372C166.1 44.2317 166.586 45.3643 167.407 46.2345C168.228 47.1047 169.33 47.6565 170.519 47.792C173.407 48.1551 175.822 46.8369 176.552 44.31C176.889 43.1486 176.862 41.88 177.006 40.6588L176.992 40.6691ZM164.935 58.76C168.262 58.76 171.591 58.7723 174.921 58.76C176.049 58.76 176.829 58.0297 176.86 57.0499C176.893 56.0185 176.117 55.2099 174.947 55.2057C168.359 55.1892 161.77 55.183 155.182 55.2243C154.695 55.2243 154.008 55.4966 153.775 55.87C153.467 56.4075 153.365 57.0391 153.49 57.646C153.696 58.4464 154.427 58.7579 155.266 58.7579C158.483 58.7524 161.706 58.7531 164.935 58.76Z" fill="white"/>
<path d="M164.138 96.9075C177.064 96.8518 187.77 107.535 187.811 120.531C187.852 133.526 177.258 144.177 164.247 144.224C151.237 144.272 140.579 133.689 140.494 120.692C140.41 107.739 151.122 96.9631 164.138 96.9075ZM162.325 111.553C162.325 110.831 162.339 110.109 162.325 109.39C162.253 106.423 160.056 104.282 157.013 104.22C153.97 104.158 151.584 106.283 151.466 109.262C151.406 110.772 151.4 112.288 151.466 113.8C151.609 116.807 153.942 118.794 157.188 118.734C158.544 118.732 159.844 118.194 160.806 117.239C161.767 116.283 162.312 114.986 162.323 113.631C162.339 112.933 162.325 112.246 162.325 111.568V111.553ZM166.026 111.475C166.026 112.23 166.001 112.987 166.026 113.744C166.059 115.065 166.603 116.322 167.542 117.252C168.481 118.181 169.744 118.712 171.065 118.732C174.231 118.831 176.583 116.991 176.812 114.078C176.941 112.366 176.941 110.646 176.812 108.934C176.606 106.134 174.302 104.199 171.397 104.224C168.431 104.249 166.213 106.252 166.034 109.107C165.982 109.897 166.026 110.691 166.026 111.481V111.475ZM176.274 133.58C175.83 132.86 175.605 132.268 175.195 131.86C171.325 128.01 166.684 126.43 161.275 127.321C157.723 127.907 154.758 129.617 152.349 132.272C151.59 133.114 151.613 134.296 152.349 134.954C153.086 135.612 154.123 135.548 154.944 134.77C155.218 134.51 155.468 134.224 155.747 133.968C158.667 131.286 162.077 130.197 166.005 130.845C168.687 131.286 170.912 132.555 172.771 134.508C173.373 135.144 174.13 135.461 174.9 135.026C175.422 134.75 175.768 134.137 176.274 133.586V133.58Z" fill="white"/>
<path d="M212.303 87.8579C211.766 87.8474 211.245 87.6787 210.804 87.3731C210.363 87.0675 210.022 86.6386 209.824 86.1401C209.626 85.6416 209.579 85.0956 209.69 84.5707C209.801 84.0458 210.064 83.5653 210.447 83.1894C210.83 82.8135 211.315 82.5589 211.842 82.4576C212.368 82.3562 212.913 82.4126 213.408 82.6197C213.903 82.8268 214.326 83.1754 214.624 83.6218C214.921 84.0681 215.08 84.5924 215.081 85.1288C215.066 85.8565 214.767 86.5493 214.248 87.0593C213.729 87.5693 213.03 87.8559 212.303 87.8579Z" fill="white"/>
<path d="M56.9029 40.5928C56.9029 39.908 56.8679 39.221 56.9029 38.53C56.9648 37.5192 57.6146 36.9561 58.6728 36.9313C59.731 36.9066 60.4654 37.4408 60.5149 38.4372C60.585 39.8688 60.585 41.3107 60.5149 42.7423C60.4695 43.7138 59.7001 44.2708 58.6584 44.2502C57.6167 44.2295 56.9545 43.6313 56.8967 42.6329C56.8699 41.9625 56.9029 41.2756 56.9029 40.5928Z" fill="white"/>
<path d="M75.1033 40.6196C75.1033 41.2735 75.1404 41.9295 75.093 42.5793C75.0166 43.6602 74.338 44.2564 73.2633 44.2584C72.1885 44.2605 71.4851 43.6664 71.4418 42.5814C71.3882 41.2777 71.3902 39.9678 71.4418 38.662C71.481 37.5316 72.1184 36.9581 73.2137 36.9437C74.3669 36.9293 75.0414 37.5233 75.1053 38.66C75.1425 39.3118 75.1136 39.9678 75.1033 40.6196Z" fill="white"/>
<path d="M162.393 40.6691C162.321 41.7273 162.374 42.8124 162.154 43.8397C161.566 46.5708 159.2 48.089 156.157 47.8106C154.911 47.7047 153.746 47.1466 152.883 46.2415C152.02 45.3365 151.517 44.1469 151.47 42.897C151.402 41.354 151.396 39.8027 151.47 38.2618C151.619 35.2687 153.989 33.2822 157.219 33.3585C160.087 33.4266 162.259 35.6132 162.321 38.5011C162.337 39.221 162.321 39.9451 162.321 40.665L162.393 40.6691ZM158.705 40.6361C158.705 39.9492 158.731 39.2602 158.705 38.5733C158.651 37.5419 158.02 36.9664 156.964 36.9416C155.907 36.9169 155.15 37.447 155.107 38.4413C155.043 39.8853 155.043 41.3292 155.107 42.7732C155.153 43.7448 155.932 44.2976 156.982 44.2625C157.981 44.2275 158.632 43.6623 158.692 42.701C158.74 42.012 158.705 41.323 158.705 40.6361Z" fill="#606060"/>
<path d="M177.006 40.6588C176.868 41.88 176.894 43.1486 176.558 44.31C175.822 46.8369 173.404 48.1551 170.518 47.792C169.329 47.6536 168.226 47.0982 167.407 46.2244C166.588 45.3506 166.105 44.2148 166.044 43.0187C165.954 41.3695 165.958 39.7166 166.056 38.0679C166.228 35.3553 168.439 33.3957 171.234 33.3503C174.242 33.3008 176.49 35.0913 176.804 37.8596C176.907 38.7755 176.82 39.7161 176.82 40.6361L177.006 40.6588ZM169.6 40.6073H169.59C169.59 40.9497 169.59 41.2921 169.59 41.6387C169.59 41.9852 169.576 42.3256 169.609 42.6701C169.712 43.6685 170.386 44.2625 171.401 44.2729C172.478 44.2852 173.225 43.6891 173.258 42.6474C173.313 41.2797 173.313 39.908 173.258 38.5424C173.214 37.5295 172.519 36.9705 171.471 36.9561C170.368 36.9396 169.681 37.5048 169.602 38.5651C169.559 39.2355 169.6 39.9224 169.6 40.6073Z" fill="#606060"/>
<path d="M164.934 58.76C161.705 58.76 158.48 58.76 155.258 58.76C154.418 58.76 153.677 58.4485 153.481 57.6481C153.356 57.0362 153.46 56.3995 153.774 55.8596C154.008 55.4863 154.694 55.2161 155.181 55.214C161.77 55.1727 168.358 55.1789 174.947 55.1954C176.117 55.1954 176.892 55.9999 176.859 57.0396C176.828 58.0194 176.049 58.7435 174.92 58.7496C171.591 58.76 168.262 58.76 164.934 58.76Z" fill="#606060"/>
<path d="M162.325 111.568C162.325 112.255 162.339 112.942 162.325 113.631C162.315 114.985 161.772 116.28 160.813 117.236C159.854 118.192 158.557 118.731 157.203 118.736C153.964 118.796 151.623 116.809 151.481 113.802C151.408 112.294 151.415 110.778 151.481 109.264C151.598 106.287 153.97 104.158 157.027 104.222C160.085 104.286 162.267 106.425 162.339 109.392C162.339 110.124 162.325 110.838 162.325 111.568ZM158.705 111.452C158.705 110.8 158.731 110.147 158.705 109.495C158.655 108.463 158.018 107.875 156.98 107.844C155.942 107.814 155.159 108.36 155.109 109.344C155.039 110.788 155.039 112.232 155.109 113.676C155.156 114.679 155.852 115.161 156.976 115.143C158.022 115.124 158.639 114.61 158.7 113.631C158.742 112.89 158.705 112.166 158.705 111.444V111.452Z" fill="#606060"/>
<path d="M166.025 111.481C166.025 110.691 165.982 109.897 166.025 109.111C166.211 106.256 168.429 104.253 171.389 104.228C174.293 104.204 176.599 106.139 176.804 108.938C176.933 110.65 176.933 112.37 176.804 114.082C176.575 116.995 174.223 118.827 171.057 118.736C169.735 118.716 168.473 118.185 167.534 117.256C166.594 116.326 166.051 115.069 166.017 113.748C165.986 112.993 166.017 112.236 166.017 111.479L166.025 111.481ZM173.282 111.481C173.282 111.139 173.282 110.796 173.282 110.45C173.282 110.103 173.299 109.763 173.266 109.418C173.159 108.373 172.457 107.789 171.376 107.814C170.345 107.838 169.646 108.432 169.609 109.427C169.557 110.794 169.551 112.166 169.609 113.532C169.654 114.6 170.343 115.118 171.486 115.103C172.546 115.089 173.19 114.544 173.262 113.523C173.322 112.861 173.293 112.172 173.293 111.489L173.282 111.481Z" fill="#606060"/>
<path d="M176.274 133.586C175.77 134.137 175.422 134.75 174.894 135.049C174.124 135.484 173.367 135.166 172.765 134.531C170.908 132.578 168.67 131.309 165.999 130.867C162.079 130.22 158.661 131.317 155.74 133.991C155.462 134.246 155.212 134.533 154.938 134.793C154.113 135.571 153.081 135.641 152.343 134.977C151.604 134.312 151.59 133.132 152.343 132.295C154.752 129.63 157.706 127.92 161.269 127.344C166.677 126.451 171.319 128.031 175.189 131.882C175.605 132.274 175.83 132.866 176.274 133.586Z" fill="#606060"/>
<path d="M158.705 40.6361C158.705 41.323 158.74 42.012 158.705 42.6989C158.641 43.6602 157.993 44.2254 156.995 44.2605C155.951 44.2956 155.165 43.7427 155.119 42.7711C155.049 41.3272 155.049 39.8832 155.119 38.4392C155.163 37.445 155.901 36.9128 156.976 36.9396C158.051 36.9664 158.663 37.5378 158.717 38.5713C158.75 39.2561 158.717 39.9451 158.717 40.6341L158.705 40.6361Z" fill="white"/>
<path d="M169.6 40.6072C169.6 39.9224 169.559 39.2355 169.6 38.5444C169.679 37.4842 170.366 36.9189 171.469 36.9355C172.517 36.9499 173.212 37.5089 173.256 38.5218C173.313 39.8873 173.313 41.2591 173.256 42.6267C173.212 43.6685 172.466 44.2646 171.399 44.2522C170.384 44.2522 169.71 43.6478 169.607 42.6494C169.574 42.3091 169.59 41.9646 169.588 41.618C169.586 41.2715 169.588 40.9352 169.588 40.5866L169.6 40.6072Z" fill="white"/>
<path d="M158.705 111.444C158.705 112.166 158.742 112.888 158.705 113.61C158.643 114.59 158.026 115.103 156.98 115.122C155.856 115.141 155.161 114.658 155.113 113.655C155.047 112.211 155.047 110.767 155.113 109.323C155.163 108.34 155.939 107.787 156.984 107.824C158.03 107.861 158.659 108.455 158.709 109.474C158.742 110.126 158.709 110.78 158.709 111.432L158.705 111.444Z" fill="white"/>
<path d="M173.293 111.489C173.293 112.172 173.332 112.861 173.283 113.542C173.211 114.563 172.567 115.108 171.507 115.122C170.364 115.136 169.675 114.619 169.629 113.55C169.57 112.185 169.576 110.813 169.629 109.445C169.667 108.449 170.376 107.857 171.397 107.832C172.478 107.807 173.18 108.391 173.287 109.437C173.32 109.775 173.301 110.12 173.303 110.468C173.305 110.817 173.303 111.153 173.303 111.5L173.293 111.489Z" fill="white"/>
</g>
<defs>
<clipPath id="clip0_25_558">
<rect width="225.38" height="225.395" fill="white" transform="translate(0.60498 0.605286)"/>
</clipPath>
</defs>
</svg>
