<svg width="65" height="72" viewBox="0 0 65 72" fill="none" xmlns="http://www.w3.org/2000/svg">
<g clip-path="url(#clip0_25_506)">
<path d="M23.3095 36.8367C23.5032 36.5187 23.6053 36.2452 23.7916 36.0588C26.5881 33.249 29.4822 30.522 32.1723 27.6101C34.6153 24.966 38.1749 26.1653 39.3462 28.6808C39.395 28.7873 39.463 28.8834 39.5591 29.0476C41.1518 27.3587 42.9827 26.7066 45.0945 27.8068C46.9534 28.777 47.5597 30.4495 47.3127 32.514C47.5538 32.5909 47.7845 32.6619 48.0122 32.7373C48.6944 32.9629 49.3082 33.3577 49.7965 33.8848C50.2847 34.4119 50.6314 35.0541 50.8042 35.7515C50.977 36.4489 50.9702 37.1787 50.7846 37.8727C50.5989 38.5668 50.2404 39.2025 49.7425 39.7205C48.7931 40.7113 47.7801 41.643 46.7271 42.6782C47.0066 42.8468 47.2077 42.9606 47.4015 43.0878C48.7502 43.9751 49.6197 45.1582 49.7588 46.8101C49.8088 47.3021 49.7456 47.7991 49.5742 48.263C49.4027 48.727 49.1274 49.1455 48.7694 49.4868C42.9117 55.3371 37.1234 61.2585 31.1814 67.023C26.5408 71.5276 20.9034 72.8955 14.7336 71.047C8.58604 69.2043 4.67744 64.9511 3.27549 58.6749C1.98002 52.8512 3.54464 47.69 7.68395 43.3836C10.3651 40.5959 13.1365 37.8941 15.8783 35.1656C18.1838 32.8734 21.4373 33.391 22.9531 36.2762C23.0078 36.3857 23.0803 36.4818 23.3095 36.8367ZM18.7694 69.4779C23.2296 69.4986 26.8262 68.0434 29.565 65.3918C30.2202 64.7574 30.8576 64.1053 31.5023 63.4605C36.629 58.3338 41.7493 53.2071 46.8632 48.0804C47.1249 47.8187 47.3793 47.4504 47.4325 47.1014C47.5464 46.3398 46.8025 45.3416 45.9714 44.9689C45.1832 44.6155 44.7883 44.7131 44.0193 45.4732C41.4905 47.9981 38.9636 50.5245 36.4387 53.0523C36.2997 53.1913 36.1652 53.3363 36.0173 53.4679C35.4509 53.9722 34.7721 53.9825 34.3048 53.496C33.8374 53.0094 33.8611 52.3913 34.3491 51.8397C34.497 51.6725 34.6597 51.5217 34.8164 51.3649C39.0864 47.095 43.3548 42.8256 47.6218 38.5566C47.8568 38.3388 48.0716 38.1003 48.2636 37.8438C48.5342 37.4547 48.6474 36.9776 48.5804 36.5084C48.5135 36.0393 48.2714 35.6129 47.9028 35.315C47.5641 35.0016 47.119 34.8288 46.6576 34.8316C46.1963 34.8343 45.7532 35.0124 45.4183 35.3298C45.1226 35.5915 44.8431 35.8695 44.565 36.1476C40.7466 39.963 36.9297 43.7789 33.1143 47.5953C32.9575 47.7536 32.8052 47.9163 32.6396 48.0627C32.0761 48.5625 31.3811 48.5729 30.9211 48.0967C30.4612 47.6205 30.4878 46.9757 30.9626 46.4315C31.1104 46.2644 31.2731 46.1135 31.4299 45.9568L42.8777 34.5075C43.4352 33.95 44.0105 33.4087 44.5384 32.8231C44.868 32.4652 45.0473 31.9942 45.039 31.5077C45.0307 31.0212 44.8356 30.5565 44.494 30.21C44.1621 29.8534 43.7051 29.6389 43.2187 29.6113C42.7323 29.5838 42.254 29.7453 41.8839 30.0621C41.6763 30.2377 41.4788 30.4248 41.2923 30.6226L27.7564 44.157C27.5547 44.3738 27.3419 44.5802 27.119 44.7752C26.6044 45.1922 25.9359 45.1656 25.5204 44.6998C25.0767 44.2117 25.0664 43.6793 25.4686 43.1573C25.6263 42.9683 25.7962 42.79 25.9773 42.6234C29.3403 39.2596 32.7032 35.8957 36.0661 32.5318C36.3973 32.2005 36.7222 31.8633 37.0406 31.5202C37.471 31.0603 37.5227 30.5368 37.3468 29.9423C36.9918 28.7444 35.2764 27.7684 33.9557 29.1215C28.3524 34.8417 22.6558 40.4732 16.9918 46.1372C16.8235 46.3208 16.6442 46.4942 16.455 46.6563C15.9433 47.063 15.2601 47.0334 14.8519 46.5764C14.4083 46.0854 14.4083 45.553 14.8031 45.031C14.9611 44.8419 15.1311 44.6631 15.3119 44.4957C16.9948 42.7994 18.6925 41.1165 20.3592 39.4025C21.2036 38.5344 21.1947 37.4164 20.408 36.64C19.6212 35.8636 18.4648 35.8799 17.6307 36.7095C14.7484 39.5785 11.773 42.3632 9.04153 45.3697C4.92441 49.9009 3.99273 55.1996 6.40474 60.8074C8.81675 66.4152 13.413 69.1703 18.7694 69.4779Z" fill="#006838"/>
<path d="M2.4931 45.8045L0.249688 46.2881C0.159478 44.8388 -0.0460834 43.4472 0.0086341 42.0659C0.187575 37.5022 2.02727 33.6572 5.29848 30.4747C7.82288 28.0154 10.3931 25.5945 12.7519 22.9784C15.0678 20.4111 18.9438 20.7601 20.3902 24.1467C20.5972 23.95 20.7909 23.7755 20.9743 23.5906C23.8152 20.7513 26.7418 17.9888 29.4688 15.0444C31.7093 12.6264 35.2999 13.5123 36.557 16.1195C36.6191 16.2481 36.7049 16.3665 36.8084 16.5439C38.2872 14.8965 40.0485 14.2709 42.079 15.1686C44.1095 16.0663 44.7912 17.8305 44.5369 19.9926C44.8326 20.0932 45.0811 20.176 45.3325 20.2677C46.2105 20.5806 46.9612 21.1736 47.4689 21.9553C47.9767 22.737 48.2133 23.6639 48.1423 24.5933C48.0831 25.349 47.672 25.7764 46.9962 25.7764C46.3204 25.7764 45.9181 25.3505 45.8708 24.5859C45.782 23.1071 45.0219 22.2449 43.8004 22.3573C43.3218 22.4281 42.8731 22.6332 42.5064 22.9488C41.8631 23.4812 41.3144 24.1319 40.7111 24.7072C40.1077 25.2825 39.4422 25.3209 38.9527 24.824C38.4632 24.3271 38.5283 23.6409 39.1006 23.0612C39.8104 22.3425 40.538 21.64 41.2553 20.9287C41.412 20.7734 41.5688 20.6152 41.7108 20.4466C42.502 19.5061 42.4783 18.3511 41.6575 17.6043C40.8368 16.8574 39.735 16.9269 38.8743 17.7684C37.5759 19.0491 36.2952 20.346 35.0057 21.6356C31.6073 25.033 28.2059 28.4299 24.8016 31.8264C24.6206 32.0275 24.4188 32.2089 24.1997 32.3676C23.9865 32.5221 23.7234 32.5917 23.4618 32.5627C23.2001 32.5337 22.9586 32.4083 22.7844 32.2109C22.586 32.0377 22.4597 31.7963 22.4307 31.5345C22.4017 31.2727 22.472 31.0096 22.6277 30.7971C22.7863 30.5774 22.9688 30.3761 23.1719 30.1967C26.7211 26.6405 30.2753 23.0849 33.8344 19.5297C34.7661 18.5951 34.9081 17.9252 34.4259 17.0556C33.8743 16.05 32.3822 15.4022 31.2183 16.5838C25.7702 22.1133 20.2556 27.5776 14.7661 33.0656C14.5226 33.3092 14.2761 33.5527 14.0267 33.7962C13.2754 34.5356 12.6572 34.6362 12.1042 34.0994C11.5511 33.5625 11.6354 32.9163 12.3689 32.1843C13.9719 30.5792 15.576 28.9771 17.1811 27.378C17.3943 27.1727 17.5958 26.9554 17.7844 26.7273C18.441 25.8977 18.376 24.8462 17.6365 24.1216C17.3007 23.7877 16.8529 23.5905 16.3799 23.5681C15.907 23.5457 15.4425 23.6997 15.0767 24.0003C14.8886 24.159 14.7099 24.3283 14.5413 24.5075L6.80395 32.2449C3.1719 35.874 1.67086 40.2011 2.52268 45.3002C2.53796 45.398 2.5444 45.497 2.54191 45.596C2.53203 45.6668 2.51569 45.7366 2.4931 45.8045Z" fill="#006838"/>
<path d="M58.1424 10.4392C58.4944 10.7217 58.9883 10.9213 59.0696 11.2304C59.1776 11.6356 59.114 12.2656 58.8537 12.5614C57.8969 13.6498 56.8292 14.6421 55.8014 15.667C54.8963 16.5735 53.9957 17.483 53.0833 18.3821C52.4488 19.0062 51.7715 19.0491 51.2717 18.5211C50.7718 17.9932 50.828 17.3795 51.4447 16.7657C53.3376 14.862 55.2374 12.9656 57.1442 11.0766C57.3926 10.8267 57.7446 10.6847 58.1424 10.4392Z" fill="#006838"/>
<path d="M64.4203 26.2984C64.2724 26.4596 64.0536 26.9255 63.6942 27.0822C61.3961 28.0775 59.0728 29.0151 56.7436 29.9468C56.4689 30.063 56.1594 30.0661 55.8824 29.9553C55.6055 29.8446 55.3835 29.6289 55.2647 29.3552C55.2003 29.2143 55.1656 29.0616 55.1628 28.9067C55.16 28.7517 55.1891 28.5979 55.2483 28.4547C55.3076 28.3115 55.3957 28.1821 55.5071 28.0744C55.6186 27.9668 55.751 27.8833 55.8962 27.829C58.2062 26.8599 60.523 25.912 62.8468 24.9852C63.641 24.6732 64.3907 25.1967 64.4203 26.2984Z" fill="#006838"/>
<path d="M63.2385 36.8737C63.9868 36.8559 64.4867 37.2434 64.5355 37.9207C64.5872 38.6468 64.1421 39.1215 63.3184 39.1911C61.04 39.3833 58.7601 39.5706 56.4787 39.753C55.6594 39.8196 55.1122 39.4114 55.059 38.7104C55.0057 37.9814 55.4494 37.5273 56.2776 37.4519L63.2385 36.8737Z" fill="#006838"/>
<path d="M30.8503 8.10411C31.0574 5.56788 31.2333 3.34074 31.4256 1.11358C31.4877 0.393384 31.9683 -0.0280887 32.6368 9.48668e-06C32.7918 0.000821504 32.945 0.0343518 33.0862 0.0984108C33.2274 0.16247 33.3535 0.255614 33.4562 0.371751C33.5589 0.487888 33.636 0.624402 33.6824 0.772367C33.7287 0.920333 33.7433 1.07642 33.7252 1.23041C33.5566 3.53348 33.3649 5.83408 33.1499 8.13221C33.1203 8.43002 32.9749 8.70429 32.7451 8.89596C32.5152 9.08764 32.2193 9.1814 31.921 9.15706C31.2674 9.09494 30.8296 8.53002 30.8503 8.10411Z" fill="#006838"/>
<path d="M42.7287 10.6936C41.8177 10.6743 41.2498 9.95415 41.5456 9.21472C42.3383 7.17834 43.1723 5.15823 44.0227 3.14403C44.0741 3.00404 44.1538 2.87614 44.2568 2.76831C44.3598 2.66048 44.484 2.57504 44.6215 2.51732C44.759 2.45959 44.9069 2.43082 45.0561 2.4328C45.2052 2.43479 45.3523 2.46747 45.4882 2.52883C46.0798 2.76693 46.3534 3.32889 46.1478 3.98402C45.9866 4.49718 45.7559 4.98964 45.5562 5.48949C44.9647 6.92102 44.3732 8.35107 43.7964 9.77816C43.5731 10.3179 43.2552 10.7202 42.7287 10.6936Z" fill="#006838"/>
</g>
<defs>
<clipPath id="clip0_25_506">
<rect width="64.54" height="71.85" fill="white"/>
</clipPath>
</defs>
</svg>
