<svg width="25" height="25" viewBox="0 0 25 25" fill="none" xmlns="http://www.w3.org/2000/svg">
<path fill-rule="evenodd" clip-rule="evenodd" d="M2.70866 2.49999C2.59378 2.49999 2.50033 2.59344 2.50033 2.70832V3.95832C2.50033 4.0732 2.59378 4.16666 2.70866 4.16666H22.292C22.4069 4.16666 22.5003 4.0732 22.5003 3.95832V2.70832C22.5003 2.59344 22.4069 2.49999 22.292 2.49999H2.70866ZM1.66699 2.70832C1.66699 2.1332 2.13354 1.66666 2.70866 1.66666H22.292C22.8671 1.66666 23.3337 2.1332 23.3337 2.70832V3.95832C23.3337 4.53344 22.8671 4.99999 22.292 4.99999H2.70866C2.13354 4.99999 1.66699 4.53344 1.66699 3.95832V2.70832Z" fill="#AFAFAF"/>
<path fill-rule="evenodd" clip-rule="evenodd" d="M3.33333 5.83331V17.0833C3.33333 17.3136 3.5197 17.5 3.75 17.5H21.25C21.4803 17.5 21.6667 17.3136 21.6667 17.0833V5.83331H22.5V17.0833C22.5 17.7738 21.9405 18.3333 21.25 18.3333H3.75C3.05946 18.3333 2.5 17.7738 2.5 17.0833V5.83331H3.33333Z" fill="#AFAFAF"/>
<path fill-rule="evenodd" clip-rule="evenodd" d="M12.084 24.1667V19.1667H12.9173V24.1667H12.084Z" fill="#AFAFAF"/>
<path fill-rule="evenodd" clip-rule="evenodd" d="M18.0954 24.2368L16.125 19.3843L16.8971 19.0707L18.8675 23.9232L18.0954 24.2368Z" fill="#AFAFAF"/>
<path fill-rule="evenodd" clip-rule="evenodd" d="M12.084 8.35911C10.4396 8.56412 9.16732 9.96665 9.16732 11.6667C9.16732 13.5078 10.6595 15 12.5007 15C14.2007 15 15.6032 13.7278 15.8082 12.0833H12.084V8.35911ZM8.33398 11.6667C8.33398 9.3653 10.1993 7.5 12.5007 7.5H12.9173V11.25H16.6673V11.6667C16.6673 13.968 14.802 15.8333 12.5007 15.8333C10.1993 15.8333 8.33398 13.968 8.33398 11.6667Z" fill="#AFAFAF"/>
<path fill-rule="evenodd" clip-rule="evenodd" d="M13.75 5.83331H14.1667C16.468 5.83331 18.3333 7.69861 18.3333 9.99998V10.4166H13.75V5.83331ZM14.5833 6.69243V9.58331H17.4742C17.2862 8.07538 16.0913 6.88041 14.5833 6.69243Z" fill="#AFAFAF"/>
<path fill-rule="evenodd" clip-rule="evenodd" d="M20.8337 7.49999H19.167V6.66666H20.8337V7.49999Z" fill="#AFAFAF"/>
<path d="M5.00033 15.8333H4.16699V16.6666H5.00033V15.8333Z" fill="#AFAFAF"/>
<path d="M6.66732 15.8333H5.83398V16.6666H6.66732V15.8333Z" fill="#AFAFAF"/>
<path d="M8.33333 15.8333H7.5V16.6666H8.33333V15.8333Z" fill="#AFAFAF"/>
<path fill-rule="evenodd" clip-rule="evenodd" d="M6.13379 23.9232L8.10421 19.0707L8.87631 19.3843L6.9059 24.2368L6.13379 23.9232Z" fill="#AFAFAF"/>
</svg>
