<svg width="27" height="26" viewBox="0 0 27 26" fill="none" xmlns="http://www.w3.org/2000/svg">
<path fill-rule="evenodd" clip-rule="evenodd" d="M20.2306 9.5986H19.7837V8.71832H20.2306C20.8854 8.71832 21.4575 9.06186 21.7705 9.57443C21.7704 9.57441 21.7705 9.57445 21.7705 9.57443L23.1164 11.7749L22.3469 12.2278L21.0008 10.0271C20.8435 9.76944 20.5576 9.5986 20.2306 9.5986Z" fill="#44239D"/>
<path fill-rule="evenodd" clip-rule="evenodd" d="M6.32059 9.5986C5.08141 9.5986 4.07709 10.5838 4.07709 11.7993V24.1233C4.07709 24.6095 4.4788 25.0035 4.97449 25.0035H21.5764C22.0721 25.0035 22.4738 24.6095 22.4738 24.1233V20.162H23.3712V24.1233C23.3712 25.0956 22.5677 25.8838 21.5764 25.8838H4.97449C3.98318 25.8838 3.17969 25.0956 3.17969 24.1233V11.7993C3.17969 10.0976 4.58579 8.71832 6.32059 8.71832H13.4993V9.5986H6.32059Z" fill="#44239D"/>
<path d="M21.5771 23.243H20.6797V24.1232H21.5771V23.243Z" fill="#44239D"/>
<path d="M19.7817 23.243H18.8843V24.1232H19.7817V23.243Z" fill="#44239D"/>
<path d="M17.9872 23.243H17.0898V24.1232H17.9872V23.243Z" fill="#44239D"/>
<path fill-rule="evenodd" clip-rule="evenodd" d="M16.6414 6.51761C15.1545 6.51761 13.9492 7.69995 13.9492 9.15846C13.9492 9.89764 14.2583 10.5656 14.7576 11.0451L14.1297 11.6741C13.465 11.0357 13.0518 10.1437 13.0518 9.15846C13.0518 7.21379 14.6589 5.63733 16.6414 5.63733C18.6238 5.63733 20.231 7.21379 20.231 9.15846C20.231 10.1438 19.8176 11.0352 19.1531 11.674L18.525 11.0452C19.0245 10.5651 19.3336 9.89755 19.3336 9.15846C19.3336 7.69995 18.1282 6.51761 16.6414 6.51761Z" fill="#44239D"/>
<path fill-rule="evenodd" clip-rule="evenodd" d="M16.641 8.27817C16.1453 8.27817 15.7436 8.67222 15.7436 9.15845H14.8462C14.8462 8.18606 15.6497 7.39789 16.641 7.39789V8.27817Z" fill="#44239D"/>
<path fill-rule="evenodd" clip-rule="evenodd" d="M9.01297 2.55634C7.77392 2.55634 6.76947 3.54163 6.76947 4.75704C6.76947 5.97246 7.77392 6.95775 9.01297 6.95775C10.252 6.95775 11.2565 5.97246 11.2565 4.75704C11.2565 3.54163 10.252 2.55634 9.01297 2.55634ZM5.87207 4.75704C5.87207 3.05546 7.2783 1.67606 9.01297 1.67606C10.7476 1.67606 12.1539 3.05546 12.1539 4.75704C12.1539 6.45862 10.7476 7.83803 9.01297 7.83803C7.2783 7.83803 5.87207 6.45862 5.87207 4.75704Z" fill="#44239D"/>
<path fill-rule="evenodd" clip-rule="evenodd" d="M9.01309 4.3169C8.76509 4.3169 8.56439 4.51376 8.56439 4.75704H7.66699C7.66699 4.0276 8.26947 3.43661 9.01309 3.43661V4.3169Z" fill="#44239D"/>
<path fill-rule="evenodd" clip-rule="evenodd" d="M19.782 3.43662C18.791 3.43662 17.9872 4.22503 17.9872 5.19718C17.9872 5.52451 18.078 5.82956 18.2358 6.09175L17.4631 6.53941C17.2262 6.14579 17.0898 5.68675 17.0898 5.19718C17.0898 3.73887 18.2954 2.55634 19.782 2.55634C21.2687 2.55634 22.4742 3.73887 22.4742 5.19718C22.4742 6.65549 21.2687 7.83803 19.782 7.83803C19.5204 7.83803 19.2667 7.80111 19.0267 7.73234L19.2783 6.88737C19.4377 6.93304 19.6067 6.95774 19.782 6.95774C20.7731 6.95774 21.5768 6.16933 21.5768 5.19718C21.5768 4.22503 20.7731 3.43662 19.782 3.43662Z" fill="#44239D"/>
<path fill-rule="evenodd" clip-rule="evenodd" d="M1.83392 14V14.8803H0.936523V14H1.83392Z" fill="#44239D"/>
<path fill-rule="evenodd" clip-rule="evenodd" d="M1.83392 8.71832V13.1197H0.936523V8.71832H1.83392Z" fill="#44239D"/>
<path fill-rule="evenodd" clip-rule="evenodd" d="M4.97504 6.95776V7.83805H4.07764V6.95776H4.97504Z" fill="#44239D"/>
<path fill-rule="evenodd" clip-rule="evenodd" d="M4.97504 5.19717V6.07746H4.07764V5.19717H4.97504Z" fill="#44239D"/>
<path fill-rule="evenodd" clip-rule="evenodd" d="M2.73139 5.63733V6.51761H1.83398V5.63733H2.73139Z" fill="#44239D"/>
<path fill-rule="evenodd" clip-rule="evenodd" d="M2.73139 1.23593V4.75706H1.83398V1.23593H2.73139Z" fill="#44239D"/>
<path fill-rule="evenodd" clip-rule="evenodd" d="M16.6411 3.43661V4.3169H15.7437V3.43661H16.6411Z" fill="#44239D"/>
<path fill-rule="evenodd" clip-rule="evenodd" d="M16.6411 1.67606V2.55634H15.7437V1.67606H16.6411Z" fill="#44239D"/>
<path fill-rule="evenodd" clip-rule="evenodd" d="M13.9492 1.23593V4.75706H13.0518V1.23593H13.9492Z" fill="#44239D"/>
<path fill-rule="evenodd" clip-rule="evenodd" d="M25.1664 10.0387V10.919H24.269V10.0387H25.1664Z" fill="#44239D"/>
<path fill-rule="evenodd" clip-rule="evenodd" d="M25.1664 4.75705V9.15846H24.269V4.75705H25.1664Z" fill="#44239D"/>
<path fill-rule="evenodd" clip-rule="evenodd" d="M26.0639 0.795776V2.99648H25.1665V0.795776H26.0639Z" fill="#44239D"/>
<path fill-rule="evenodd" clip-rule="evenodd" d="M23.8203 1.67606V2.55634H22.9229V1.67606H23.8203Z" fill="#44239D"/>
<path fill-rule="evenodd" clip-rule="evenodd" d="M5.42383 10.919H21.577C22.5684 10.919 23.3718 11.7072 23.3718 12.6796V16.6408H22.4744V12.6796C22.4744 12.1933 22.0727 11.7993 21.577 11.7993H5.42383V10.919Z" fill="#44239D"/>
<path fill-rule="evenodd" clip-rule="evenodd" d="M20.2308 17.081C19.4874 17.081 18.8847 17.6722 18.8847 18.4014C18.8847 19.1306 19.4874 19.7218 20.2308 19.7218H23.3717V17.081H20.2308ZM17.9873 18.4014C17.9873 17.1861 18.9918 16.2007 20.2308 16.2007H23.3717C23.8672 16.2007 24.2691 16.595 24.2691 17.081V19.7218C24.2691 20.2079 23.8672 20.6021 23.3717 20.6021H20.2308C18.9918 20.6021 17.9873 19.6168 17.9873 18.4014Z" fill="#44239D"/>
<path d="M20.6791 17.9613H19.7817V18.8416H20.6791V17.9613Z" fill="#44239D"/>
</svg>
