<svg width="25" height="25" viewBox="0 0 25 25" fill="none" xmlns="http://www.w3.org/2000/svg">
<path fill-rule="evenodd" clip-rule="evenodd" d="M2.70841 2.49999C2.59353 2.49999 2.50008 2.59344 2.50008 2.70832V3.95832C2.50008 4.0732 2.59353 4.16666 2.70841 4.16666H22.2917C22.4066 4.16666 22.5001 4.0732 22.5001 3.95832V2.70832C22.5001 2.59344 22.4066 2.49999 22.2917 2.49999H2.70841ZM1.66675 2.70832C1.66675 2.1332 2.1333 1.66666 2.70841 1.66666H22.2917C22.8669 1.66666 23.3334 2.1332 23.3334 2.70832V3.95832C23.3334 4.53344 22.8669 4.99999 22.2917 4.99999H2.70841C2.1333 4.99999 1.66675 4.53344 1.66675 3.95832V2.70832Z" fill="#44239D"/>
<path fill-rule="evenodd" clip-rule="evenodd" d="M3.33333 5.83331V17.0833C3.33333 17.3136 3.5197 17.5 3.75 17.5H21.25C21.4803 17.5 21.6667 17.3136 21.6667 17.0833V5.83331H22.5V17.0833C22.5 17.7738 21.9405 18.3333 21.25 18.3333H3.75C3.05946 18.3333 2.5 17.7738 2.5 17.0833V5.83331H3.33333Z" fill="#44239D"/>
<path fill-rule="evenodd" clip-rule="evenodd" d="M12.0835 24.1667V19.1667H12.9168V24.1667H12.0835Z" fill="#44239D"/>
<path fill-rule="evenodd" clip-rule="evenodd" d="M18.0947 24.2368L16.1243 19.3843L16.8964 19.0707L18.8668 23.9232L18.0947 24.2368Z" fill="#44239D"/>
<path fill-rule="evenodd" clip-rule="evenodd" d="M12.0835 8.35911C10.4391 8.56412 9.16683 9.96665 9.16683 11.6667C9.16683 13.5078 10.659 15 12.5002 15C14.2002 15 15.6027 13.7278 15.8077 12.0833H12.0835V8.35911ZM8.3335 11.6667C8.3335 9.3653 10.1988 7.5 12.5002 7.5H12.9168V11.25H16.6668V11.6667C16.6668 13.968 14.8015 15.8333 12.5002 15.8333C10.1988 15.8333 8.3335 13.968 8.3335 11.6667Z" fill="#44239D"/>
<path fill-rule="evenodd" clip-rule="evenodd" d="M13.75 5.83331H14.1667C16.468 5.83331 18.3333 7.69861 18.3333 9.99998V10.4166H13.75V5.83331ZM14.5833 6.69243V9.58331H17.4742C17.2862 8.07538 16.0913 6.88041 14.5833 6.69243Z" fill="#44239D"/>
<path fill-rule="evenodd" clip-rule="evenodd" d="M20.8334 7.49999H19.1667V6.66666H20.8334V7.49999Z" fill="#44239D"/>
<path d="M5.00008 15.8333H4.16675V16.6666H5.00008V15.8333Z" fill="#44239D"/>
<path d="M6.66683 15.8333H5.8335V16.6666H6.66683V15.8333Z" fill="#44239D"/>
<path d="M8.33333 15.8333H7.5V16.6666H8.33333V15.8333Z" fill="#44239D"/>
<path fill-rule="evenodd" clip-rule="evenodd" d="M6.1333 23.9232L8.10372 19.0707L8.87582 19.3843L6.90541 24.2368L6.1333 23.9232Z" fill="#44239D"/>
</svg>
