<svg width="25" height="25" viewBox="0 0 25 25" fill="none" xmlns="http://www.w3.org/2000/svg">
    <g clip-path="url(#clip0_20_166)">
        <path fill-rule="evenodd" clip-rule="evenodd"
            d="M12.5 9.58333C10.8892 9.58333 9.58333 10.8892 9.58333 12.5C9.58333 14.1108 10.8892 15.4167 12.5 15.4167C14.1108 15.4167 15.4167 14.1108 15.4167 12.5C15.4167 10.8892 14.1108 9.58333 12.5 9.58333ZM8.75 12.5C8.75 10.4289 10.4289 8.75 12.5 8.75C14.5711 8.75 16.25 10.4289 16.25 12.5C16.25 14.5711 14.5711 16.25 12.5 16.25C10.4289 16.25 8.75 14.5711 8.75 12.5Z"
            fill="#44239D" />
        <path fill-rule="evenodd" clip-rule="evenodd"
            d="M17.0832 12.5C17.0832 11.0233 16.3853 9.70964 15.2993 8.87056L15.8088 8.21112C17.0903 9.20121 17.9166 10.7543 17.9166 12.5C17.9166 12.7814 17.8949 13.0574 17.8539 13.3272L17.03 13.202C17.0649 12.9726 17.0832 12.7386 17.0832 12.5Z"
            fill="#44239D" />
        <path fill-rule="evenodd" clip-rule="evenodd"
            d="M16.5044 14.7307C16.6164 14.5301 16.7137 14.3204 16.795 14.1029L17.5756 14.3946C17.4794 14.6521 17.3643 14.8999 17.2321 15.1368L16.5044 14.7307Z"
            fill="#44239D" />
        <path d="M8.33333 13.75H7.5V14.5833H8.33333V13.75Z" fill="#44239D" />
        <path d="M7.91683 12.0833H7.0835V12.9167H7.91683V12.0833Z" fill="#44239D" />
        <path d="M9.16683 15.4167H8.3335V16.25H9.16683V15.4167Z" fill="#44239D" />
        <path d="M8.33333 10.4167H7.5V11.25H8.33333V10.4167Z" fill="#44239D" />
        <path d="M9.16683 8.75H8.3335V9.58333H9.16683V8.75Z" fill="#44239D" />
        <path fill-rule="evenodd" clip-rule="evenodd"
            d="M10.8005 0.833344H14.1997L15.2457 3.51132L16.9151 4.20254L19.5482 3.04875L21.9514 5.45202L20.7976 8.08503L21.4892 9.75482L24.1668 10.8004V14.1996L21.4892 15.2456L20.7977 16.915L21.9514 19.548L19.5482 21.9513L16.9152 20.7975L15.2457 21.4891L14.1997 24.1667H10.8006L9.75497 21.4891L8.08518 20.7975L5.45217 21.9513L3.0489 19.548L4.20269 16.915L3.51147 15.2456L0.833496 14.1996V10.8004L3.51147 9.75482L4.2027 8.08507L3.0489 5.45202L5.45217 3.04875L8.08522 4.20255L9.75498 3.51131L10.8005 0.833344ZM11.3698 1.66668L10.402 4.14537L8.07594 5.10831L5.63899 4.04044L4.04059 5.63884L5.10846 8.07578L4.14553 10.4019L1.66683 11.3696V13.6304L4.14552 14.5986L5.10847 16.9242L4.04059 19.3612L5.63899 20.9596L8.07598 19.8917L10.402 20.8551L11.3698 23.3333H13.6306L14.5987 20.8551L16.9243 19.8917L19.3613 20.9596L20.9597 19.3612L19.8918 16.9242L20.8553 14.5986L23.3335 13.6305V11.3696L20.8553 10.4019L19.8918 8.07582L20.9597 5.63884L19.3613 4.04044L16.9244 5.10831L14.5988 4.14537L13.6306 1.66668H11.3698Z"
            fill="#44239D" />
    </g>
    <defs>
        <clipPath id="clip0_20_166">
            <rect width="25" height="25" fill="white" />
        </clipPath>
    </defs>
</svg>
