<svg width="30" height="30" viewBox="0 0 30 30" fill="none" xmlns="http://www.w3.org/2000/svg">
<path d="M0.000627074 14.1218C0.0776819 13.5437 0.125913 12.9606 0.236797 12.3895C1.14893 7.63967 3.72535 4.09737 7.96608 1.76255C10.3466 0.454227 12.9239 -0.116324 15.6327 0.0195809C19.8757 0.233773 23.4353 1.93478 26.2619 5.10945C28.3919 7.50001 29.626 10.3133 29.9242 13.4942C30.3408 17.9359 29.0434 21.8496 26.0351 25.152C23.7078 27.7067 20.7973 29.2361 17.3899 29.8104C16.8888 29.8949 16.3876 29.9357 15.8864 29.9983H14.128C14.0538 29.9768 13.9783 29.9607 13.9018 29.9501C12.06 29.8292 10.294 29.3902 8.63953 28.576C4.03754 26.3082 1.22097 22.6525 0.236797 17.609C0.125287 17.0378 0.0770548 16.4547 0 15.8773L0.000627074 14.1218ZM29.0096 15.0161C29.0321 7.31275 22.7687 1.03041 15.0395 0.9991C7.32333 0.968412 1.02113 7.24574 1.00234 14.9811C0.983545 22.6895 7.24252 28.9712 14.9724 29.0012C22.6773 29.0319 28.987 22.7471 29.0096 15.0161Z" fill="#44239D"/>
<path d="M13.9737 18.6827C14.0175 18.1497 14.005 17.6048 14.1178 17.0863C14.2944 16.2721 14.8194 15.7015 15.5931 15.3909C16.3448 15.0896 17.0465 14.7289 17.5715 14.0863C19.0123 12.3246 18.7542 9.84257 16.9582 8.44093C15.7221 7.47644 14.3521 7.20838 12.8956 7.86599C11.4133 8.53487 10.6403 9.73109 10.515 11.3488C10.4906 11.6789 10.515 12.0127 10.4975 12.344C10.4795 12.654 10.3456 12.9459 10.1224 13.1619C9.8992 13.3779 9.60298 13.5021 9.29246 13.51C8.98194 13.5179 8.67979 13.4088 8.44592 13.2045C8.21205 13.0001 8.06354 12.7153 8.02982 12.4066C7.7642 9.28266 9.28714 6.64973 12.0273 5.52303C14.4761 4.51596 16.7345 4.99444 18.7085 6.68919C20.2747 8.03071 21.1047 9.7837 20.9825 11.8605C20.8309 14.4477 19.4997 16.299 17.1743 17.4345C17.1045 17.4696 17.0325 17.5001 16.9588 17.5259C16.638 17.6343 16.5015 17.8522 16.5109 18.1929C16.5253 18.6902 16.5272 19.1887 16.5109 19.686C16.4783 20.7225 15.5085 21.3225 14.6553 20.8446C14.4651 20.7438 14.3058 20.5933 14.1943 20.4091C14.0829 20.2249 14.0235 20.014 14.0226 19.7987C14.0088 19.4286 14.0226 19.0572 14.0226 18.6858L13.9737 18.6827ZM15.0124 18.6589C15.0124 18.9814 15.0124 19.3033 15.0124 19.6252C15.0124 19.8169 15.0362 20.0054 15.2705 20.001C15.4866 20.001 15.5154 19.8131 15.5148 19.6371C15.5148 19.1781 15.5273 18.719 15.5148 18.2593C15.4878 17.437 15.8575 16.909 16.6149 16.5821C20.2295 15.0239 21.1517 10.6286 18.4379 7.78207C17.1035 6.38168 15.444 5.7604 13.5001 6.11613C10.8978 6.59211 8.78096 8.8975 9.02903 12.2093C9.03718 12.3133 9.18878 12.4066 9.27335 12.5049C9.35228 12.401 9.48698 12.3039 9.49951 12.1918C9.53396 11.873 9.50639 11.548 9.52519 11.2267C9.74069 7.64741 13.5715 5.35268 16.8178 7.13323C19.3725 8.53487 20.5102 11.9438 18.4466 14.6036C17.8252 15.4053 17.0089 15.932 16.0573 16.2727C15.3763 16.5163 15.0224 17.0531 15.0149 17.7758C15.0099 18.0752 15.0124 18.3664 15.0124 18.6589Z" fill="#44239D"/>
<path d="M15.5041 26.0053C14.9812 25.996 14.4827 25.7818 14.1162 25.4088C13.7496 25.0358 13.5442 24.5338 13.5442 24.0109C13.5442 23.4879 13.7496 22.9859 14.1162 22.6129C14.4827 22.2399 14.9812 22.0257 15.5041 22.0164C16.6048 22.0127 17.5301 22.9408 17.5088 24.0281C17.5017 24.5549 17.2874 25.0578 16.9122 25.4278C16.537 25.7979 16.0312 26.0053 15.5041 26.0053ZM15.5229 25.007C15.7197 25.0059 15.9118 24.9465 16.0749 24.8365C16.238 24.7264 16.3649 24.5706 16.4395 24.3885C16.5142 24.2065 16.5332 24.0065 16.4943 23.8136C16.4555 23.6208 16.3603 23.4438 16.221 23.3049C16.0816 23.166 15.9042 23.0714 15.7112 23.0332C15.5182 22.9949 15.3182 23.0146 15.1363 23.0898C14.9545 23.165 14.799 23.2923 14.6894 23.4557C14.5798 23.6191 14.5211 23.8113 14.5206 24.008C14.5201 24.1399 14.5458 24.2705 14.5962 24.3924C14.6467 24.5142 14.7208 24.6248 14.8144 24.7177C14.9079 24.8107 15.019 24.8841 15.1412 24.9338C15.2634 24.9834 15.3942 25.0083 15.5261 25.007H15.5229Z" fill="#44239D"/>
</svg>
