<svg width="30" height="30" viewBox="0 0 30 30" fill="none" xmlns="http://www.w3.org/2000/svg">
<path d="M29.0028 13.6515V15.3505C28.9816 15.4301 28.9657 15.511 28.9549 15.5926C28.8139 17.6209 28.28 19.5342 27.2999 21.3058C25.0444 25.3896 21.6212 27.8906 17.0297 28.7725C16.4765 28.8784 15.9123 28.9263 15.353 29.0013H13.6538C13.5822 28.9802 13.5092 28.9646 13.4352 28.9547C11.4019 28.8173 9.46905 28.2889 7.69601 27.2944C2.94773 24.6233 0.358087 20.5504 0.0287827 15.1078C-0.155582 12.2966 0.549212 9.49871 2.04335 7.11028C4.79704 2.65302 8.82316 0.270653 14.0587 0.017647C16.3136 -0.0986706 18.5609 0.361494 20.5885 1.3547C25.081 3.53854 27.8098 7.08828 28.7751 12.0039C28.8811 12.5475 28.9283 13.1019 29.0028 13.6515ZM14.0024 7.76942C13.8705 7.76942 13.7506 7.76942 13.6302 7.76942C11.5024 7.81663 9.40307 8.11019 7.31647 8.50665C7.22445 8.5242 7.10581 8.65857 7.08583 8.75663C6.85096 9.89031 6.61306 11.0234 6.42722 12.1655C6.32916 12.7642 6.33097 13.3791 6.28618 13.9971H14.0037L14.0024 7.76942ZM22.7078 14.0038C22.7078 13.9299 22.7078 13.8827 22.7078 13.8391C22.6559 12.1036 22.3894 10.3812 21.9142 8.71123C21.8888 8.62346 21.7671 8.52965 21.6721 8.50301C21.4088 8.43522 21.1352 8.40436 20.8664 8.35533C19.0205 8.01397 17.1508 7.81726 15.2743 7.767C15.1847 7.767 15.0927 7.767 15.0115 7.767V14.0038H22.7078ZM6.3334 14.9982C6.3116 15.0406 6.30373 15.0485 6.30373 15.0588C6.34229 16.841 6.61003 18.6108 7.10036 20.3247C7.11987 20.3679 7.14917 20.406 7.18595 20.4359C7.22272 20.4658 7.26595 20.4868 7.31223 20.4972C8.98236 20.729 10.6525 20.9681 12.3269 21.163C12.8717 21.2271 13.4328 21.1733 13.9934 21.1733V14.9982H6.3334ZM15.0043 21.2326C15.1393 21.2326 15.2597 21.2326 15.3802 21.2326C17.4886 21.1836 19.5691 20.8967 21.64 20.5159C21.818 20.4833 21.887 20.4173 21.9354 20.246C22.2866 18.9734 22.5233 17.6719 22.6425 16.3571C22.686 15.9104 22.6866 15.4601 22.7066 15.0061H15.0043V21.2326ZM7.48596 21.5116C7.86441 22.5814 8.37504 23.5997 9.00597 24.5428C9.8825 25.8363 10.9431 26.9313 12.3995 27.5759C12.905 27.7998 13.4286 27.9645 13.9952 27.9869V22.2059C11.8014 22.1798 9.65247 21.9178 7.48596 21.5116ZM14.0067 1.00788C13.2612 1.0666 12.539 1.29429 11.8946 1.67368C9.62947 2.98713 8.42303 5.10863 7.46841 7.4916C9.65913 7.07577 11.8178 6.8258 14.0061 6.79372L14.0067 1.00788ZM15.0049 6.79674C17.1992 6.82519 19.353 7.08062 21.5093 7.48797C21.0795 6.10431 20.0425 4.32903 19.0316 3.22198C18.3433 2.46841 17.5582 1.84377 16.6187 1.43097C16.1108 1.20762 15.5842 1.04541 15.0049 1.01514V6.79674ZM15.0085 22.2059V27.9935C15.1405 27.979 15.2507 27.9723 15.3608 27.9536C16.1528 27.8167 16.9053 27.5082 17.5655 27.0499C19.5425 25.6947 20.6618 23.7209 21.5317 21.5098C19.3603 21.9184 17.2113 22.178 15.0085 22.2059ZM5.33035 14.0001C5.37156 12.2276 5.62292 10.4663 6.07915 8.75299C6.04916 8.74147 6.01784 8.73374 5.98593 8.72999C4.69534 8.95213 3.40416 9.17245 2.11478 9.40427C2.06968 9.41755 2.02811 9.44075 1.99313 9.47217C1.95814 9.50359 1.93063 9.54243 1.9126 9.58585C1.67046 10.3969 1.40472 11.2038 1.2207 12.0281C1.07905 12.6649 1.04454 13.3253 0.959191 13.9983L5.33035 14.0001ZM22.9118 8.70881C23.3783 10.4335 23.636 12.208 23.6794 13.9941H28.0003C28.0203 12.7944 27.5614 10.5603 27.0808 9.54591C27.0342 9.47265 26.9607 9.42053 26.8762 9.40064C26.6292 9.34374 26.3768 9.30682 26.1256 9.26324L22.9118 8.70881ZM5.33095 15.0073H1.00883C0.982193 16.1846 1.44225 18.4283 1.92773 19.4543C1.95376 19.4939 1.98758 19.5278 2.02712 19.5539C2.06667 19.58 2.11112 19.5978 2.15776 19.6062C2.99192 19.7599 3.82789 19.9034 4.66326 20.0481C5.12392 20.128 5.58459 20.2036 6.09307 20.2902C5.62767 18.5662 5.37179 16.7925 5.33095 15.0073ZM23.6764 15.0025C23.6359 16.7748 23.3847 18.536 22.9282 20.249C22.9887 20.2641 23.005 20.275 23.0208 20.272C24.312 20.0505 25.6032 19.8296 26.895 19.5977C26.9402 19.5846 26.9819 19.5615 27.017 19.53C27.0521 19.4986 27.0797 19.4597 27.0977 19.4161C27.3399 18.6051 27.6056 17.7982 27.789 16.9733C27.9313 16.3371 27.9658 15.6761 28.0512 15.0037L23.6764 15.0025ZM2.45801 8.33535C2.57908 8.32627 2.63961 8.32688 2.69288 8.3172C3.817 8.12351 4.9393 7.91832 6.06583 7.74097C6.32855 7.69921 6.44417 7.59389 6.52529 7.34573C6.98982 5.8962 7.71815 4.54494 8.67364 3.35998C9.1343 2.79042 9.64218 2.25899 10.1482 1.687C6.73897 2.91632 4.19473 5.10802 2.45801 8.33535ZM26.559 8.35291C24.8114 5.10742 22.2677 2.91571 18.8669 1.71908C19.0752 1.96119 19.3088 2.18151 19.5274 2.41333C20.8908 3.84741 21.9146 5.56945 22.5232 7.45226C22.5765 7.6175 22.654 7.68892 22.8319 7.71616C23.4373 7.80755 24.0426 7.92437 24.6437 8.02848C25.2448 8.13259 25.8671 8.23911 26.559 8.35291ZM2.44832 20.6473C4.19352 23.8916 6.73776 26.0833 10.1404 27.2799C9.93395 27.0378 9.70029 26.8205 9.48237 26.5899C8.11996 25.1569 7.0966 23.4363 6.48776 21.5552C6.43509 21.3918 6.36245 21.3131 6.18145 21.2877C5.68689 21.2181 5.19657 21.1182 4.70443 21.0334C3.97862 20.9075 3.25464 20.7859 2.44832 20.6473ZM26.5408 20.6739C26.46 20.6739 26.3792 20.6779 26.2987 20.686C25.1655 20.8821 24.0335 21.0891 22.8979 21.2701C22.6648 21.307 22.5638 21.4002 22.4935 21.6145C21.7956 23.7463 20.617 25.5754 18.9929 27.1177C18.9438 27.1643 18.9021 27.2176 18.8567 27.2678C22.2744 26.0796 24.8205 23.8891 26.5427 20.6757L26.5408 20.6739Z" fill="#44239D"/>
</svg>
