<svg width="20" height="27" viewBox="0 0 20 27" fill="none" xmlns="http://www.w3.org/2000/svg">
<g clip-path="url(#clip0_565_963)">
<path d="M8.77741 3.23361e-06C8.26672 0.118921 7.75111 0.217452 7.24644 0.360154C5.8741 0.753275 4.60309 1.45689 3.52507 2.42026C2.09726 3.66315 1.0388 5.29969 0.472418 7.14017C-0.178792 9.22745 -0.193555 11.2989 0.636451 13.3579C1.29467 14.9704 2.08989 16.5192 3.01274 17.986C4.95107 21.1005 7.19504 23.9744 9.57407 26.7361C9.87698 27.0878 10.1208 27.0878 10.4227 26.7361C12.8022 23.9744 15.0462 21.1022 16.984 17.986C17.8525 16.5979 18.6121 15.1398 19.2553 13.6257C20.105 11.612 20.2176 9.56665 19.6194 7.46804C19.0043 5.30883 17.8484 3.52789 16.1359 2.13882C14.8802 1.12024 13.4061 0.429927 11.8383 0.126281C11.6327 0.0849431 11.4271 0.0413405 11.222 -0.000563808L8.77741 3.23361e-06ZM10.0306 25.8969C9.93111 25.787 9.86987 25.727 9.81793 25.6608C8.44552 23.9115 7.03483 22.1935 5.71327 20.4046C4.11614 18.242 2.66609 15.9735 1.62175 13.4581C1.239 12.5351 0.899999 11.5894 0.873754 10.5701C0.819075 8.33387 1.44295 6.31397 2.76888 4.54606C4.36055 2.42366 6.46618 1.20503 9.03932 0.911138C11.1247 0.673302 13.0805 1.13764 14.8598 2.3087C16.8533 3.6168 18.1771 5.45719 18.8102 7.81176C19.2116 9.30503 19.2958 10.8074 18.8042 12.308C18.4 13.5132 17.8846 14.6753 17.265 15.7781C15.9954 18.0761 14.5071 20.2183 12.9061 22.2778C11.9684 23.4812 11.0066 24.6681 10.0306 25.8969Z" fill="#44239D"/>
<path d="M10.012 6.25677C7.86867 6.24714 6.10148 8.06148 6.08071 10.2937C6.05993 12.526 7.83039 14.367 9.9929 14.3709C12.1554 14.3749 13.9231 12.5464 13.9231 10.3124C13.9231 8.08697 12.1663 6.26696 10.012 6.25677ZM9.99399 7.16281C10.5974 7.16169 11.1876 7.34615 11.6897 7.69282C12.1918 8.03949 12.5832 8.53275 12.8143 9.11006C13.0454 9.68738 13.1058 10.3228 12.9878 10.9357C12.8698 11.5486 12.5788 12.1114 12.1516 12.5528C11.7244 12.9942 11.1803 13.2943 10.5882 13.415C9.99613 13.5358 9.38277 13.4718 8.82587 13.2311C8.26898 12.9904 7.79362 12.5839 7.46007 12.0631C7.12651 11.5422 6.94978 10.9306 6.95227 10.3056C6.95446 8.58019 8.31757 7.1713 9.99399 7.16167L9.99399 7.16281Z" fill="#44239D"/>
</g>
<defs>
<clipPath id="clip0_565_963">
<rect width="20" height="27" fill="white" transform="matrix(-1 8.74228e-08 8.74228e-08 1 20 0)"/>
</clipPath>
</defs>
</svg>
