<svg width="22" height="24" viewBox="0 0 22 24" fill="none" xmlns="http://www.w3.org/2000/svg">
<path d="M10.5769 23.9902C10.4203 23.952 10.2638 23.9201 10.1067 23.8731C8.75057 23.4636 7.8991 22.5756 7.57291 21.1916C7.55851 21.129 7.54223 21.0707 7.52219 20.9906H7.27176C5.67837 20.9906 4.08436 20.9968 2.4916 20.9862C1.88555 20.9818 1.42726 20.69 1.16055 20.1445C0.899468 19.6084 0.957068 19.0799 1.30392 18.5964C1.39423 18.4787 1.49733 18.3714 1.61133 18.2764C3.20346 16.8505 3.99045 15.0632 4.00485 12.9327C4.01299 11.8781 3.9942 10.8236 4.01424 9.76897C4.06933 6.91269 5.99392 4.2925 8.70487 3.38571C8.94528 3.30555 9.01227 3.19784 9.00351 2.9605C8.98261 2.55485 8.99056 2.14823 9.0273 1.74371C9.08681 1.26246 9.32014 0.81957 9.68337 0.498415C10.0466 0.177261 10.5147 0 10.9995 0C11.4843 0 11.9523 0.177261 12.3156 0.498415C12.6788 0.81957 12.9121 1.26246 12.9716 1.74371C13.0167 2.18208 13.0004 2.63297 12.9992 3.0776C12.9992 3.22414 13.0386 3.2924 13.187 3.34563C15.8266 4.30586 17.4022 6.16746 17.9139 8.93043C17.9866 9.32684 17.9866 9.73891 17.9928 10.1441C18.0116 11.292 17.9678 12.443 18.0385 13.5884C18.1506 15.3882 18.9251 16.8981 20.2342 18.1349C20.3194 18.2157 20.4102 18.2902 20.4947 18.371C20.9743 18.8256 21.1208 19.4513 20.8922 20.0399C20.6637 20.6286 20.1209 20.9887 19.4635 20.9899C17.8858 20.9933 16.308 20.9933 14.7303 20.9899H14.4799C14.4517 21.1058 14.4298 21.2185 14.3985 21.3275C13.9811 22.7778 13.0322 23.6506 11.5517 23.9458C11.5089 23.9573 11.4671 23.9719 11.4265 23.9896L10.5769 23.9902ZM10.9995 19.9942V19.9823C12.0012 19.9823 12.9979 19.9823 13.9972 19.9823L19.2907 19.9936C19.3919 19.9976 19.4933 19.9909 19.5931 19.9735C19.6781 19.9582 19.7576 19.9207 19.8235 19.8648C19.8893 19.8089 19.9393 19.7365 19.9682 19.6551C19.9971 19.5737 20.004 19.486 19.9881 19.4011C19.9723 19.3161 19.9343 19.2369 19.878 19.1713C19.8258 19.113 19.7693 19.0588 19.7089 19.0091C17.9183 17.3913 17.0149 15.3759 16.9986 12.9628C16.9917 11.9946 17.0024 11.0258 16.9949 10.0577C16.9969 9.74531 16.976 9.43322 16.9323 9.12394C16.3688 5.54936 12.9879 3.31244 9.48184 4.1873C6.93994 4.82168 5.04102 7.20389 5.00345 9.82345C4.98843 10.8881 5.00345 11.9477 4.99782 13.0098C4.98154 15.0438 4.30913 16.8298 2.95052 18.3491C2.71198 18.6159 2.43901 18.8501 2.18232 19.1006C2.02517 19.2546 1.95442 19.4325 2.03268 19.651C2.11094 19.8696 2.27685 19.9641 2.49598 19.9861C2.57362 19.993 2.65251 19.9898 2.73014 19.9898L10.9995 19.9942ZM13.4255 21.0037H8.57214C8.73116 22.0984 9.82994 22.9926 10.9995 22.9926C12.169 22.9926 13.2659 22.0965 13.4255 21.0037ZM11.9812 3.01685C11.9874 2.98968 11.9914 2.96203 11.9931 2.93419C11.9931 2.59853 12.0025 2.26286 11.9887 1.92845C11.9686 1.43685 11.6049 1.06236 11.1028 0.995982C10.6539 0.933358 10.1543 1.22142 10.0654 1.68046C9.9802 2.11883 10.0071 2.58412 9.98521 3.01685H11.9812Z" fill="#44239D"/>
<path d="M0.0141816 9.46524C0.175712 6.41107 1.30892 3.77961 3.43949 1.58151C3.57598 1.4406 3.73626 1.30596 3.92721 1.37297C4.09033 1.43058 4.22971 1.54071 4.32352 1.68608C4.43058 1.87396 4.34168 2.0706 4.19831 2.24031C3.76944 2.74506 3.31302 3.23228 2.93549 3.77335C1.70774 5.53245 1.07915 7.49822 1.01216 9.64309C1.01379 9.79117 1.00438 9.93916 0.983987 10.0858C0.964945 10.1987 0.906349 10.3011 0.818697 10.3746C0.731046 10.4482 0.620071 10.4881 0.505659 10.4873C0.387413 10.4886 0.272646 10.4473 0.182465 10.3707C0.0922833 10.2942 0.0327496 10.1877 0.0148083 10.0708C0.00164473 9.97035 -0.00275584 9.86893 0.00165916 9.76771C0.00165916 9.66751 0.00917294 9.56606 0.0141816 9.46524Z" fill="#44239D"/>
<path d="M21.9985 9.48528C21.9985 9.64121 22.0035 9.79839 21.9985 9.95308C21.986 10.2743 21.7819 10.4885 21.4977 10.4885C21.2222 10.4885 21.02 10.2862 20.9968 9.97499C20.9605 9.49341 20.9548 9.00808 20.8929 8.52963C20.5967 6.23134 19.6407 4.23739 18.0811 2.53026C17.9809 2.42067 17.8739 2.31797 17.7768 2.20587C17.589 1.98731 17.589 1.69924 17.7768 1.50886C17.8223 1.4597 17.8775 1.42059 17.939 1.39405C18.0004 1.36752 18.0667 1.35414 18.1337 1.35479C18.2006 1.35544 18.2667 1.3701 18.3276 1.39782C18.3885 1.42554 18.443 1.46571 18.4874 1.51575C18.8005 1.8414 19.1104 2.17393 19.3915 2.52713C21.0093 4.56178 21.862 6.88889 21.9985 9.48528Z" fill="#44239D"/>
</svg>
