<svg width="83" height="83" viewBox="0 0 83 83" fill="none" xmlns="http://www.w3.org/2000/svg">
<g clip-path="url(#clip0_14_488)">
<path d="M41.497 82.994C64.4151 82.994 82.9939 64.4327 82.9939 41.5363C82.9939 18.6398 64.4151 0.0785828 41.497 0.0785828C18.5788 0.0785828 0 18.6398 0 41.5363C0 64.4327 18.5788 82.994 41.497 82.994Z" fill="#FEFEFD"/>
<path d="M21.4652 20.1456C20.1645 23.1133 17.8897 25.5069 16.6252 28.535C14.2052 34.4403 13.9027 40.5873 15.0825 46.6679C16.0928 51.8297 15.4031 56.5503 13.6607 61.3373C12.723 63.8941 12.3963 66.5415 13.4853 69.1949C13.7636 69.8598 14.1629 70.5851 13.3159 71.117C12.4689 71.6489 11.9909 70.8631 11.5311 70.3735C5.40248 63.8397 1.43973 56.1755 0.326533 47.2783C-2.54722 24.3101 12.4265 3.99528 35.3077 0.507728C40.6913 -0.327555 46.1871 -0.090351 51.4786 1.20569C56.77 2.50174 61.7525 4.83101 66.1389 8.05929C70.5253 11.2876 74.229 15.351 77.0366 20.0156C79.8442 24.6802 81.7002 29.8538 82.4977 35.2382C84.113 46.2266 81.6325 56.2178 75.5402 65.4051C74.5056 66.9706 73.0173 68.1311 71.9102 69.6724C71.0087 70.9356 69.351 70.4038 69.4357 69.0136C69.8229 62.3105 67.1972 56.0183 67.0702 49.4119C67.0552 45.9668 67.3549 42.5274 67.9656 39.1367C68.9517 33.177 67.9232 27.6526 64.1964 22.7083C63.6761 22.0193 62.817 21.4995 62.8715 20.4236C64.0815 16.0959 62.4722 13.6843 57.9891 13.1705C50.2028 2.26058 34.7873 0.0423098 25.5308 12.8139C20.7997 13.7024 19.6986 15.6728 21.4652 20.1456Z" fill="#A7A9AC"/>
<path d="M53.6816 29.1274C53.9841 29.1274 54.3834 28.7466 54.5528 29.2845C55.2183 31.394 56.7732 33.0139 57.6686 35.0447C58.9693 38.0004 60.3064 40.5873 56.4586 42.5819C56.0351 41.8143 56.7853 40.7687 55.5934 39.7895C54.4802 42.8116 51.7759 43.4644 49.2107 43.7243C45.8227 44.0628 42.3681 43.8331 38.9257 43.7243C34.4366 43.5551 29.8507 43.4584 27.5396 38.4839C27.5396 38.4839 27.3762 38.4839 27.1947 38.5323C26.5595 39.4329 27.1947 40.5813 26.7652 41.5544C23.7402 40.4362 23.0868 39.046 24.2 36.2475C25.8335 32.1435 28.0296 28.3175 31.3995 25.4887C37.5947 20.2846 45.9195 19.9763 51.8666 25.8755C52.1228 26.0646 52.3392 26.3024 52.5032 26.5752C52.6672 26.848 52.7758 27.1504 52.8225 27.4652C50.4025 27.1146 47.9825 26.7883 45.617 26.3893C44.4977 26.202 44.1589 26.9575 43.9411 27.713C43.9027 27.8691 43.901 28.0319 43.9362 28.1887C43.9713 28.3456 44.0424 28.4921 44.1438 28.6169C44.2453 28.7417 44.3743 28.8412 44.5207 28.9078C44.6671 28.9743 44.827 29.0061 44.9878 29.0005C47.9099 28.8433 50.82 29.7016 53.6816 29.1274ZM51.6004 32.7116C50.7776 33.6001 50.4691 32.5182 49.9427 32.2765C48.3637 31.533 46.9177 32.4336 46.0707 33.316C45.4657 33.9205 45.7198 35.6854 46.7846 36.5437C48.2003 37.6921 49.4829 36.4772 50.8079 36.1327C51.8364 36.7371 52.4777 36.0481 52.8346 35.3046C53.4517 34.0414 52.1389 33.5216 51.6004 32.7116ZM32.8938 32.3973C32.2538 32.8597 31.6473 33.3667 31.0788 33.9145C30.7098 34.3255 30.0382 34.8332 30.5706 35.492C31.0183 36.0541 31.5023 36.9366 32.4582 36.0964C33.8074 37.9097 35.5498 36.7009 36.9594 36.4047C37.8125 36.2173 37.8185 34.5914 37.4313 33.7634C36.5057 31.805 34.7209 31.8594 32.8938 32.3973ZM30.6493 30.1368C32.8878 29.3087 35.2715 29.7076 37.5705 29.3268C38.599 29.1576 38.9136 28.6197 38.8652 27.6768C38.8349 27.1388 38.8652 26.3833 38.1573 26.5283C35.453 27.0542 32.6095 27.036 30.135 28.4444C29.7841 28.6438 29.1126 28.9702 29.4816 29.6532C29.6017 29.8452 29.7787 29.9949 29.988 30.0816C30.1973 30.1682 30.4285 30.1876 30.6493 30.1368Z" fill="#DB9775"/>
<path d="M26.7954 41.5363C27.2068 40.5631 26.5897 39.4147 27.225 38.5141C27.4065 38.5141 27.5638 38.4416 27.5698 38.4657C29.8809 43.4402 34.4668 43.5369 38.9559 43.7061C42.3802 43.8331 45.8348 44.0627 49.2409 43.7061C51.8061 43.4462 54.5105 42.7632 55.6237 39.7713C56.8337 40.7686 56.0653 41.7962 56.4888 42.5638C56.4162 44.1716 56.3255 45.7854 56.2831 47.3992C56.1561 52.1017 52.8588 54.6523 49.6281 57.2272C48.7267 57.0459 48.0672 57.6261 47.3775 57.9948C43.1425 60.2614 39.0588 59.8081 35.0476 57.3904C34.3579 56.9794 33.638 56.6167 32.9362 56.2299C29.1368 53.6308 27.4912 49.962 27.3944 45.4409C27.2799 44.1277 27.0799 42.8234 26.7954 41.5363ZM35.9249 45.9184C40.0147 50.6873 43.9895 50.9351 46.6878 47.0245C43.0631 47.2844 39.4207 46.9101 35.9249 45.9184Z" fill="#462C25"/>
<path d="M21.4655 20.1456C19.6989 15.6728 20.8 13.7024 25.5553 12.8078C25.6306 12.9373 25.7513 13.0342 25.8941 13.0798C26.0151 13.2491 26.1361 13.3458 26.2208 13.0496C31.7807 12.5721 37.3528 12.1006 42.9369 12.3122C47.9645 12.5056 52.986 12.8743 58.0135 13.1644C62.4966 13.6903 64.124 16.102 62.8959 20.4176C49.1122 19.2874 35.2629 19.1965 21.4655 20.1456Z" fill="#462C25"/>
<path d="M32.912 56.2722C33.6138 56.6591 34.3337 57.0217 35.0234 57.4327C39.0346 59.8142 43.1183 60.2796 47.3533 58.0371C48.043 57.6684 48.7025 57.0882 49.6039 57.2695C51.2979 60.5455 50.5538 62.2681 47.1839 62.8121C43.9056 63.3962 40.5535 63.437 37.2619 62.933C32.1739 62.0566 32.1134 62.1352 32.912 56.2722Z" fill="#DB9775"/>
<path d="M53.6818 29.1274C50.7899 29.7318 47.9101 28.8433 45.0182 28.9823C44.8574 28.9879 44.6976 28.9562 44.5511 28.8896C44.4047 28.8231 44.2757 28.7235 44.1743 28.5988C44.0729 28.474 44.0018 28.3275 43.9666 28.1706C43.9314 28.0138 43.9331 27.8509 43.9716 27.6949C44.1894 26.9393 44.5282 26.1838 45.6474 26.3712C48.0674 26.7701 50.4511 27.0965 52.853 27.4471C53.1167 27.6394 53.3299 27.8927 53.4743 28.1854C53.6186 28.478 53.6898 28.8012 53.6818 29.1274Z" fill="#462C25"/>
<path d="M58.0134 13.1644C52.9859 12.8743 47.9644 12.5056 42.9368 12.3122C37.3527 12.1007 31.7806 12.5721 26.2207 13.0496L26.0452 12.9045L25.894 13.0798C25.7512 13.0342 25.6305 12.9373 25.5552 12.8078C34.8117 0.0362816 50.215 2.25453 58.0134 13.1644Z" fill="#FEFEFD"/>
<path d="M30.6552 30.1368C30.4336 30.188 30.2014 30.1689 29.9911 30.0823C29.7807 29.9956 29.6026 29.8457 29.4815 29.6532C29.1125 28.9702 29.784 28.6438 30.1349 28.4444C32.6094 27.0361 35.4529 27.0542 38.1572 26.5283C38.8893 26.3833 38.8348 27.1328 38.8651 27.6768C38.9135 28.6197 38.5989 29.1576 37.5704 29.3269C35.2714 29.7076 32.8877 29.3087 30.6552 30.1368Z" fill="#462C25"/>
<path d="M32.8941 32.3973C34.7091 31.8594 36.5241 31.7929 37.4497 33.7754C37.8369 34.5793 37.8309 36.2294 36.9778 36.4168C35.5682 36.7371 33.8258 37.9339 32.4766 36.1085C32.0652 34.809 32.8517 33.6485 32.8941 32.3973Z" fill="#462C25"/>
<path d="M50.8198 36.1327C49.4949 36.4772 48.2123 37.6921 46.7966 36.5437C45.7318 35.6854 45.4958 33.9265 46.0827 33.316C46.9297 32.4335 48.3756 31.5027 49.9547 32.2764C50.481 32.5182 50.7896 33.6001 51.6063 32.7056C50.2511 33.6001 51.6971 35.1354 50.8198 36.1327Z" fill="#462C25"/>
<path d="M50.8198 36.1327C51.7092 35.1354 50.2632 33.6001 51.6063 32.7056C52.1508 33.5216 53.4637 34.0414 52.8466 35.3046C52.4775 36.0481 51.8362 36.7311 50.8198 36.1327Z" fill="#FEFEFD"/>
<path d="M32.8938 32.3973C32.8515 33.6485 32.0831 34.8151 32.4764 36.1085C31.5205 36.9366 31.0365 36.0541 30.5888 35.5041C30.0564 34.8453 30.7279 34.3375 31.097 33.9265C31.6592 33.3753 32.2597 32.8643 32.8938 32.3973Z" fill="#FEFEFD"/>
<path d="M35.9248 45.9184C39.4207 46.9101 43.063 47.2845 46.6878 47.0245C43.9895 50.9351 40.0146 50.6873 35.9248 45.9184Z" fill="#FEFEFD"/>
<path d="M25.894 13.0798L26.0453 12.9045L26.2207 13.0496C26.136 13.3458 26.015 13.2491 25.894 13.0798Z" fill="#DB9775"/>
</g>
<defs>
<clipPath id="clip0_14_488">
<rect width="83" height="83" fill="white"/>
</clipPath>
</defs>
</svg>
