<svg width="26" height="26" viewBox="0 0 26 26" fill="none" xmlns="http://www.w3.org/2000/svg">
<path d="M13.2218 6.1778C12.033 6.18091 10.894 6.64612 10.0543 7.47149C9.21463 8.29687 8.74273 9.41509 8.74203 10.5811C8.74784 11.7472 9.2245 12.8635 10.0676 13.6855C10.9108 14.5075 12.0516 14.9683 13.2404 14.9669C14.4291 14.9632 15.5679 14.4978 16.4075 13.6724C17.2471 12.847 17.7191 11.7289 17.7202 10.5629C17.7144 9.39689 17.2377 8.28069 16.3945 7.45877C15.5514 6.63686 14.4105 6.17623 13.2218 6.1778ZM9.7396 10.5655C9.74469 9.66015 10.1147 8.79355 10.7688 8.15483C11.423 7.51612 12.3081 7.15717 13.2311 7.15632C14.1545 7.15683 15.0402 7.51594 15.6945 8.15515C16.3487 8.79436 16.7184 9.66166 16.7226 10.5674C16.7221 11.018 16.631 11.4641 16.4546 11.8802C16.2782 12.2962 16.0199 12.6741 15.6946 12.9922C15.3692 13.3102 14.9831 13.5623 14.5583 13.7339C14.1336 13.9055 13.6785 13.9933 13.2191 13.9923C12.2952 13.9878 11.4106 13.6248 10.7586 12.9826C10.1066 12.3404 9.74029 11.4712 9.7396 10.5648V10.5655Z" fill="#44239D"/>
<path d="M26 12.7203C25.9335 12.2538 25.8816 11.7861 25.8038 11.3223C25.0177 6.6254 21.2622 2.59715 16.5477 1.43206C12.5255 0.437885 8.82849 1.14372 5.48463 3.56263C5.1807 3.78312 5.12218 4.07602 5.32302 4.31674C5.50126 4.52941 5.78057 4.53332 6.06056 4.36306C6.79211 3.9175 7.50039 3.41846 8.2745 3.05836C10.7245 1.92132 13.3102 1.6232 15.9265 2.30099C20.8313 3.5685 23.8918 6.68607 24.8029 11.5682C25.5597 15.6128 24.2562 19.1133 21.2117 21.9693C21.1658 22.013 21.1126 22.0501 21.0387 22.1095C20.5067 19.9431 19.3096 18.2607 17.3903 17.0943C16.0126 16.2499 14.3993 15.8515 12.7782 15.9553C9.21554 16.1542 6.2235 18.6208 5.41613 22.1043C5.34962 22.0547 5.29243 22.0156 5.24122 21.9693C3.00666 19.9163 1.74308 17.3996 1.49834 14.4059C1.29882 11.9923 1.84217 9.73905 3.08581 7.64697C3.11108 7.60457 3.13568 7.56217 3.15763 7.5165C3.29064 7.25556 3.22413 6.99462 2.98937 6.85567C2.9335 6.81912 2.87035 6.79464 2.80409 6.78386C2.73784 6.77308 2.67 6.77624 2.60509 6.79315C2.54018 6.81005 2.47968 6.84031 2.42761 6.88191C2.37553 6.9235 2.33307 6.97549 2.30304 7.03442C1.95589 7.68677 1.59876 8.34368 1.31212 9.02473C0.852238 10.1428 0.578085 11.3259 0.500103 12.5291C0.490988 12.5931 0.476982 12.6564 0.458204 12.7183V14.2807C0.478821 14.4412 0.501431 14.601 0.519388 14.7615C0.812674 17.3917 1.82421 19.7193 3.6072 21.7129C5.58771 23.9237 8.06302 25.2962 11.0278 25.8103C11.4933 25.8912 11.9589 25.9375 12.4291 26.0001H14.0252C14.088 25.9825 14.152 25.969 14.2167 25.9597C16.3874 25.7946 18.3959 25.1468 20.2061 23.9622C23.2627 21.9647 25.1354 19.1968 25.8051 15.6558C25.8903 15.1992 25.9382 14.7425 26 14.2826V12.7203ZM13.2757 25.0307C10.9061 25.0138 8.75932 24.4077 6.80541 23.163C6.28003 22.8277 6.28003 22.8277 6.427 22.2178C7.40928 18.1543 11.7141 15.8829 15.7117 17.3728C18.1438 18.2789 19.5836 20.0559 20.1097 22.5479C20.1509 22.7436 20.113 22.8649 19.9288 22.9882C17.9727 24.3133 15.6529 25.0255 13.2757 25.0307Z" fill="#44239D"/>
<path d="M4.06143 5.00682C3.93228 5.00597 3.80777 5.05396 3.71377 5.14083C3.61976 5.22769 3.56349 5.34674 3.55666 5.47324C3.5548 5.53804 3.566 5.60255 3.58961 5.66309C3.61322 5.72363 3.64878 5.779 3.69426 5.82603C3.73973 5.87306 3.79422 5.91082 3.8546 5.93715C3.91498 5.96348 3.98007 5.97786 4.04613 5.97947C4.11217 5.9799 4.17765 5.96751 4.23879 5.94301C4.29993 5.91852 4.35553 5.88241 4.40239 5.83675C4.44924 5.79109 4.48643 5.7368 4.5118 5.67699C4.53718 5.61717 4.55024 5.55303 4.55024 5.48825C4.5477 5.36168 4.49545 5.24096 4.40438 5.15126C4.31331 5.06156 4.19045 5.00982 4.06143 5.00682Z" fill="#44239D"/>
</svg>
