<svg width="225" height="225" viewBox="0 0 225 225" fill="none" xmlns="http://www.w3.org/2000/svg">
<g clip-path="url(#clip0_36_1349)">
<path d="M225 225H0V0H225V225ZM139.91 199.91L144.91 200.12L145.18 204.77H159.76V200.21L155.14 199.74V195.13L165.09 194.95V204.72H174.96V199.95H185.12L184.71 195.37L180.31 194.57V185.33L185.31 184.61V175.22L190.31 174.74V184.83L194.78 185.21V194.72L190.32 195.41V204.78H205.05C204.97 203.11 204.91 201.71 204.84 200.35L200.3 199.67V190.22L204.81 189.83V185.32L200.23 184.66C200.15 182.91 200.08 181.43 200.01 179.95H205.08C204.98 178.03 204.9 176.65 204.81 174.95L200.15 175.3V180.08L195.37 179.76C195.15 178.05 194.98 176.65 194.79 175.15L190.19 174.86C190.1 173.4 190.01 171.93 189.9 170.22L185.37 169.78V164.86H194.77L195.49 160.28L199.72 159.57C201.51 154.57 197.84 155.02 195.24 154.63C195.15 152.87 195.08 151.39 195.01 149.9H199.74L200.46 145.27L204.58 144.59C206.8 139.46 202.9 140.1 200.39 139.71L199.77 135.04H190.02V130.04H185.02V125.04H175.02V120.27H165.15V125.04L160.38 124.72C160.14 122.99 159.95 121.59 159.77 120.27L155 119.53V114.89H159.72C160.02 112.94 160.24 111.54 160.5 109.89H169.87L170.31 105.32H175.12V114.72H179.9L180.32 109.89H200.02V104.89H205.11C204.99 102.95 204.9 101.56 204.8 100.02H200.02V94.83H185.02C185.16 92.96 185.26 91.59 185.39 89.78H199.99V84.88H204.76V75.01H199.99V65.29L205.1 64.55C204.96 62.89 204.85 61.55 204.75 60.24H185.12V65.01H180V59.94L175 60.21C175.14 61.97 175.24 63.36 175.36 64.87H180.13C180.02 66.46 179.92 68.04 179.78 70.1H170.39V85.03H180.1L179.96 84.89V95.04L175.37 94.63C175.06 92.82 174.82 91.42 174.64 90.32C169.64 88.55 170.05 92.15 169.7 94.87H164.98L165.13 95.01V85.01H154.97C155.08 83.41 155.19 81.81 155.29 80.25L159.84 79.58V60.13H155.24C155.09 61.73 154.95 63.13 154.79 64.84L149.96 64.6V54.82H155.03C154.92 52.89 154.84 51.51 154.75 49.82L150.1 50.18V54.95H144.97V49.85L140.1 50.17V54.95L135.02 54.62V35.13L130.21 34.71L129.86 30.14L125.34 29.66L124.67 25.04L119.96 24.81L120.1 24.96L119.79 20.25H109.94V29.47L104.84 30.47V44.66L99.89 45.18V54.76L94.96 54.99V50.19H90.18L89.89 54.8L84.94 54.98V49.88L80.08 50.2V54.98L74.99 54.65V35.13L70.19 34.71L69.83 30.11L64.83 29.66V19.77L60.24 20.28V39.64L64.99 40.24L64.7 44.61L60.24 45.34V54.63H64.68L65.39 49.85L70.12 50.32V64.65H74.69L75.35 60.07L80.07 59.85V64.61L84.68 65.24L85.35 69.58H94.78V65.35L90.18 64.42C90.02 60.93 89.87 57.81 89.74 54.7L95.09 54.87V59.6H105.17V50.03L110.08 49.81V54.91L114.94 54.6V49.81H120.08V54.91L124.95 54.6V49.81L130.11 50.15V64.91L134.7 64.64C134.97 62.89 135.19 61.48 135.41 60.03L140.09 59.82V64.56L144.72 65.25C144.99 66.97 145.21 68.35 145.48 70.02H154.76V74.64L150.34 75.18C150.08 76.89 149.87 78.31 149.65 79.78L144.96 79.99V74.89L140.09 75.2V79.99H135.09V84.99H114.94L115.27 79.9H129.8C129.94 78.2 130.07 76.79 130.21 75.1L134.72 74.74V70.13H125.42L124.56 74.71H120.3V65.27L125.09 64.53L124.57 60.13H115.17L114.65 64.58L110.06 65.24L109.83 69.95L109.98 69.81H105.28L104.57 65.13H100.24V74.6L104.84 75.28C104.92 77.02 104.99 78.5 105.06 79.99H95.3L94.65 74.93L90.29 75.19C90.02 76.94 89.8 78.35 89.54 80H84.9V74.9L80.04 75.21V80H74.89V70H64.89V64.9L60.02 65.22V70H49.87L50.22 65.27L54.74 64.54V60.13H39.85V69.95L35.17 69.54L34.66 65.04L30.19 64.66L29.7 60.23H20.19V79.9H39.97L39.66 84.57L36.24 85.12C34.83 87.26 34.14 88.74 33.04 89.77C32.56 90.22 31.22 89.77 30.24 89.68L29.59 84.83L24.83 85.24V94.66L20.26 95.11V99.92H29.51L30.42 104.62H35.08V94.81H45.02L44.7 99.58L40.12 100.22V104.53L45.02 105.33V119.97H40.29L39.57 124.77L34.88 124.98V119.88L30.01 120.2V124.98H25.3L24.57 129.61L20.2 130.33V149.62H35.07V139.85H40.02V164.61H45.11V145.31H54.72V149.78L50.24 150.15V154.66L54.81 155.33C54.9 157.07 54.96 158.55 55.03 160.02H49.96L50.23 165.02L54.89 164.67V159.89H60.02V169.89H65.02V175.02H60.27V184.65H69.88V179.88L80.01 180.05L79.87 179.91L80.21 184.63L84.63 185.34L85.4 189.71H94.9L94.7 185.29L90.17 184.6V175.22H94.75C94.91 176.85 95.04 178.22 95.16 179.64H104.75V175.13L100.15 174.77C100.01 173.07 99.88 171.67 99.72 169.83H85.1C85.01 167.83 84.94 166.37 84.88 164.83H105.03V169.83H110.03V174.93L114.89 174.61V169.83L119.67 170.14L120.32 174.93L124.67 174.61C124.94 172.85 125.15 171.46 125.4 169.84H135.05C134.93 171.44 134.81 173.04 134.7 174.57L130.2 175.29V184.64H134.67C134.9 182.97 135.1 181.55 135.32 180H140.03L139.89 179.86L140.22 184.61L144.65 185.24L145.38 189.85H155.05C155.12 191.62 155.19 193.39 155.24 195.15H150.37C150.05 196.82 149.75 198.34 149.48 199.74L144.74 200.19V194.81L140.05 195.26V199.98H134.98C135.08 201.9 135.16 203.29 135.25 204.98L139.91 204.62V199.91ZM79.91 199.91H85.06V204.67H104.92V199.89L110.15 200.29C109.15 204.55 110.73 205.9 114.59 204.55C114.9 203.05 115.22 201.55 115.59 199.74H129.69C129.96 197.97 130.18 196.54 130.37 195.28L134.71 194.54V190.27H125.27C124.99 191.98 124.77 193.4 124.56 194.75H120.24V185.28L125.03 184.58C124.88 182.91 124.75 181.53 124.63 180.19H115.21L114.71 184.66L110.11 185.31L109.88 190.03L110.03 189.89H105.33L104.56 185.19H100.23V194.66L104.82 195.33C104.91 197.06 104.98 198.55 105.05 200.03H95.28C95.03 198.03 94.85 196.66 94.64 195.03L90.28 195.28L89.57 199.89L84.91 200.1V195L80.04 195.3V200.07L75.04 199.89V190.23H65.13C64.98 191.84 64.85 193.23 64.71 194.79L60.25 195.23V205.13L64.6 204.71C64.92 202.9 65.17 201.52 65.4 200.22C68.91 200.05 72.05 199.9 75.17 199.77V205.13L79.88 204.66L79.91 199.91ZM30.01 160.05H19.95L20.22 164.66H29.87V159.91H34.95L34.67 154.91L30.01 155.27V160.05ZM160.01 24.96L155.27 24.61L154.59 20.09H145.37L144.37 25.09H134.94L135.26 29.57L140.09 30.33V44.61H145.09V29.81L149.69 30.18C149.98 31.98 150.21 33.39 150.4 34.54C155.12 36.16 155.17 33.01 155.22 30.19L159.91 29.51C159.91 27.77 159.91 26.29 159.91 24.82H164.98L164.71 19.82L160.05 20.17L160.01 24.96ZM100.01 24.96L95.27 24.61L94.57 20.13H85.35L84.35 25.13H74.93L75.25 29.61L80.08 30.37V44.65H85.08V29.85L89.68 30.22L90.39 34.58C95.12 36.2 95.17 33.05 95.22 30.23L99.91 29.55V24.86H104.99L104.72 19.86L100.06 20.21L100.01 24.96ZM54.57 54.65V20.25H20.15V54.65H54.57ZM20.25 170.13V204.63H54.57V170.13H20.25ZM204.77 20.22H170.37V54.63H204.77V20.22ZM195.22 129.35C200.56 131.7 199.82 127.71 200.22 125.25L204.79 124.61V120.2L200.39 119.73L199.47 115.23H190.26V124.66L194.74 125.35L195.22 129.35ZM25.22 114.81H40.05L39.66 110.3H20.2V119.68H24.79L25.22 114.81ZM160.22 45.08V54.61H164.67V45.13L160.22 45.08ZM160.12 39.91L165 39.59C164.88 37.87 164.79 36.5 164.68 34.86L160.12 35.17V39.91Z" fill="white"/>
<path d="M155.26 195.23L155.05 189.92L154.91 190.06L159.68 189.76V180.27L155.05 179.57V174.91L154.91 175.05L159.62 174.75V164.9H144.9L145.04 165.04C145.04 163.32 144.95 161.61 144.9 159.89H149.63C149.92 157.97 150.13 156.56 150.33 155.26L154.75 154.54V149.93H145.27C145.04 148.06 144.86 146.65 144.68 145.27L140.11 144.59C140.03 142.85 139.96 141.37 139.89 139.9H144.96C144.86 137.97 144.78 136.59 144.69 134.9L140.03 135.26V140.03H135.34C135.02 141.98 134.78 143.39 134.56 144.73H130.23V135.25L134.89 134.57V129.87H139.89V124.87L144.89 125.07C145.02 126.63 145.16 128.19 145.29 129.74H154.73V125.22H144.73C144.79 123.43 144.84 121.64 144.89 119.86H149.62L150.35 115.01H155.04L154.89 114.87V119.51L159.66 120.25C159.84 121.57 160.03 122.97 160.27 124.7L165.04 125.02L164.9 124.87V130.02L165.04 129.88L160.04 130.13V135.03H150.34V145.03H164.7V149.72L160.32 150.15V159.53H170.15V150.23H174.66L175.35 154.73L179.56 155.15C179.9 156.82 180.2 158.34 180.46 159.64H190.1V150.03H195.1L194.95 149.89C195.02 151.38 195.09 152.89 195.18 154.62C197.78 155.01 201.45 154.55 199.66 159.56L195.43 160.27L194.71 164.85H185.31V169.77L189.84 170.21C189.95 171.92 190.04 173.39 190.12 174.86L190.26 174.7L185.26 175.19V184.58L180.26 185.3V194.54L184.66 195.34L185.07 199.92H174.91L175.04 200.07C174.96 198.52 174.88 196.97 174.79 195.17L169.9 194.92L170.04 195.06C169.93 193.46 169.82 191.87 169.7 189.98L164.9 190.29V195.06L165.04 194.92L155.09 195.09L155.26 195.23ZM165.26 165.06V179.63H179.57V165.06H165.26Z" fill="black"/>
<path d="M45.0103 120.01V105.37L40.1104 104.57V100.26L44.6903 99.62L45.0103 94.85L44.8703 94.99L50.1703 94.65V99.56L55.0204 100.4V104.98H49.9503L50.2303 109.98L54.8803 109.62V104.85H59.6303V94.85H50.0403V89.85H80.0403V84.85L79.9003 84.99H85.0403L84.9003 84.86L85.2203 89.94H99.7603L100.17 94.75L104.68 95.1V99.76H95.3803L94.5204 95.18H90.2503V104.62L95.0403 105.35L94.6203 109.71H85.2104L84.7104 105.25L80.1104 104.59C80.0303 102.84 79.9604 101.36 79.8904 99.88H84.9604L84.6903 94.88L80.0303 95.24V100.01H74.9103V95.23H64.9103L65.3203 99.87H75.0504L74.7203 104.64L69.8103 105.28V114.8L64.9103 115.02V109.95L59.9103 110.22L60.2603 114.88H65.0303V124.88H70.0303V129.66H79.9003V124.89H85.0504V129.98H99.7603L100.17 134.79L104.68 135.14V139.8H95.3803C95.0703 138.15 94.7804 136.61 94.5204 135.21H90.2503V144.66L95.0403 145.39L94.6203 149.75H85.2104L84.7104 145.29L80.1104 144.63C80.0303 142.88 79.9604 141.4 79.8904 139.92H84.9604L84.6903 134.92L80.0303 135.28V140.05L74.9103 139.88L75.0504 140.02C74.9604 138.46 74.8703 136.9 74.7603 134.89H64.9003L65.0303 135.03L64.7404 130.03H54.8803V125.31L50.0903 124.59C50.0103 122.85 49.9403 121.38 49.8803 119.9H54.9503L54.6803 114.9L50.0204 115.25V120.03L44.8904 119.87L45.0103 120.01Z" fill="black"/>
<path d="M199.92 104.86V109.86H180.22L179.8 114.69H175.02V105.29H170.21L169.77 109.86H160.4C160.14 111.55 159.92 112.95 159.62 114.86H154.9L155.05 115C154.95 113.41 154.86 111.83 154.73 109.82H145.3L144.64 105.23L140.1 104.53C140.02 102.8 139.95 101.33 139.89 99.86H144.96C144.86 97.94 144.78 96.55 144.69 94.86L140.03 95.22V99.99H135.34C135.02 101.94 134.78 103.35 134.56 104.69H130.23V95.23L135.04 94.52V89.85L134.9 89.99L139.79 89.74C139.88 87.94 139.96 86.39 140.04 84.84L139.9 84.98H145.04L144.9 84.85L145.2 89.61H155.05V84.85L154.91 84.99H165.07V94.99H160.33C160.04 96.92 159.83 98.33 159.62 99.74H155.37L154.44 94.9L150.29 95.09V104.6H164.92V94.85H169.64C169.99 92.13 169.64 88.53 174.58 90.3C174.76 91.4 175 92.8 175.31 94.61L179.9 95.02V84.86H190.02L189.7 80.22L185.31 79.5L184.57 75.13H175.32V79.56L180.08 80.29V84.97H170.37V70.07H179.76C179.9 68.01 180 66.43 180.11 64.84L179.97 64.98H185.09L184.96 64.83C185.04 66.38 185.12 67.93 185.21 69.72L190.1 69.97L189.96 69.83C190.04 71.38 190.12 72.93 190.21 74.73L195.1 74.98L194.96 74.84V84.98H200.1L199.96 84.85V89.75H185.36C185.23 91.56 185.13 92.93 184.99 94.8H199.99V99.99L200.13 99.86L195.06 100.2C195.17 101.93 195.26 103.33 195.37 105H200.13L199.92 104.86ZM189.76 100.19H180.04C180.12 101.86 180.18 103.24 180.24 104.58H189.76V100.19Z" fill="black"/>
<path d="M45.0097 94.85H35.0697V104.66H30.4097L29.4997 99.96H20.2497V95.13L24.8197 94.68V85.26L29.5797 84.85L30.2297 89.7C31.2297 89.76 32.5497 90.24 33.0297 89.79C34.1297 88.79 34.8197 87.28 36.2297 85.14L39.6497 84.59L39.9597 79.92H20.1797V60.27H29.6897L30.1797 64.7L34.6497 65.08L35.1597 69.58L39.8397 69.99V60.13H54.7297V64.47L50.2097 65.2L49.8597 69.93L50.0097 69.79L44.8697 70.1V94.95L45.0097 94.85Z" fill="black"/>
<path d="M119.9 24.78L124.61 25.01L125.28 29.63L129.8 30.11L130.15 34.68L134.96 35.1V54.64L140.04 54.97L139.9 54.82V59.97L140.04 59.82L135.36 60.03C135.14 61.48 134.92 62.89 134.65 64.64L130.06 64.91V50.13L124.9 49.79L125.04 49.94L124.69 44.86L120.1 45.16L119.89 49.94L120.03 49.79H114.89L115.03 49.94V34.83L109.89 35.22V49.96L110.03 49.81L105.12 50.03V59.57H95.0404V54.84L94.9004 54.98L99.8304 54.75V45.13L104.78 44.61V30.46L109.88 29.46V20.24H119.73C119.83 21.77 119.94 23.36 120.04 24.95H114.97L115.25 29.95L119.9 29.59V24.78Z" fill="black"/>
<path d="M54.5704 54.65H20.1504V20.25H54.5704V54.65ZM25.2804 25.13V49.53H49.6804V25.13H25.2804Z" fill="black"/>
<path d="M20.25 170.13H54.57V204.63H20.29L20.25 170.13ZM49.72 175.39H25.34V199.77H49.72V175.39Z" fill="black"/>
<path d="M204.77 20.22V54.63H170.37V20.22H204.77ZM175.19 49.64H199.69V25.22H175.19V49.64Z" fill="black"/>
<path d="M80.0204 59.82L75.3004 60.04L74.6404 64.62H70.0704V50.29L65.3404 49.82L64.6304 54.6H60.1904V45.31L64.6504 44.58L64.9404 40.21L60.1904 39.61V20.25L64.7804 19.74V29.63L69.7804 30.08L70.1404 34.68L74.9404 35.1V54.64L80.0304 54.97L79.8904 54.82V59.97L80.0204 59.82Z" fill="black"/>
<path d="M80.0099 180.07L69.8799 179.9L70.0199 180.05C69.9399 178.5 69.8599 176.95 69.7599 175.14L64.8799 174.91L65.0199 175.04V169.91L64.8799 170.04H79.8799V164.9L85.0199 165.04L84.8799 164.9C84.9399 166.4 85.0099 167.9 85.0999 169.9H99.7199C99.8799 171.74 100.01 173.14 100.15 174.84L104.75 175.2V179.7H95.1599C95.0399 178.32 94.9099 176.91 94.7499 175.28H90.1699V184.66L94.6999 185.35L94.8999 189.77H85.3999L84.6299 185.4L80.2099 184.69C80.0999 183.17 79.9899 181.57 79.8699 179.97H84.9399L84.6699 174.97L80.0099 175.32V180.07Z" fill="black"/>
<path d="M60.0101 159.89H54.8801L55.0201 160.03L54.8001 155.34L50.2301 154.67V150.13L54.7101 149.76V145.29H45.1001V164.63H40.0101V139.89L39.8701 140.02H54.8701V134.88L65.0201 135.02L64.8901 134.88V139.64L59.8901 140.3L60.2201 144.66L64.9901 145.39V155.03H60.1001L59.8401 160.03L60.0101 159.89Z" fill="black"/>
<path d="M105.04 200.05C104.97 198.57 104.9 197.05 104.81 195.35L100.22 194.68V185.21H104.57L105.34 189.91H110.04V194.98L115.04 194.7C114.91 192.95 114.8 191.56 114.69 190.05H109.91L110.14 185.33L114.74 184.68L115.24 180.21H124.66C124.78 181.55 124.91 182.93 125.06 184.6L120.27 185.3V194.77H124.57C124.78 193.42 125 192 125.28 190.29H134.72V194.56L130.38 195.3C130.19 196.56 129.97 197.99 129.7 199.76H115.57C115.19 201.55 114.87 203.07 114.57 204.57C110.71 205.92 109.12 204.57 110.13 200.31L104.9 199.91L105.04 200.05Z" fill="black"/>
<path d="M105.04 79.98L104.82 75.27L100.22 74.59V65.13H104.57L105.34 69.83H110.04V74.91L115.04 74.63L114.69 69.97H109.91L110.14 65.26L114.73 64.6L115.25 60.15H124.65L125.08 64.49L120.29 65.23V74.67H124.55L125.41 70.09H134.71V74.74L130.2 75.1C130.06 76.79 129.93 78.2 129.79 79.9H115.26C115.13 81.81 115.03 83.4 114.93 84.99L115.07 84.85L109.93 85V80.13L104.93 79.87L105.04 79.98Z" fill="black"/>
<path d="M140.03 180.07H135.32C135.1 181.62 134.9 183.07 134.67 184.71H130.2V175.36L134.7 174.64C134.81 173.11 134.93 171.51 135.05 169.91L134.9 170.04L139.9 169.79V164.89L145.04 165.04L144.9 164.9C145 166.49 145.1 168.08 145.23 170.11H154.91V175.05L155.05 174.91L150.27 175.2V184.69L154.91 185.39V190.06L155.05 189.92H145.38L144.65 185.31L140.22 184.68C140.11 183.11 140 181.52 139.89 179.93H144.96L144.69 174.93L140.03 175.28V180.07Z" fill="black"/>
<path d="M40.0104 139.89H35.0604V149.66H20.1904V130.37L24.5604 129.65L25.2904 125.02H30.0004L29.8604 124.87V135.13H39.8604V140.06L40.0104 139.89Z" fill="black"/>
<path d="M149.9 54.84V64.62L154.73 64.86C154.89 63.17 155.03 61.75 155.18 60.15H159.78V79.56L155.23 80.23C155.13 81.79 155.02 83.39 154.91 84.99L155.05 84.85H144.9L145.04 84.98V79.84L144.91 79.99L149.6 79.78C149.82 78.31 150.03 76.89 150.29 75.18L154.71 74.64V70.02H145.43C145.16 68.35 144.94 66.97 144.67 65.25L140.04 64.56V59.82L139.9 59.97L144.79 59.72C144.88 57.92 144.96 56.37 145.04 54.82L144.91 54.97H150.04L149.9 54.84Z" fill="black"/>
<path d="M99.8696 24.82V29.51L95.1796 30.19C95.1296 33.01 95.0796 36.19 90.3496 34.54L89.6396 30.18L85.0396 29.81V44.61H80.0396V30.33L75.2097 29.57L74.8896 25.09H84.3096L85.3096 20.09H94.5696L95.2496 24.61L99.9897 24.96L99.8696 24.82Z" fill="black"/>
<path d="M199.91 179.93C199.98 181.4 200.05 182.88 200.13 184.63L204.71 185.29V189.8L200.2 190.19V199.64L204.74 200.32C204.81 201.68 204.87 203.08 204.95 204.75H190.22V195.38L194.68 194.69V185.18L190.21 184.8C190.21 181.27 190.21 177.99 190.21 174.71L190.07 174.86L194.68 175.14C194.87 176.64 195.04 178.04 195.26 179.75L200.04 180.07L199.91 179.93Z" fill="black"/>
<path d="M159.89 24.82V29.51L155.2 30.19C155.2 33.01 155.1 36.19 150.38 34.54C150.19 33.39 149.96 31.98 149.67 30.18L145.07 29.81V44.61H140.07V30.33L135.24 29.57L134.92 25.09H144.35L145.35 20.09H154.57L155.25 24.61L159.99 24.96L159.89 24.82Z" fill="black"/>
<path d="M174.92 125.02H184.92V130.02L185.07 129.89L179.91 130.2V145.03L180.05 144.88H169.85V135.03H164.92C164.92 133.31 165.01 131.59 165.06 129.88L164.92 130.02H175.06V124.87L174.92 125.02Z" fill="black"/>
<path d="M185.05 64.98V60.21H204.68C204.78 61.49 204.89 62.86 205.03 64.52L199.92 65.26V74.98L200.06 74.84H194.92L195.06 74.98C194.98 73.43 194.9 71.88 194.81 70.09L189.92 69.83L190.06 69.97C189.98 68.43 189.9 66.88 189.8 65.08L184.92 64.83L185.05 64.98Z" fill="black"/>
<path d="M189.92 135.03H199.67L200.29 139.7C202.8 140.09 206.7 139.45 204.48 144.58L200.36 145.26L199.64 149.89H194.91L195.06 150.03C194.95 148.43 194.84 146.84 194.74 145.27L190.06 144.6V134.88L189.92 135.03Z" fill="black"/>
<path d="M75.1898 199.72L65.4098 200.18C65.1798 201.48 64.9298 202.86 64.6098 204.67L60.2598 205.09V195.21L64.7198 194.77C64.8598 193.23 64.9898 191.82 65.1398 190.21H75.0498V199.87L75.1898 199.72Z" fill="black"/>
<path d="M195.22 129.35L194.77 125.35L190.29 124.66V115.23H199.5L200.42 119.73L204.82 120.2V124.61L200.25 125.25C199.82 127.71 200.57 131.7 195.22 129.35Z" fill="black"/>
<path d="M64.8796 69.98H74.8796V79.98L75.0296 79.84H60.0296V74.84L59.8896 74.98L64.7796 74.73L65.0296 69.83L64.8796 69.98Z" fill="black"/>
<path d="M104.9 199.91V204.69H85.0404V199.93L84.9004 200.08L89.5604 199.87L90.2704 195.26L94.6304 195.01C94.8404 196.68 95.0204 198.08 95.2704 200.01H105.04L104.9 199.91Z" fill="black"/>
<path d="M25.1704 114.81L24.7404 119.68H20.1504V110.3H39.5704L39.9604 114.81H25.1704Z" fill="black"/>
<path d="M135.05 169.91H125.4C125.15 171.53 124.94 172.91 124.67 174.68L120.32 175L119.67 170.21L114.89 169.9L115.03 170.04L114.89 164.9H135.04C134.99 166.62 134.95 168.34 134.9 170.05L135.05 169.91Z" fill="black"/>
<path d="M84.8799 54.97L89.8299 54.79L89.6799 54.65C89.8199 57.78 89.9699 60.9 90.1299 64.39L94.7299 65.32V69.55H85.2999L84.6299 65.21L80.0199 64.58V59.82L79.8799 59.97L84.7699 59.72L85.0199 54.82L84.8799 54.97Z" fill="black"/>
<path d="M114.89 84.98H135.04L134.9 84.83V89.98L135.04 89.84H125.29C125.03 91.84 124.85 93.23 124.64 94.9L120.28 94.64L119.56 89.98H114.89C114.94 88.27 114.99 86.55 115.03 84.83L114.89 84.98Z" fill="black"/>
<path d="M84.8799 79.99H89.5699C89.8299 78.34 90.0499 76.93 90.3199 75.18L94.6799 74.92L95.3299 79.98H105.09L104.94 79.84C104.99 81.56 105.03 83.28 105.08 84.99L84.9299 84.85L85.0699 84.98V79.84L84.8799 79.99Z" fill="black"/>
<path d="M105.03 164.89H84.8799L85.0199 165.03L84.8799 159.88H89.6299C89.8899 157.99 90.0799 156.59 90.2999 154.93L94.6599 155.25L95.3699 159.88H105.03C105.03 161.6 104.94 163.32 104.89 165.03L105.03 164.89Z" fill="black"/>
<path d="M144.73 200.28L149.48 199.81C149.75 198.41 150.05 196.89 150.37 195.22H155.25L155.1 195.08V199.73L159.72 200.2V204.76H145.14C145.04 203.06 144.95 201.59 144.87 200.11L144.73 200.28Z" fill="black"/>
<path d="M174.92 199.92V204.69H165.05V194.92L164.91 195.06H170.05L169.91 194.92L170.16 199.81L175.05 200.07L174.92 199.92Z" fill="black"/>
<path d="M69.8795 179.9V184.67H60.2695V175.04H65.0195L64.8795 174.91L65.1095 179.8L70.0195 180.05L69.8795 179.9Z" fill="black"/>
<path d="M34.8701 125.02L39.5601 124.81L40.2801 120.01H45.0101L44.8701 119.87V129.64H35.0001V124.87L34.8701 125.02Z" fill="black"/>
<path d="M29.8497 159.91V164.66H20.1997L19.9297 160.05H29.9897L29.8497 159.91Z" fill="black"/>
<path d="M165.05 125.02V120.25H174.92V125.02L175.05 124.87H164.91L165.05 125.02Z" fill="black"/>
<path d="M160.22 45.13H164.67V54.66H160.22V45.13Z" fill="black"/>
<path d="M65.0199 169.91H60.0199V159.91L59.8799 160.06L65.0299 159.92C64.9832 163.3 64.9366 166.68 64.8899 170.06L65.0199 169.91Z" fill="black"/>
<path d="M49.8604 69.97H60.0103L59.8703 69.82V74.97L60.0103 74.83H50.0103V69.83L49.8604 69.97Z" fill="black"/>
<path d="M199.92 74.98H204.69V84.85H199.92L200.06 84.98V74.84L199.92 74.98Z" fill="black"/>
<path d="M100.02 24.96V20.18L104.68 19.83L104.95 24.83H99.8701L100.02 24.96Z" fill="black"/>
<path d="M160.04 24.96V20.18L164.7 19.83L164.97 24.83H159.9L160.04 24.96Z" fill="black"/>
<path d="M160.12 39.91V35.13L164.68 34.82C164.79 36.46 164.88 37.82 165 39.55L160.12 39.91Z" fill="black"/>
<path d="M80.0199 54.97V50.19L84.8799 49.87V54.97L85.0199 54.82H79.8799L80.0199 54.97Z" fill="black"/>
<path d="M95.0397 54.84L89.6797 54.66L89.8297 54.79C89.9197 53.34 90.0097 51.89 90.1197 50.18H94.8997V54.98L95.0397 54.84Z" fill="black"/>
<path d="M124.9 49.81V54.6L120.03 54.91V49.81L119.89 49.96H125.04L124.9 49.81Z" fill="black"/>
<path d="M140.04 54.97V50.19L144.91 49.87V54.97L145.04 54.82H139.9L140.04 54.97Z" fill="black"/>
<path d="M150.04 54.98V50.21L154.69 49.85C154.78 51.53 154.86 52.91 154.97 54.85H149.9L150.04 54.98Z" fill="black"/>
<path d="M184.91 130.01H189.91V135.01L190.05 134.86H185.05V129.86L184.91 130.01Z" fill="black"/>
<path d="M30.0003 125.02V120.24L34.8703 119.92V125.02L35.0003 124.87H29.8604L30.0003 125.02Z" fill="black"/>
<path d="M199.92 99.99H204.7C204.8 101.53 204.89 102.92 205.01 104.86H199.92L200.06 105V99.86L199.92 99.99Z" fill="black"/>
<path d="M29.9896 160.05V155.28L34.6496 154.92L34.9296 159.92H29.8496L29.9896 160.05Z" fill="black"/>
<path d="M54.8802 159.88V164.66L50.2202 165.01L49.9502 160.01H55.0202L54.8802 159.88Z" fill="black"/>
<path d="M110.03 169.9H105.03V164.9L104.89 165.05L110.03 164.91C110.03 166.63 109.94 168.34 109.89 170.05L110.03 169.9Z" fill="black"/>
<path d="M135.04 84.99V79.99H140.04L139.9 79.84V84.98L140.04 84.84H134.9L135.04 84.99Z" fill="black"/>
<path d="M74.8701 79.98H80.0201L79.8801 79.83V84.97L80.0201 84.83H75.0201V79.83L74.8701 79.98Z" fill="black"/>
<path d="M114.89 169.9V174.68L110.03 175V169.9L109.89 170.04H115.03L114.89 169.9Z" fill="black"/>
<path d="M114.89 49.81V54.6L110.03 54.91V49.81L109.89 49.96H115.03L114.89 49.81Z" fill="black"/>
<path d="M140.04 79.99V75.2L144.91 74.89V79.99L145.04 79.84H139.9L140.04 79.99Z" fill="black"/>
<path d="M80.0199 79.99V75.2L84.8799 74.89V79.99L85.0199 79.84H79.8799L80.0199 79.99Z" fill="black"/>
<path d="M200.05 180.07V175.29L204.71 174.94C204.8 176.62 204.88 178 204.98 179.94H199.91L200.05 180.07Z" fill="black"/>
<path d="M85.0396 199.93H79.8896L80.0296 200.07V195.3L84.8996 195V200.13L85.0396 199.93Z" fill="black"/>
<path d="M60.0101 69.98V65.2L64.8801 64.88V69.98L65.0101 69.83H59.8701L60.0101 69.98Z" fill="black"/>
<path d="M140.05 200.05V195.33L144.74 194.88V200.27L144.87 200.12L139.87 199.91L140.05 200.05Z" fill="black"/>
<path d="M180.07 64.84H175.3C175.18 63.33 175.08 61.94 174.94 60.18L179.94 59.91V64.98L180.07 64.84Z" fill="black"/>
<path d="M79.8903 199.91V204.65L75.1803 205.12V199.72C75.1803 199.72 75.0403 199.88 75.0503 199.87L80.0503 200.05L79.8903 199.91Z" fill="black"/>
<path d="M139.91 199.91V204.68L135.25 205.04C135.16 203.36 135.08 201.97 134.98 200.04H140.05L139.91 199.91Z" fill="black"/>
<path d="M105.03 159.89H95.3699L94.6599 155.26L90.2999 154.94C90.0799 156.6 89.8899 158 89.6299 159.89H84.8799L85.0199 160.04L84.6799 154.96L79.8799 155.27V160.04L80.0199 159.9H75.2899L74.5699 154.9H64.8699L65.0199 155.04V145.4L60.2499 144.67L59.9199 140.31L64.9199 139.65V134.89H74.7799C74.8899 136.89 74.9799 138.46 75.0699 140.02H70.2899V150.02L74.9299 149.61V139.87L80.0499 140.04L79.9099 139.9C79.9799 141.38 80.0499 142.9 80.1299 144.61L84.7299 145.27L85.2299 149.73H94.5699L94.9899 145.37L90.1999 144.64V135.19H94.4699C94.7299 136.59 95.0199 138.13 95.3299 139.78H104.63V135.13L100.12 134.78L99.7099 129.97H84.9999V124.88L84.8499 125.02L105 124.88V129.88H110V134.98L114.86 134.66V129.88L119.64 130.19L120.29 134.98L124.64 134.66L125.35 130.03H135.01L134.86 129.89V134.59L130.2 135.27V144.75H134.57C134.79 143.41 135.03 142 135.35 140.05H140.04L139.9 139.91C139.97 141.38 140.04 142.91 140.12 144.6L144.69 145.28C144.87 146.66 145.05 148.07 145.28 149.94H154.76V154.55L150.34 155.27C150.14 156.57 149.93 157.98 149.64 159.9H144.91L145.05 160.05C144.95 158.45 144.84 156.85 144.71 154.97L139.91 155.28V160.05L140.05 159.91L135.16 160.16C135.07 161.95 134.99 163.5 134.91 165.05L135.05 164.9H114.9L115.04 165.04V159.95H129.76C129.9 158.24 130.03 156.84 130.17 155.14L134.68 154.79V150.13H125.38C125.07 151.78 124.78 153.32 124.52 154.72H120.26V145.28L125.05 144.54C124.88 142.88 124.75 141.54 124.62 140.19H115.22L114.7 144.65L110.11 145.3L109.88 150.02L110.03 149.88H105.33L104.56 145.18H100.23V154.65L104.9 155.34V160.04L105.03 159.89Z" fill="white"/>
<path d="M84.8796 84.85L105.03 84.99L104.89 84.84L105.14 89.74L110.03 89.99L109.89 89.85L110.23 94.93L115.03 94.62V89.85L114.89 89.99H119.57L120.29 94.65L124.65 94.91C124.86 93.24 125.04 91.84 125.3 89.85H135.05V94.52L130.24 95.23V104.71H134.57C134.79 103.37 135.03 101.96 135.35 100.01H140.04L139.9 99.87C139.96 101.34 140.03 102.81 140.11 104.54L144.65 105.24L145.31 109.83H154.74C154.87 111.83 154.96 113.42 155.06 115.01H150.37L149.64 119.86H144.91L145.05 120.01C144.95 118.41 144.84 116.81 144.71 114.93L139.91 115.24V120.01L140.05 119.87L135.16 120.12C135.07 121.91 134.99 123.46 134.91 125.01L135.05 124.87L114.91 125.02L115.2 119.93H129.76C129.9 118.22 130.03 116.81 130.17 115.12L134.68 114.76V110.13H125.38L124.52 114.71H120.26V105.27L125.05 104.53L124.57 100.13H115.17C114.98 101.77 114.82 103.18 114.65 104.59L110.06 105.25L109.83 109.96L109.98 109.82H105.28L104.57 105.13H100.25V114.6L105.05 115.32V120H95.2997C95.0397 118 94.8596 116.59 94.6396 114.92L90.2896 115.19L89.5596 119.85H84.8996L85.0396 119.99L84.6996 114.91L79.8996 115.22V119.99L80.0396 119.85H69.8996V124.99L70.0296 124.84H65.0296V114.84L64.8896 114.98L69.7896 114.76V105.24L74.6996 104.6L75.0296 99.83L74.8896 99.97H80.0096L79.8696 99.83L80.0896 104.54L84.6896 105.2L85.1896 109.66H94.5696L94.9897 105.3L90.1996 104.57V95.13H94.4696L95.3297 99.71H104.63V95.13L100.12 94.78L99.7097 89.97H85.1696L84.8796 84.85Z" fill="white"/>
<path d="M185.06 129.88V134.88H190.06V144.6L194.74 145.27C194.84 146.84 194.95 148.43 195.06 150.03H190.06V159.67H180.42C180.16 158.37 179.86 156.85 179.52 155.18L175.31 154.76L174.62 150.26H170.11V159.56H160.28V150.18L164.66 149.75V145.06H150.3V135.06H160L159.86 134.91L160.2 139.99L165 139.68V134.91L164.86 135.06H169.79V144.9H179.99V149.98L184.99 149.71C184.85 147.95 184.75 146.56 184.63 145.05H179.86V130.19L185.06 129.88Z" fill="white"/>
<path d="M165.29 165.06H179.57V179.63H165.27L165.29 165.06ZM174.8 170.25H170.26V174.7H174.8V170.25Z" fill="white"/>
<path d="M154.91 190.06V185.39L150.27 184.69V175.2L155.05 174.91V179.57L159.68 180.27V189.76L154.91 190.06Z" fill="white"/>
<path d="M154.91 175.05V170.13H145.23C145.1 168.13 145 166.51 144.9 164.92H159.62V174.77L154.91 175.05Z" fill="white"/>
<path d="M144.73 125.22H154.73V129.74H145.29C145.16 128.19 145.02 126.63 144.89 125.06C144.84 125.116 144.787 125.17 144.73 125.22Z" fill="white"/>
<path d="M164.91 124.87H175.05V130.02H164.91V124.87Z" fill="white"/>
<path d="M139.89 124.87V129.87H134.89L135.04 130.01V124.86L134.9 125H140.04L139.89 124.87Z" fill="white"/>
<path d="M144.9 119.86C144.85 121.64 144.8 123.43 144.74 125.22C144.74 125.22 144.88 125.06 144.87 125.06C143.21 125.01 141.55 124.94 139.87 124.87L140.02 125.01V119.87L139.88 120.01H145.02L144.9 119.86Z" fill="white"/>
<path d="M165.05 129.88C165.05 131.59 164.96 133.31 164.91 135.03L165.05 134.88H159.91L160.05 135.03V130.13L165.05 129.88Z" fill="white"/>
<path d="M140.03 140.04V135.27L144.69 134.91C144.78 136.59 144.86 137.97 144.96 139.91H139.89L140.03 140.04Z" fill="white"/>
<path d="M145.04 165.04L139.9 164.89L140.04 165.04V159.9L139.9 160.04H145.04L144.9 159.89C144.95 161.61 145 163.32 145.04 165.04Z" fill="white"/>
<path d="M170.05 195.06H164.91V190.29L169.71 189.98C169.83 191.87 169.94 193.46 170.05 195.06Z" fill="white"/>
<path d="M175.05 200.07L170.16 199.81L169.91 194.92L174.8 195.17C174.89 196.97 174.97 198.52 175.05 200.07Z" fill="white"/>
<path d="M75.0196 79.84V84.84H80.0196V89.84H50.0196V94.84L50.1596 94.68L44.8496 95.03V70.13L49.9896 69.82V74.82H59.9896V79.82L75.0196 79.84ZM50.3396 80.16C49.0996 84.47 50.6796 85.61 54.6996 84.55V80.13L50.3396 80.16Z" fill="white"/>
<path d="M29.8604 124.87H35.0003V129.64H44.8703V119.87L50.0003 120.03L49.8604 119.88L50.0703 124.57L54.8604 125.29V130.01L55.0103 129.88L49.9303 130.22L50.2404 135.02H55.0103L54.8604 134.88V140.02H39.8604V135.13H29.8604V124.87Z" fill="white"/>
<path d="M55.0201 104.98V100.4L50.17 99.56V94.65L50.04 94.8H59.63V104.8H54.88L55.0201 104.98Z" fill="white"/>
<path d="M79.8799 124.87V129.64H70.0099V124.86L69.8799 125.01H80.0199L79.8799 124.87Z" fill="white"/>
<path d="M75.0296 99.87H65.2997L64.8896 95.23H74.8896V100.01L75.0296 99.87Z" fill="white"/>
<path d="M65.0103 135.02L54.8604 134.88L55.0103 135.02V129.88L54.8604 130.01H64.7203L65.0103 135.02Z" fill="white"/>
<path d="M50.0003 120.03V115.25L54.6603 114.9L54.9303 119.9H49.8604L50.0003 120.03Z" fill="white"/>
<path d="M85.0299 124.87H79.8799L80.0199 125.01V119.87L79.8799 120.01H85.0199L84.8799 119.87V125.01L85.0299 124.87Z" fill="white"/>
<path d="M65.0302 114.88H60.2602L59.9102 110.22L64.9102 109.95V115.02L65.0302 114.88Z" fill="white"/>
<path d="M80.0101 140.04V135.27L84.6701 134.91L84.9401 139.91H79.8701L80.0101 140.04Z" fill="white"/>
<path d="M54.8802 104.84V109.61L50.2302 109.97L49.9502 104.97H55.0202L54.8802 104.84Z" fill="white"/>
<path d="M80.0101 100.01V95.24L84.6701 94.88L84.9401 99.88H79.8701L80.0101 100.01Z" fill="white"/>
<path d="M79.8799 79.84H85.0199V84.98H79.8799V79.84Z" fill="white"/>
<path d="M164.92 94.84V104.59H150.29V95.13L154.44 94.94L155.37 99.78H159.62C159.83 98.37 160.04 96.96 160.33 95.03H165.07L164.92 94.84Z" fill="white"/>
<path d="M180.04 85V80.32L175.28 79.59V75.13H184.57L185.35 79.47L189.74 80.19L190.06 84.83H179.94L180.04 85Z" fill="white"/>
<path d="M144.9 84.85H155.05V89.61H145.2L144.9 84.85Z" fill="white"/>
<path d="M189.76 100.19V104.58H180.24C180.18 103.24 180.12 101.86 180.04 100.19H189.76Z" fill="white"/>
<path d="M200.06 74.84V84.98H194.92V74.84H200.06Z" fill="white"/>
<path d="M200.06 99.86V105H195.3C195.19 103.33 195.1 101.93 194.99 100.2L200.06 99.86Z" fill="white"/>
<path d="M140.03 100.01V95.24L144.69 94.88C144.78 96.56 144.86 97.95 144.96 99.88H139.89L140.03 100.01Z" fill="white"/>
<path d="M134.9 84.84H140.04C139.96 86.39 139.88 87.94 139.79 89.74L134.9 89.99V84.84Z" fill="white"/>
<path d="M139.9 79.84H145.04V84.98H139.9V79.84Z" fill="white"/>
<path d="M189.92 69.83L194.81 70.09C194.9 71.88 194.98 73.43 195.06 74.98L190.17 74.73C190.08 72.93 190 71.38 189.92 69.83Z" fill="white"/>
<path d="M184.92 64.83L189.8 65.08C189.9 66.88 189.98 68.43 190.06 69.97L185.17 69.72C185.08 67.93 185 66.38 184.92 64.83Z" fill="white"/>
<path d="M115.03 49.96H109.89V35.22L115.03 34.83V49.96Z" fill="white"/>
<path d="M119.9 24.78V29.56L115.25 29.92L114.97 24.92H120.04L119.9 24.78Z" fill="white"/>
<path d="M125.04 49.96H119.89L120.1 45.18L124.69 44.88L125.04 49.96Z" fill="white"/>
<path d="M139.9 54.82H145.04C144.96 56.37 144.88 57.92 144.79 59.72L139.9 59.97V54.82Z" fill="white"/>
<path d="M25.2803 25.13H49.6803V49.53H25.2803V25.13ZM44.6603 44.68V30.2H30.3003V44.65L44.6603 44.68Z" fill="white"/>
<path d="M49.7198 175.34V199.72H25.3398V175.34H49.7198ZM30.1498 194.73H44.6299V180.33H30.1498V194.73Z" fill="white"/>
<path d="M175.19 49.64V25.22H199.69V49.64H175.19ZM194.7 44.79V30.22H180.37V44.79H194.7Z" fill="white"/>
<path d="M79.8799 54.82H85.0199L84.7699 59.72L79.8799 59.97V54.82Z" fill="white"/>
<path d="M64.8801 170.04C64.9201 166.66 64.9668 163.28 65.0201 159.9L64.8701 160.04H69.5701L70.2801 165.04H79.9801L79.8401 164.9V170.04H64.8801Z" fill="white"/>
<path d="M84.8799 159.89L85.0199 165.04L79.8799 164.9L80.0199 165.04V159.9L79.8799 160.04H85.0199L84.8799 159.89Z" fill="white"/>
<path d="M70.0199 180.05L65.1099 179.8L64.8799 174.91L69.7599 175.14C69.8599 176.95 69.9399 178.5 70.0199 180.05Z" fill="white"/>
<path d="M80.0101 180.07V175.29L84.6701 174.94L84.9401 179.94H79.8701L80.0101 180.07Z" fill="white"/>
<path d="M65.0201 159.9L59.8701 160.04L60.1301 155.04H65.0201L64.8701 154.9V160.05L65.0201 159.9Z" fill="white"/>
<path d="M109.87 190.05H114.65C114.76 191.56 114.87 192.95 115 194.7L110 194.98V189.91L109.87 190.05Z" fill="white"/>
<path d="M115.03 84.84C115.03 86.56 114.94 88.28 114.89 89.99L115.03 89.85H109.89L110.03 89.99V84.84L109.89 84.99L115.03 84.84Z" fill="white"/>
<path d="M105.03 84.99C105.03 83.28 104.94 81.56 104.89 79.84L109.89 80.1V84.99L110.03 84.84H104.89L105.03 84.99Z" fill="white"/>
<path d="M109.87 69.96H114.65L115 74.62L110 74.9V69.82L109.87 69.96Z" fill="white"/>
<path d="M134.9 170.04C134.9 168.33 134.99 166.61 135.04 164.89L134.9 165.04H140.04L139.9 164.89V169.79L134.9 170.04Z" fill="white"/>
<path d="M140.03 180.07V175.29L144.69 174.94L144.96 179.94H139.89L140.03 180.07Z" fill="white"/>
<path d="M59.8701 69.83H65.0101L64.7601 74.73L59.8701 74.98V69.83Z" fill="white"/>
<path d="M115.03 170.04H109.89C109.94 168.33 109.99 166.62 110.03 164.9L109.89 165.04H115.03L114.89 164.9C114.94 166.61 114.99 168.33 115.03 170.04Z" fill="white"/>
<path d="M110.03 164.9L104.89 165.04C104.94 163.33 104.98 161.61 105.03 159.89L104.89 160.04H109.89V165.04L110.03 164.9Z" fill="white"/>
<path d="M109.89 165.04V160.04H104.89V155.34L100.22 154.65V145.18H104.57L105.34 149.88H110.04V154.95L115.04 154.68L114.69 150.02H109.91L110.14 145.3L114.73 144.65L115.25 140.19H124.65C124.78 141.5 124.91 142.88 125.08 144.54L120.29 145.28V154.72H124.55C124.81 153.32 125.1 151.78 125.41 150.13H134.71V154.79L130.2 155.14C130.06 156.84 129.93 158.24 129.79 159.95H115.07V165.04H109.89Z" fill="black"/>
<path d="M84.8799 125.01V119.87H89.5699L90.2999 115.21L94.6499 114.94C94.8699 116.61 95.0499 118.02 95.3099 120.02H105.06L104.92 119.87V125.01L105.06 124.87L84.8799 125.01Z" fill="black"/>
<path d="M135.04 124.87V130.02H125.38L124.67 134.65L120.32 134.97L119.67 130.18L114.89 129.87L115.03 130.02V124.87L114.9 125.02L135.04 124.87Z" fill="black"/>
<path d="M64.8701 160.04V154.89H74.5701L75.2901 159.89H80.0201V165.03H70.3201L69.6101 160.03L64.8701 160.04Z" fill="black"/>
<path d="M74.89 139.87V149.61L70.25 150.02V140.02H75.03L74.89 139.87Z" fill="black"/>
<path d="M110.03 129.87H105.03V124.87L104.89 125.01H110.03L109.89 124.87V130.02L110.03 129.87Z" fill="black"/>
<path d="M114.89 129.87V134.65L110.03 134.97V129.87L109.89 130.02H115.03L114.89 129.87Z" fill="black"/>
<path d="M85.0199 160.04H79.8799V155.27L84.6799 154.96L85.0199 160.04Z" fill="black"/>
<path d="M145.04 160.04H139.9V155.27L144.7 154.96C144.83 156.84 144.94 158.44 145.04 160.04Z" fill="black"/>
<path d="M140.04 165.04H134.9C134.98 163.49 135.06 161.94 135.15 160.15L140.04 159.9V165.04Z" fill="black"/>
<path d="M105.03 120.02V115.34L100.23 114.62V105.13H104.57L105.34 109.83H110.04V114.9L115.04 114.63L114.69 109.97H109.91L110.14 105.26L114.73 104.6C114.9 103.19 115.06 101.78 115.25 100.14H124.65L125.08 104.49L120.29 105.23V114.67H124.55L125.41 110.09H134.71V114.74L130.2 115.1C130.06 116.79 129.93 118.2 129.79 119.91H115.23L114.94 125L115.07 124.85H109.93L110.07 124.99L109.82 120.1L104.93 119.85L105.03 120.02Z" fill="black"/>
<path d="M80.0199 119.87V125.01H69.8799V119.87H80.0199Z" fill="black"/>
<path d="M145.04 120.01H139.9V115.24L144.7 114.93C144.83 116.81 144.94 118.41 145.04 120.01Z" fill="black"/>
<path d="M85.0199 120.01H79.8799V115.24L84.6799 114.93L85.0199 120.01Z" fill="black"/>
<path d="M140.04 119.87V125.01H134.9C134.98 123.46 135.06 121.91 135.15 120.12L140.04 119.87Z" fill="black"/>
<path d="M109.89 89.85H115.03V94.62L110.23 94.93L109.89 89.85Z" fill="black"/>
<path d="M104.89 84.84H110.03V89.99L105.14 89.74L104.89 84.84Z" fill="black"/>
<path d="M159.91 134.88H165.05V139.65L160.25 139.96L159.91 134.88Z" fill="black"/>
<path d="M179.9 145.02H184.67C184.79 146.53 184.89 147.92 185.03 149.68L180.03 149.95V144.87L179.9 145.02Z" fill="black"/>
<path d="M174.8 170.25V174.7H170.26V170.25H174.8Z" fill="black"/>
<path d="M50.3398 80.13H54.6998V84.52C50.6798 85.61 49.0998 84.47 50.3398 80.13Z" fill="black"/>
<path d="M55.0097 129.88V135.02H50.2397L49.9297 130.22L55.0097 129.88Z" fill="black"/>
<path d="M44.6598 44.65H30.2998V30.2H44.6598V44.65Z" fill="black"/>
<path d="M30.1504 194.73V180.33H44.6304V194.73H30.1504Z" fill="black"/>
<path d="M194.7 44.79H180.37V30.22H194.7V44.79Z" fill="black"/>
<path d="M109.87 150.02H114.65L115 154.68L110 154.95V149.88L109.87 150.02Z" fill="white"/>
<path d="M104.89 119.87L109.78 120.12L110.03 125.01H104.89V119.87Z" fill="white"/>
<path d="M109.89 124.87H115.03V130.02H109.89V124.87Z" fill="white"/>
<path d="M109.87 109.99H114.65L115 114.65L110 114.92V109.85L109.87 109.99Z" fill="white"/>
</g>
<defs>
<clipPath id="clip0_36_1349">
<rect width="225" height="225" fill="white"/>
</clipPath>
</defs>
</svg>
