<svg width="27" height="27" viewBox="0 0 27 27" fill="none" xmlns="http://www.w3.org/2000/svg">
<path d="M9.63065 27L9.45303 26.9262C9.08625 26.8318 8.76489 26.6164 8.54418 26.3172C8.32345 26.0179 8.21718 25.6534 8.24365 25.2864C8.30285 23.8105 8.39167 22.3347 8.47201 20.8588C8.52275 19.8995 8.58196 18.9443 8.6327 17.9891C8.65807 17.5012 8.55656 17.3577 8.07449 17.1692C5.77411 16.3165 3.47376 15.4678 1.17338 14.6028C0.958456 14.5358 0.759535 14.4277 0.588377 14.285C0.417218 14.1422 0.277312 13.9677 0.176817 13.7717C0.0763229 13.5757 0.0173086 13.3622 0.00327378 13.1437C-0.0107611 12.9253 0.0204219 12.7063 0.0950526 12.4997C0.192515 12.2279 0.360365 11.9848 0.582492 11.7939C0.804619 11.6029 1.07358 11.4705 1.36364 11.4092C3.24962 10.9255 5.13141 10.4335 7.01315 9.94567L8.50582 9.55621C8.97097 9.43732 9.08094 9.31024 9.10631 8.85109C9.23599 6.49518 9.36427 4.13791 9.49113 1.77928C9.54187 0.807672 10.0408 0.172226 10.9373 0.0287398C11.28 -0.0350381 11.6347 0.00795132 11.9507 0.151548C12.2667 0.295144 12.5277 0.531988 12.6964 0.828167L14.8107 4.01354L16.6925 6.82178C16.9842 7.25634 17.1153 7.30963 17.6524 7.17844L24.7945 5.32542C25.0121 5.25856 25.2414 5.23509 25.4686 5.25643C25.6958 5.27777 25.9162 5.34347 26.1165 5.44957C26.3168 5.55568 26.4929 5.69997 26.6342 5.8738C26.7755 6.04762 26.879 6.24738 26.9385 6.46101C27.0155 6.73461 27.0203 7.02261 26.9523 7.29845C26.8843 7.57429 26.7458 7.82909 26.5494 8.03935C25.6107 9.15034 24.6846 10.2695 23.7501 11.3846L21.9106 13.5902C21.5935 13.9715 21.585 14.1273 21.8557 14.5331C23.2004 16.5419 24.5493 18.5425 25.8856 20.5554C26.0496 20.7675 26.1582 21.015 26.202 21.2767C26.2458 21.5383 26.2235 21.8064 26.1371 22.0579C26.0506 22.3094 25.9025 22.5368 25.7055 22.7207C25.5085 22.9045 25.2685 23.0394 25.006 23.1136C24.5671 23.2238 24.1024 23.1832 23.6909 22.9988L17.0012 20.5103C16.3965 20.2849 16.2992 20.3095 15.8806 20.8055C14.4259 22.5478 12.9628 24.2902 11.5166 26.0407C11.1992 26.4903 10.7342 26.8226 10.1973 26.9836L9.63065 27ZM9.57991 21.4655C9.51225 22.6654 9.44602 23.8652 9.38118 25.065C9.36849 25.1822 9.36849 25.3004 9.38118 25.4176C9.39373 25.5156 9.43392 25.6084 9.49737 25.6858C9.56083 25.7631 9.64506 25.822 9.74081 25.8559C9.83655 25.8898 9.94011 25.8974 10.04 25.878C10.14 25.8585 10.2324 25.8127 10.3072 25.7455C10.3976 25.6675 10.4797 25.581 10.5525 25.4872L15.1067 20.0307C15.338 19.688 15.6914 19.44 16.0995 19.3341C16.5075 19.2283 16.9414 19.2719 17.3183 19.4567L21.7372 21.0966L24.2744 22.0395C24.3885 22.0919 24.5173 22.1062 24.6406 22.0801C24.7639 22.054 24.8749 21.989 24.9561 21.8953C25.0373 21.8016 25.0841 21.6845 25.0893 21.5622C25.0945 21.44 25.0578 21.3195 24.9849 21.2196L24.8411 21.0023L20.9761 15.2301C20.3545 14.3036 20.3926 13.6927 21.1157 12.8277L25.653 7.39981C25.8517 7.16204 25.9912 6.91198 25.7967 6.6209C25.6022 6.32983 25.3147 6.35032 25.006 6.42821L17.9907 8.24843C16.9251 8.52311 16.3373 8.30172 15.7284 7.39571L11.7704 1.4882C11.6055 1.23402 11.4109 1.07824 11.0769 1.13564C10.7428 1.19303 10.654 1.4718 10.654 1.76697C10.6244 2.34911 10.5948 2.93536 10.5609 3.5175C10.4679 5.30083 10.3834 7.08416 10.2734 8.84698C10.2142 9.89238 9.78289 10.3679 8.73842 10.6385L3.6894 11.9504C2.99167 12.1308 2.29394 12.307 1.57508 12.4956C1.45879 12.5229 1.35475 12.586 1.27852 12.6754C1.2023 12.7649 1.15798 12.8758 1.15221 12.9917C1.14193 13.1098 1.17194 13.228 1.23764 13.3279C1.30334 13.4279 1.40114 13.5042 1.51592 13.5451C1.59626 13.582 1.68082 13.6107 1.76116 13.6394L8.47624 16.1361C9.44037 16.4968 9.80823 17.0134 9.76595 18.0055C9.71098 19.1739 9.63911 20.3218 9.57991 21.4655Z" fill="#44239D"/>
</svg>
