<svg width="27" height="26" viewBox="0 0 27 26" fill="none" xmlns="http://www.w3.org/2000/svg">
<path d="M26.0034 8.94037V12.748C25.9871 12.7664 25.9734 12.7869 25.9627 12.8091C25.7049 13.6635 25.1568 14.0758 24.2668 14.0806H23.8299V20.5377C23.8299 21.8058 23.8353 23.0739 23.8299 24.342C23.8251 25.1435 23.3747 25.7233 22.6088 25.9484C22.5708 25.9629 22.5339 25.9799 22.4982 25.9993H3.5038C2.38652 25.6453 2.15384 24.9143 2.1613 23.9846C2.1864 20.7974 2.17079 17.6048 2.17079 14.4149V14.0806H1.72239C0.672266 14.0738 0.00135675 13.397 0 12.3418C0 11.3604 0 10.3789 0 9.39743C0 8.24461 0.657345 7.58277 1.80583 7.58209H6.19762C6.28106 7.58209 6.36517 7.5753 6.51441 7.56852C6.1542 7.39492 5.86114 7.26472 5.57826 7.11486C4.41689 6.50455 3.39458 5.7247 2.704 4.57935C2.29087 3.89444 2.05954 3.15528 2.2115 2.35035C2.42247 1.23348 3.16122 0.558741 4.20863 0.272572C6.64331 -0.394025 8.79375 0.162718 10.6016 1.93534C11.6734 2.98643 12.3593 4.28233 12.8864 5.67113C12.9169 5.75115 12.9495 5.82981 12.9725 5.88745C13.3348 5.1483 13.6509 4.39558 14.0579 3.7005C15.2688 1.63357 16.9675 0.246126 19.4462 0.0318388C20.4713 -0.0563174 21.4814 0.0250564 22.4087 0.518053C23.4982 1.09514 24.0103 2.18489 23.7695 3.39195C23.627 4.10669 23.2716 4.71633 22.8083 5.26697C21.9834 6.24618 20.9346 6.91278 19.7773 7.42747C19.6993 7.46206 19.6233 7.50342 19.546 7.54208L19.5602 7.58277H19.837C21.31 7.58277 22.7825 7.58277 24.2545 7.58277C25.1466 7.58277 25.7158 8.01812 25.9634 8.87595C25.9741 8.89896 25.9875 8.92059 26.0034 8.94037ZM3.25415 14.1104V24.1975C3.25415 24.74 3.43664 24.9204 3.98951 24.9204H12.44V14.1104H3.25415ZM13.5654 14.1138V24.9238H22.0261C22.5729 24.9238 22.7533 24.7414 22.7533 24.1921V14.1138H13.5654ZM12.4414 13.0017V8.67997H12.2032C8.70827 8.67997 5.21352 8.67816 1.719 8.67455C1.2828 8.67455 1.0854 8.87799 1.08336 9.31538C1.07997 10.3054 1.08336 11.2948 1.08336 12.2849C1.08336 12.8165 1.26924 13.0017 1.79972 13.0017H12.4414ZM13.5607 13.0017H24.279C24.7097 13.0017 24.9221 12.7982 24.9241 12.3669C24.9286 11.3516 24.9286 10.3362 24.9241 9.3208C24.9241 8.86917 24.7206 8.67455 24.2688 8.67455C20.7987 8.67455 17.3293 8.6759 13.8605 8.67861H13.562L13.5607 13.0017ZM12.3613 7.62345C11.9482 5.9356 11.36 4.42745 10.2896 3.14783C9.18721 1.82887 7.77958 1.11955 6.05176 1.09039C5.41341 1.07886 4.78321 1.14803 4.19845 1.42945C3.38983 1.82209 3.07235 2.53073 3.35252 3.38585C3.45891 3.69677 3.60677 3.99193 3.7921 4.26334C4.19913 4.87026 4.75675 5.32461 5.36661 5.71521C6.70572 6.57236 8.18728 7.05179 9.74144 7.30744C10.5901 7.44849 11.4489 7.51631 12.3613 7.62345ZM13.6556 7.56446C13.7686 7.57046 13.8819 7.57046 13.9948 7.56446C14.8503 7.4668 15.7132 7.4051 16.5598 7.25523C18.0352 6.99483 19.4381 6.50929 20.7012 5.68062C21.4305 5.20186 22.0729 4.63224 22.482 3.8429C22.6855 3.44484 22.8144 3.02305 22.735 2.57142C22.6054 1.83362 22.0776 1.46268 21.4176 1.28298C19.9252 0.876106 18.4843 1.06395 17.1812 1.90075C15.1243 3.21835 14.2764 5.31104 13.6556 7.56446Z" fill="#44239D"/>
</svg>
