<svg width="243" height="247" viewBox="0 0 243 247" fill="none" xmlns="http://www.w3.org/2000/svg">
<g clip-path="url(#clip0_44_1075)">
<path d="M0 33.3726C0.220458 32.3007 0.425158 31.2287 0.67711 30.1646C1.88219 24.8628 4.64863 20.0448 8.61861 16.334C12.5886 12.6232 17.5795 10.1902 22.9457 9.34973C28.3119 8.50928 33.8066 9.30005 38.7191 11.6197C43.6315 13.9394 47.7356 17.6813 50.5007 22.3614L51.2093 23.5279C51.5235 22.8838 51.7664 22.2072 51.9337 21.5101C52.0533 20.0651 52.6667 18.7055 53.6705 17.6604C54.6744 16.6152 56.0075 15.9483 57.4451 15.772C58.1969 15.6512 58.9078 15.3481 59.5158 14.8892C60.6482 14.0126 62.0449 13.5483 63.4761 13.5726C64.9073 13.597 66.2875 14.1086 67.3894 15.0232C67.8931 15.4144 68.4902 15.667 69.1215 15.7562C70.6074 15.8885 71.9971 16.5483 73.0396 17.6165C74.0821 18.6847 74.7087 20.0909 74.8062 21.5811C74.8749 22.1253 75.096 22.6391 75.4439 23.0629C76.402 24.177 76.9355 25.5944 76.9499 27.0644C76.9643 28.5344 76.4587 29.962 75.5227 31.0947C75.1324 31.5955 74.8824 32.1913 74.7983 32.8209C74.666 34.2852 74.0217 35.6557 72.9789 36.691C71.936 37.7263 70.5616 38.3599 69.0979 38.4802C68.5083 38.5444 67.9489 38.7739 67.4838 39.1423C66.3507 40.1193 64.9048 40.6567 63.4093 40.6567C61.9138 40.6567 60.4679 40.1193 59.3347 39.1423C58.856 38.8161 58.3226 38.5785 57.76 38.4408C56.6814 38.1019 55.5869 37.826 54.4138 37.4949C54.2012 38.8428 54.0359 40.3561 53.7131 41.838C52.3678 48.0921 48.8587 53.6694 43.8051 57.5853C38.7516 61.5013 32.4786 63.504 26.0934 63.24C19.7083 62.976 13.6216 60.4623 8.90782 56.1426C4.19402 51.8229 1.15623 45.9749 0.330674 39.631C0.274656 39.3799 0.195594 39.1345 0.0944782 38.8979L0 33.3726ZM4.51938 36.1392C4.50692 40.6243 5.82468 45.012 8.30563 48.7466C10.7866 52.4812 14.319 55.3945 18.4555 57.1173C22.592 58.8401 27.1462 59.295 31.5411 58.4242C35.936 57.5534 39.9738 55.3962 43.1429 52.2259C46.312 49.0556 48.4697 45.0149 49.3426 40.6159C50.2155 36.2168 49.7643 31.6573 48.0462 27.5151C46.3281 23.373 43.4205 19.8346 39.6917 17.3484C35.9629 14.8621 31.5808 13.5399 27.1006 13.5493C21.1208 13.57 15.3916 15.9562 11.1617 20.1877C6.93188 24.4192 4.54428 30.1529 4.51938 36.1392ZM58.2246 20.3199C56.9569 20.3199 56.3113 21.187 56.6499 22.4639C57.0436 24.1585 56.8152 24.7418 55.3744 25.6167C53.9335 26.4916 53.965 27.7133 55.3744 28.5961C56.7837 29.4789 57.0514 30.1095 56.6814 31.6622C56.3113 33.215 57.1223 34.1766 58.7206 33.8298C60.5551 33.4278 60.8622 33.5539 61.9487 35.217C62.7361 36.423 64.0037 36.4072 64.7989 35.217C65.8461 33.6012 66.1611 33.4672 68.0507 33.8771C69.5545 34.2002 70.4679 33.278 70.0978 31.8041C69.6805 30.1173 69.9167 29.5183 71.3655 28.6513C72.8142 27.7843 72.7748 26.5625 71.3655 25.6797C69.9561 24.7969 69.6726 24.1506 70.0584 22.6215C70.4679 20.9505 69.5782 20.0204 67.909 20.4933C67.3293 20.7244 66.6819 20.7165 66.1081 20.4714C65.5342 20.2262 65.0806 19.7637 64.8462 19.1849C64.0588 17.7662 62.6967 17.7662 61.8936 19.1849C61.185 20.4303 60.2559 20.9742 58.8387 20.4776C58.638 20.4103 58.4328 20.3576 58.2246 20.3199Z" fill="#6D6E71"/>
<path d="M88.829 4.19188e-06C89.4636 0.466891 90.0733 0.966776 90.6556 1.4976C96.9544 7.75595 103.206 14.0458 109.552 20.2884C110.006 20.6997 110.363 21.2061 110.598 21.7716C110.834 22.337 110.942 22.9475 110.914 23.5595C110.851 27.7054 110.914 38.9452 110.914 43.1779H106.426V24.8679H89.1912C86.6008 24.8679 85.9315 24.1822 85.9315 21.5496C85.9315 16.3789 85.9315 11.2135 85.9315 6.05342V4.5716H20.4476L20.3216 6.67611H15.9046C15.8176 5.05793 15.8412 3.4357 15.9754 1.82076C16.0699 1.15079 16.9596 0.599045 17.495 -0.00787354L88.829 4.19188e-06ZM90.569 8.06335V20.2332H102.773L90.569 8.06335Z" fill="#6D6E71"/>
<path d="M69.6726 123.133C69.6779 123.923 69.4175 124.692 68.9333 125.315C68.4491 125.939 67.7693 126.381 67.0035 126.57H28.4627C25.1952 126.57 21.9276 126.57 18.6601 126.57C16.6445 126.57 15.8651 125.782 15.8572 123.756V68.9443C15.8572 68.6054 15.8572 68.2665 15.9202 67.8645H20.3293V121.983H67.8617" fill="#6D6E71"/>
<path d="M67.791 92.6536V97.1148H56.6185V110.664H83.6009V115.157C83.1521 115.157 82.727 115.22 82.294 115.22H55.1304C52.6896 115.22 51.981 114.526 51.981 112.067C51.981 106.644 51.981 101.216 51.981 95.7827C51.981 93.4181 52.6896 92.6772 55.028 92.6693L67.791 92.6536Z" fill="#6D6E71"/>
<path d="M115.315 42.5079V13.5571H108.678V9.05647C111.78 9.05647 114.819 8.99341 117.843 9.05647C118.114 9.05483 118.382 9.10907 118.632 9.2158C118.881 9.32254 119.106 9.47949 119.292 9.67689C119.478 9.87429 119.621 10.1079 119.714 10.3632C119.806 10.6185 119.844 10.8901 119.827 11.161C119.827 18.6489 119.827 34.8071 119.827 42.3109C119.827 42.3503 119.772 42.3818 119.685 42.4764L115.315 42.5079Z" fill="#6D6E71"/>
<path d="M49.855 60.9047V56.5616H76.8139V60.9047H49.855Z" fill="#6D6E71"/>
<path d="M29.447 79.0334V74.714H56.4138V79.0334H29.447Z" fill="#6D6E71"/>
<path d="M65.5075 65.6575V69.969H43.0522V65.6575H65.5075Z" fill="#6D6E71"/>
<path d="M56.5947 49.657V45.314H79.1129V49.657H56.5947Z" fill="#6D6E71"/>
<path d="M29.5178 92.7166H47.3749V97.0912H29.5178V92.7166Z" fill="#6D6E71"/>
<path d="M29.4626 106.124V101.781H47.3828V106.124H29.4626Z" fill="#6D6E71"/>
<path d="M47.4144 110.822V115.165H29.4785V110.822H47.4144Z" fill="#6D6E71"/>
<path d="M61.1143 106.116V101.781H74.5543V106.116H61.1143Z" fill="#6D6E71"/>
<path d="M29.447 88.0741V83.7468H42.832V88.0741H29.447Z" fill="#6D6E71"/>
<path d="M29.4705 69.969V65.6102H38.3833V69.969H29.4705Z" fill="#6D6E71"/>
<path d="M56.4845 83.7548V88.0505H47.5796V83.7548H56.4845Z" fill="#6D6E71"/>
<path d="M18.0304 44.4863L39.1629 23.3703L42.1942 26.4758C41.9738 26.728 41.7454 27.0276 41.4777 27.264L20.2193 48.4983C18.6446 50.0747 17.5817 50.0747 15.9676 48.4983L9.78687 42.3818L13.0544 39.229L18.0304 44.4863Z" fill="#6D6E71"/>
<path d="M181.957 90.289C188.948 86.8051 195.657 90.2023 196.814 97.8715C197.225 101.482 197.365 105.118 197.231 108.749C197.127 124.547 200.416 140.184 206.876 154.599C207.721 156.398 208.266 158.322 208.49 160.297C209.283 169.167 209.96 178.045 210.522 186.931C210.705 190.015 212.067 192.911 214.325 195.018C220.38 191.589 222.938 192.054 227.143 197.382C232.032 203.554 236.874 209.765 241.756 215.945C242.709 217.159 243.756 218.459 242.213 219.752C240.536 221.163 239.599 219.594 238.693 218.451C233.544 211.935 228.4 205.414 223.261 198.888C221.316 196.421 219.946 196.24 217.317 198.021C216.813 198.36 216.325 198.715 215.836 199.069L163.234 237.526C159.391 240.34 155.525 243.122 151.683 245.928C150.51 246.787 149.203 247.678 148.046 246.235C146.699 244.564 148.211 243.626 149.384 242.712C149.849 242.35 150.274 241.924 150.691 241.577C148.148 236.139 145.455 233.782 141.109 233.356C132.881 232.568 126.149 228.887 120.488 222.975C119.545 222.045 118.298 221.485 116.977 221.399C108.843 221.265 100.702 221.352 92.5689 221.328C85.3489 221.328 80.7586 216.725 80.6956 209.505C80.6956 204.831 80.5224 200.149 80.7508 195.483C80.8767 192.858 80.0185 191.542 77.6014 190.375C69.8223 186.639 68.9405 177.504 75.7039 172.152C76.0818 171.86 76.4204 171.529 77.0424 170.985C74.4835 169.677 72.1923 168.518 69.9562 167.328C64.5865 164.514 62.5472 160.936 63.1614 155.426C63.7125 150.398 67.8855 145.779 72.9481 144.518C73.5701 144.36 74.1764 144.131 75.2235 143.792C72.9796 142.074 71.09 140.584 69.1531 139.166C65.0667 136.178 63.0748 132.245 64.3424 127.232C65.61 122.219 68.8303 118.814 73.9008 117.648C75.9873 117.167 78.2706 117.569 80.672 117.569C80.672 112.926 80.7586 108.528 80.6012 104.13C80.6012 103.279 79.7429 102.293 79.0265 101.655C74.4283 97.5799 69.7672 93.5837 65.1219 89.5559C60.1694 85.2681 59.012 78.86 62.2638 73.7366C63.9167 71.0629 66.4939 69.0907 69.5049 68.1955C72.5158 67.3002 75.7505 67.5443 78.5934 68.8813C79.1761 69.1493 79.7823 69.3621 80.672 69.6695C80.672 64.6565 80.672 59.9903 80.672 55.332C80.7193 47.45 85.2387 43.0203 93.1752 43.0203H162.801C170.674 43.0203 175.225 47.5288 175.233 55.3951C175.233 67.0868 175.233 78.7706 175.233 90.4466V95.0182C177.744 93.2447 179.681 91.4397 181.957 90.289ZM84.7899 198.273H171.052V65.2004H168.036C141.188 65.2004 114.336 65.1846 87.4826 65.1531C85.2229 65.1531 84.5615 65.6891 84.5773 68.03C84.6954 84.8267 84.6245 101.623 84.7347 118.42C84.8183 119.717 85.3995 120.931 86.3567 121.809C89.7265 124.647 93.2933 127.256 96.8048 129.936C97.4583 130.44 98.1591 130.874 99.096 131.512C99.2771 130.235 99.4109 129.329 99.5842 128.099L102.639 127.957C102.867 128.241 103.072 128.367 103.08 128.501C103.206 132.525 103.83 136.517 104.938 140.387C106.316 145.337 104.025 149.499 99.8755 152.518C99.1984 153.006 98.4977 153.464 97.8048 153.929C101.623 158.067 106.466 156.829 111.032 156.861C111.434 156.861 112.072 156.073 112.213 155.56C112.381 154.6 112.46 153.626 112.449 152.652H116.182C116.182 154.969 116.276 157.381 116.095 159.746C116.095 160.187 114.906 160.849 114.245 160.881C111.41 161.007 108.568 160.928 106.198 160.928C105.962 164.325 106.418 167.691 105.34 170.465C104.261 173.24 101.655 175.439 99.5133 178.142C103.891 182.083 104.741 187.238 100.726 192.677C99.5363 194.264 97.939 195.498 96.1041 196.247C94.3262 196.834 92.4257 196.942 90.5926 196.563C88.6951 196.216 86.9236 195.152 84.8135 194.285L84.7899 198.273ZM209.404 195.341C208.396 192.543 206.979 189.761 206.672 186.876C205.735 178.205 205.302 169.472 204.546 160.77C204.356 159.129 203.896 157.531 203.184 156.041C196.552 141.322 193.189 125.337 193.326 109.19C193.326 105.99 193.279 102.782 193.082 99.5898C192.704 93.5443 188.208 91.0772 182.941 94.1354C177.87 97.0833 175.745 101.907 175.304 107.535C175.13 109.687 175.249 111.862 175.249 114.022C175.249 145.55 175.249 177.057 175.249 208.543C175.249 216.709 170.737 221.265 162.651 221.273C151.219 221.273 139.789 221.273 128.362 221.273H125.047C125.39 221.851 125.791 222.392 126.244 222.889C130.236 226.254 134.81 228.682 139.999 229.108C145.605 229.565 149.652 231.985 152.494 236.706C153.057 237.51 153.661 238.283 154.305 239.023L210.994 197.643C210.383 196.949 209.85 196.19 209.404 195.38V195.341ZM84.782 202.553C84.782 205.627 84.5222 208.654 84.8529 211.61C85.2308 215.054 88.4353 217.316 92.4114 217.332C98.8204 217.332 105.222 217.332 111.623 217.332H162.517C168.556 217.332 171.249 214.644 171.265 208.662C171.265 206.691 171.265 204.721 171.265 202.553H84.782ZM171.194 61.1253C171.194 58.3509 171.454 55.7419 171.123 53.2433C170.721 50.1614 168.761 48.1278 165.659 47.3712C164.642 47.1569 163.603 47.0643 162.564 47.0953C139.642 47.0953 116.717 47.0953 93.7893 47.0953C92.6644 47.0737 91.5398 47.1476 90.4273 47.316C87.7031 47.781 85.1206 50.1062 84.8607 52.7704C84.6009 55.4345 84.7977 58.2878 84.7977 61.1648L171.194 61.1253ZM97.6867 135.682C92.1752 131.37 86.6638 127.067 81.0264 122.873C77.2786 120.067 72.6017 121.005 69.6727 124.954C66.9013 128.706 67.3737 132.75 71.0821 135.658C76.7248 140.088 82.4121 144.47 88.144 148.805C89.3511 149.815 90.8324 150.439 92.3971 150.598C93.9618 150.756 95.5382 150.442 96.923 149.696C98.1384 149.132 99.182 148.254 99.9471 147.153C100.712 146.052 101.171 144.767 101.277 143.43C101.308 139.575 99.8913 137.361 97.6867 135.642V135.682ZM70.6884 163.269C77.2786 166.705 83.8844 170.126 90.569 173.374C94.9782 175.51 99.3086 174.012 101.434 169.937C101.942 168.998 102.256 167.966 102.356 166.903C102.455 165.84 102.34 164.768 102.015 163.75C101.691 162.733 101.165 161.792 100.469 160.983C99.772 160.175 98.9196 159.515 97.9622 159.044C91.4902 155.56 84.9394 152.21 78.2785 149.05C72.9953 146.535 66.98 150.989 66.98 157.641C66.917 159.958 68.287 162.016 70.7199 163.222L70.6884 163.269ZM96.3875 181.201C92.2659 178.833 88.0243 176.681 83.6797 174.753C80.8374 173.437 77.8927 174.666 76.1762 177.528C74.4598 180.389 74.7984 184.046 77.4911 185.63C82.0025 188.343 86.7049 190.725 91.5611 192.756C95.0726 194.19 99.096 190.344 99.7653 185.607C98.6551 184.085 97.8677 182.028 96.3875 181.153V181.201ZM80.6405 84.6218V79.4433C80.6405 74.9505 78.1446 72.0262 74.0189 71.7109C69.2948 71.3484 64.8227 74.517 64.5707 78.9309C64.4605 80.9251 64.8384 83.6207 66.0982 84.9055C70.4365 89.2958 75.2629 93.1974 79.9004 97.2882L80.6327 96.9414L80.6405 84.6218Z" fill="#6D6E71"/>
<path d="M225.757 221.651C225.708 223.876 224.795 225.995 223.212 227.557C221.629 229.12 219.5 230.004 217.277 230.022C215.055 229.971 212.936 229.074 211.353 227.512C209.77 225.951 208.842 223.843 208.758 221.62C208.754 220.496 208.973 219.382 209.402 218.343C209.831 217.304 210.462 216.361 211.258 215.569C212.055 214.776 213 214.149 214.04 213.726C215.08 213.302 216.194 213.089 217.317 213.099C218.441 213.073 219.559 213.277 220.602 213.698C221.644 214.12 222.59 214.751 223.381 215.552C224.171 216.353 224.79 217.307 225.198 218.356C225.607 219.405 225.797 220.526 225.757 221.651ZM217.167 217.001C216.564 217.019 215.972 217.157 215.423 217.408C214.875 217.659 214.382 218.017 213.974 218.462C213.566 218.906 213.252 219.428 213.048 219.996C212.844 220.564 212.757 221.167 212.789 221.769C212.886 222.936 213.42 224.023 214.282 224.814C215.145 225.604 216.273 226.04 217.443 226.034C218.043 226.01 218.632 225.866 219.176 225.61C219.72 225.354 220.207 224.992 220.609 224.544C221.01 224.097 221.318 223.573 221.514 223.004C221.71 222.436 221.79 221.834 221.749 221.233C221.73 220.653 221.596 220.082 221.355 219.554C221.113 219.026 220.769 218.551 220.343 218.157C219.916 217.764 219.416 217.459 218.871 217.26C218.326 217.061 217.747 216.973 217.167 217.001Z" fill="#6D6E71"/>
<path d="M156.391 120.335H139.786V103.688H156.391V120.335ZM143.715 116.513C146.321 116.513 148.801 116.584 151.274 116.442C151.73 116.442 152.462 115.512 152.494 114.983C152.628 112.619 152.557 110.333 152.557 107.771H143.715V116.513Z" fill="#6D6E71"/>
<path d="M140.794 160.778C140.432 160.778 139.778 159.99 139.771 159.612C139.7 154.551 139.723 149.483 139.723 144.336H156.36V160.825C151.085 160.825 145.935 160.849 140.794 160.778ZM143.668 152.715C143.668 157.444 143.164 156.955 147.998 156.955C153.226 156.955 152.502 157.397 152.502 152.344C152.502 147.576 153.155 148.206 148.179 148.151C143.203 148.096 143.676 147.458 143.66 152.715H143.668Z" fill="#6D6E71"/>
<path d="M101.049 120.454C100.67 120.335 100.327 120.122 100.051 119.836C99.7762 119.549 99.5776 119.198 99.474 118.814C99.3401 114.243 99.3559 109.663 99.474 105.091C99.474 104.579 100.261 103.657 100.734 103.649C105.804 103.547 110.867 103.586 116.103 103.586V120.525C110.875 120.525 105.954 120.58 101.049 120.454ZM112.072 116.394V107.724H103.466V116.394H112.072Z" fill="#6D6E71"/>
<path d="M130.865 114.061V129.778H152.557V136.635H156.336V125.861C151.738 125.861 147.187 125.908 142.636 125.861C140.085 125.821 136.7 126.499 135.235 125.159C133.952 123.985 134.818 120.43 134.731 117.971C134.731 117.632 134.731 117.285 134.731 116.938C134.723 113.533 134.668 113.486 130.865 114.061Z" fill="#6D6E71"/>
<path d="M134.598 147.962V137.384H130.763V144.021C128.015 144.021 125.535 144.076 123.055 144.021C121.591 143.974 121.055 144.557 121.071 145.991C121.118 150.319 121.024 154.662 121.157 158.965C121.157 159.627 122.055 160.794 122.59 160.826C125.842 160.999 129.118 160.912 132.511 160.912V156.971C130.621 156.971 128.826 156.932 127 156.971C125.598 157.018 125.039 156.506 124.937 155.032C124.464 147.938 124.425 147.938 131.417 147.938L134.598 147.962Z" fill="#6D6E71"/>
<path d="M124.583 128.123H120.795C120.795 130.07 120.732 131.867 120.795 133.64C120.866 135.114 120.276 135.65 118.835 135.619C115.993 135.556 113.15 135.619 110.111 135.619V139.449H124.567L124.583 128.123Z" fill="#6D6E71"/>
<path d="M121.22 118.12C124.984 118.688 124.984 118.68 124.992 115.259V107.582H132.456V103.736H121.22V118.12Z" fill="#6D6E71"/>
<path d="M113.922 144.305H109.646V147.915H113.922V144.305Z" fill="#6D6E71"/>
<path d="M114.355 126.003H109.489C109.654 127.232 109.41 128.84 110.072 129.431C110.574 129.73 111.142 129.897 111.726 129.918C112.309 129.938 112.888 129.812 113.41 129.549C114.087 129.1 114.024 127.484 114.355 126.003Z" fill="#6D6E71"/>
<path d="M145.447 135.296C141.164 134.507 140.912 134.72 141.322 138.448C145.384 139.646 146.03 139.158 145.447 135.296Z" fill="#6D6E71"/>
</g>
<defs>
<clipPath id="clip0_44_1075">
<rect width="243" height="247" fill="white"/>
</clipPath>
</defs>
</svg>
