<svg width="348" height="190" viewBox="0 0 348 190" fill="none" xmlns="http://www.w3.org/2000/svg">
<g clip-path="url(#clip0_9_423)">
<path d="M314.25 -2.28882e-05H33.7499C24.8025 0.0118519 16.225 3.56214 9.89822 9.87231C3.57145 16.1825 0.0119061 24.7375 0 33.6614V156.339C0.0119061 165.262 3.57145 173.818 9.89822 180.128C16.225 186.438 24.8025 189.988 33.7499 190H314.25C323.199 189.992 331.778 186.443 338.106 180.132C344.434 173.821 347.992 165.264 348 156.339V33.6614C347.988 24.7375 344.428 16.1825 338.102 9.87231C331.775 3.56214 323.197 0.0118519 314.25 -2.28882e-05ZM6 156.339V33.6614C6.00794 26.3234 8.93415 19.2882 14.1366 14.0994C19.339 8.91068 26.3926 5.99215 33.7499 5.98423H314.25C321.607 5.99215 328.661 8.91068 333.863 14.0994C339.066 19.2882 341.992 26.3234 342 33.6614V156.339C341.992 163.677 339.066 170.712 333.863 175.901C328.661 181.089 321.607 184.008 314.25 184.016H33.7499C26.3926 184.008 19.339 181.089 14.1366 175.901C8.93415 170.712 6.00794 163.677 6 156.339Z" fill="white"/>
<path d="M345 89.4197H3V93.9079H345V89.4197Z" fill="white"/>
<path d="M222.9 166.751H220.41V114.539H222.9V166.751Z" fill="white"/>
<path d="M208.575 114.524H211.065V166.736H208.575V114.524Z" fill="white"/>
<path d="M176.31 166.721V114.524H178.83V166.721H176.31Z" fill="white"/>
<path d="M139.71 166.736H137.22V114.539H139.71V166.736Z" fill="white"/>
<path d="M107.865 166.751H105.405V114.568H107.865V166.751Z" fill="white"/>
<path d="M162.24 114.539V166.706H160.2V114.539H162.24Z" fill="white"/>
<path d="M249.09 166.736H247.29V114.554H249.09V166.736Z" fill="white"/>
<path d="M203.94 166.736H202.11V114.539H203.94V166.736Z" fill="white"/>
<path d="M253.74 114.524H255.54V166.706H253.74V114.524Z" fill="white"/>
<path d="M236.16 166.751H234.405V114.524H234.945H236.16V166.751Z" fill="white"/>
<path d="M118.29 114.524H119.94V166.706H118.29V114.524Z" fill="white"/>
<path d="M131.205 114.524H132.705V166.691H131.205V114.524Z" fill="white"/>
<path d="M189.24 114.524H190.74V166.691H189.24V114.524Z" fill="white"/>
<path d="M147.315 114.524H148.815V166.706H147.315V114.524Z" fill="white"/>
<path d="M158.13 166.751H156.99V114.554H158.16L158.13 166.751Z" fill="white"/>
<path d="M198.9 114.539H200.07V166.736H198.9V114.539Z" fill="white"/>
<path d="M187.155 166.751H186V114.568H187.155V166.751Z" fill="white"/>
<path d="M100.08 166.736H98.91V114.554H100.08V166.736Z" fill="white"/>
<path d="M205.35 114.524H206.505V166.706H205.35V114.524Z" fill="white"/>
<path d="M216.18 166.736H215.025V114.554H216.18V166.736Z" fill="white"/>
<path d="M224.7 114.524H225.855V166.706H224.7V114.524Z" fill="white"/>
<path d="M231.15 114.524H232.305V166.736H231.15V114.524Z" fill="white"/>
<path d="M250.485 114.524H251.64V166.706H250.485V114.524Z" fill="white"/>
<path d="M174.27 166.751H173.115V114.539H174.27V166.751Z" fill="white"/>
<path d="M145.245 166.736H144.075V114.554H145.245V166.736Z" fill="white"/>
<path d="M121.5 114.524H122.64V166.706H121.5V114.524Z" fill="white"/>
<path d="M164.565 166.751H163.41V114.554H164.565V166.751Z" fill="white"/>
<path d="M245.19 166.736H243.99V114.554H245.16L245.19 166.736Z" fill="white"/>
<path d="M92.49 114.539H93.66V166.721H92.49V114.539Z" fill="white"/>
<path d="M102.09 166.631V115.047C102.09 114.853 102.3 114.643 102.405 114.434C102.54 114.688 102.78 114.928 102.78 115.182C102.78 122.164 102.78 129.145 102.78 136.127V164.851C102.81 165.299 102.81 165.749 102.78 166.198C102.78 166.392 102.51 166.557 102.375 166.721L102.09 166.631Z" fill="white"/>
<path d="M180.555 140.645V122.692C180.555 120.239 180.555 117.77 180.555 115.317C180.61 115.054 180.706 114.801 180.84 114.568C180.96 114.838 181.185 115.092 181.185 115.346C181.185 132.222 181.185 149.093 181.185 165.958C181.208 166.077 181.208 166.199 181.185 166.317C181.084 166.496 180.969 166.666 180.84 166.826C180.75 166.646 180.555 166.467 180.555 166.287C180.555 164.642 180.555 162.981 180.555 161.335V140.645Z" fill="white"/>
<path d="M213.03 140.48C213.03 148.888 213.03 157.296 213.03 165.704C212.979 166.046 212.878 166.379 212.73 166.691C212.567 166.388 212.455 166.059 212.4 165.719C212.4 159.735 212.4 153.825 212.4 147.886C212.4 141.946 212.4 135.917 212.4 129.933C212.4 125.011 212.4 120.089 212.4 115.167C212.4 114.943 212.625 114.718 212.76 114.494C212.891 114.758 212.982 115.04 213.03 115.332C213.03 123.65 213.03 131.953 213.03 140.271V140.48Z" fill="white"/>
<path d="M153.75 140.48C153.75 148.888 153.75 157.296 153.75 165.704C153.693 166.046 153.587 166.379 153.435 166.691C153.283 166.384 153.177 166.057 153.12 165.719C153.12 159.735 153.12 153.75 153.12 147.766C153.12 139.328 153.12 130.891 153.12 122.453C153.12 120.059 153.12 117.65 153.12 115.257C153.183 114.954 153.299 114.665 153.465 114.404C153.604 114.661 153.7 114.939 153.75 115.227C153.75 123.515 153.75 131.803 153.75 140.091V140.48Z" fill="white"/>
<path d="M141.435 140.63C141.435 148.978 141.435 157.326 141.435 165.674C141.384 166.045 141.283 166.407 141.135 166.751C140.978 166.419 140.867 166.066 140.805 165.704C140.805 156.937 140.805 148.17 140.805 139.403C140.805 131.354 140.805 123.306 140.805 115.257C140.805 115.002 141.03 114.748 141.15 114.494C141.289 114.751 141.385 115.029 141.435 115.317C141.445 123.754 141.445 132.192 141.435 140.63Z" fill="white"/>
<path d="M192.405 140.48V122.528C192.405 120.089 192.405 117.665 192.405 115.227C192.465 114.944 192.567 114.672 192.705 114.419C192.825 114.703 193.065 114.987 193.065 115.272C193.065 118.638 193.065 121.989 193.065 125.355V144.969C193.065 151.611 193.065 158.249 193.065 164.881C193.065 165.24 193.065 165.599 193.065 165.958C192.99 166.236 192.879 166.502 192.735 166.751C192.615 166.512 192.39 166.257 192.39 166.003C192.39 164.208 192.39 162.413 192.39 160.602V140.48H192.405Z" fill="white"/>
<path d="M241.395 140.63C241.395 149.008 241.395 157.386 241.395 165.764C241.349 166.105 241.253 166.438 241.11 166.751C240.951 166.442 240.845 166.108 240.795 165.764C240.795 159.78 240.795 153.795 240.795 147.811V129.858C240.795 124.936 240.795 120.014 240.795 115.092C240.795 114.898 241.035 114.703 241.155 114.524C241.245 114.733 241.425 114.943 241.425 115.167C241.425 120.089 241.425 125.011 241.425 129.933V140.645L241.395 140.63Z" fill="white"/>
<path d="M95.82 166.796C95.7315 166.519 95.6712 166.233 95.64 165.943C95.64 162.363 95.64 158.787 95.64 155.217C95.64 149.232 95.64 143.248 95.64 137.264C95.64 129.918 95.64 122.557 95.64 115.212C95.64 114.987 95.8201 114.778 95.9101 114.568C96.0301 114.763 96.225 114.972 96.225 115.167C96.225 120.119 96.225 125.071 96.225 130.023V147.976C96.225 153.96 96.225 159.904 96.225 165.809C96.225 166.153 96.225 166.497 96.225 166.841L95.82 166.796Z" fill="white"/>
<path d="M228.48 140.645V158.598C228.48 161.096 228.48 163.58 228.48 166.078C228.433 166.31 228.336 166.53 228.195 166.721C228.09 166.497 227.88 166.272 227.88 166.033C227.88 162.413 227.88 158.782 227.88 155.142V129.709C227.88 124.871 227.88 120.039 227.88 115.212C227.88 114.987 228.09 114.748 228.195 114.524C228.329 114.722 228.421 114.946 228.465 115.182C228.465 118.743 228.465 122.313 228.465 125.894V140.66L228.48 140.645Z" fill="white"/>
<path d="M109.455 140.6C109.455 134.616 109.455 128.632 109.455 122.647C109.455 120.164 109.455 117.665 109.455 115.167C109.455 114.928 109.665 114.703 109.77 114.479C109.901 114.706 109.993 114.954 110.04 115.212C110.04 122.782 110.04 130.337 110.04 137.907C110.04 146.884 110.04 155.86 110.04 164.836C110.07 165.285 110.07 165.734 110.04 166.183C109.977 166.403 109.876 166.611 109.74 166.796C109.65 166.602 109.545 166.422 109.47 166.228C109.455 166.108 109.455 165.988 109.47 165.868V140.6H109.455Z" fill="white"/>
<path d="M112.65 114.539V166.796C112.185 166.272 112.065 115.391 112.65 114.539Z" fill="white"/>
<path d="M115.38 114.554V166.916C114.9 166.302 114.825 115.391 115.38 114.554Z" fill="white"/>
<path d="M124.68 140.48V115.496C124.68 115.496 124.68 115.496 124.68 115.406C124.77 115.107 124.875 114.808 124.98 114.509C125.117 114.788 125.213 115.085 125.265 115.391C125.265 121.475 125.265 127.569 125.265 133.673C125.265 139.777 125.265 145.761 125.265 151.626C125.265 156.219 125.265 160.812 125.265 165.405C125.213 165.842 125.118 166.273 124.98 166.691C124.819 166.288 124.713 165.866 124.665 165.435C124.665 157.117 124.665 148.798 124.665 140.48H124.68Z" fill="white"/>
<path d="M151.08 140.735V165.779C151.08 165.779 151.08 165.898 151.08 165.958L150.765 166.766C150.628 166.517 150.527 166.25 150.465 165.973C150.465 156.867 150.465 147.766 150.465 138.67V116.139C150.465 115.691 150.465 115.242 150.465 114.793C150.465 114.703 150.645 114.539 150.735 114.539C150.798 114.555 150.855 114.587 150.902 114.632C150.949 114.676 150.985 114.732 151.005 114.793C151.028 115.032 151.028 115.272 151.005 115.511V140.735H151.08Z" fill="white"/>
<path d="M238.17 140.735V161.276C238.17 162.891 238.17 164.507 238.17 166.138C238.17 166.347 237.99 166.557 237.885 166.766C237.78 166.557 237.57 166.347 237.57 166.153C237.57 161.246 237.57 156.349 237.57 151.461C237.57 145.477 237.57 139.443 237.57 133.359V115.526C237.547 115.287 237.547 115.047 237.57 114.808C237.57 114.688 237.735 114.539 237.84 114.539C237.903 114.555 237.96 114.587 238.007 114.632C238.054 114.676 238.09 114.732 238.11 114.793C238.14 115.026 238.14 115.263 238.11 115.496V140.735H238.17Z" fill="white"/>
<path d="M195.645 140.735V122.438C195.645 120.074 195.645 117.695 195.645 115.332C195.704 115.046 195.799 114.769 195.93 114.509C196.078 114.753 196.179 115.021 196.23 115.302C196.23 126.961 196.23 138.61 196.23 150.25V165.031C196.253 165.389 196.253 165.749 196.23 166.108C196.157 166.331 196.061 166.547 195.945 166.751C195.84 166.542 195.63 166.347 195.63 166.138C195.63 163.699 195.63 161.276 195.63 158.837V140.735H195.645Z" fill="white"/>
<path d="M128.49 114.539V144.46C128.49 151.701 128.49 158.937 128.49 166.168C128.443 166.4 128.346 166.62 128.205 166.811C128.1 166.602 127.89 166.407 127.89 166.198C127.89 161.306 127.89 156.413 127.89 151.521V133.359C127.89 127.375 127.89 121.391 127.89 115.406C127.925 115.111 127.99 114.82 128.085 114.539H128.49Z" fill="white"/>
<path d="M169.815 140.48V122.378C169.815 119.939 169.815 117.516 169.815 115.077C169.815 114.868 169.995 114.658 170.1 114.449C170.205 114.658 170.4 114.853 170.4 115.062C170.4 118.733 170.4 122.398 170.4 126.058C170.4 132.042 170.4 138.027 170.4 144.011C170.4 151.342 170.4 158.672 170.4 165.988C170.353 166.221 170.256 166.44 170.115 166.631C170.01 166.422 169.815 166.213 169.815 166.003C169.815 163.46 169.815 160.902 169.815 158.358V140.48Z" fill="white"/>
</g>
<defs>
<clipPath id="clip0_9_423">
<rect width="348" height="190" fill="white"/>
</clipPath>
</defs>
</svg>
