<svg width="248" height="211" viewBox="0 0 248 211" fill="none" xmlns="http://www.w3.org/2000/svg">
<g clip-path="url(#clip0_8_231)">
<path opacity="0.35" d="M16.8518 0.734371H151.666C155.941 0.734371 160.041 2.43654 163.064 5.46641C166.087 8.49629 167.785 12.6057 167.785 16.8906V45.8983H0.732666V16.8906C0.732666 12.6057 2.43093 8.49629 5.45385 5.46641C8.47677 2.43654 12.5767 0.734371 16.8518 0.734371Z" fill="#939598" stroke="#6D6E71" stroke-miterlimit="10"/>
<path d="M152.765 0.734371H15.7528C7.45739 0.734371 0.732666 7.47456 0.732666 15.789V76.0076C0.732666 84.322 7.45739 91.0622 15.7528 91.0622H152.765C161.061 91.0622 167.785 84.322 167.785 76.0076V15.789C167.785 7.47456 161.061 0.734371 152.765 0.734371Z" stroke="#6D6E71" stroke-width="2" stroke-miterlimit="10"/>
<path d="M108.145 76.6979H106.921V51.0683H108.145V76.6979Z" fill="#6D6E71" stroke="#6D6E71" stroke-miterlimit="10"/>
<path d="M101.147 51.061H102.364V76.6905H101.147V51.061Z" fill="#6D6E71" stroke="#6D6E71" stroke-miterlimit="10"/>
<path d="M85.38 76.6832V51.0683H86.6182V76.6832H85.38Z" fill="#6D6E71" stroke="#6D6E71" stroke-miterlimit="10"/>
<path d="M67.5098 76.6905H66.2936V51.0756H67.5098V76.6905Z" fill="#6D6E71" stroke="#6D6E71" stroke-miterlimit="10"/>
<path d="M51.9548 76.6979H50.7458V51.083H51.9548V76.6979Z" fill="#6D6E71" stroke="#6D6E71" stroke-miterlimit="10"/>
<path d="M78.5148 51.0756V76.6759H77.511V51.0756H78.5148Z" fill="#6D6E71" stroke="#6D6E71" stroke-miterlimit="10"/>
<path d="M120.937 76.6979H120.058V51.0756H120.937V76.6979Z" fill="#6D6E71" stroke="#6D6E71" stroke-miterlimit="10"/>
<path d="M98.8835 76.6905H97.9896V51.0683H98.8835V76.6905Z" fill="#6D6E71" stroke="#6D6E71" stroke-miterlimit="10"/>
<path d="M123.209 51.061H124.088V76.6759H123.209V51.061Z" fill="#6D6E71" stroke="#6D6E71" stroke-miterlimit="10"/>
<path d="M114.622 76.6979H113.764V51.061H114.028H114.622V76.6979Z" fill="#6D6E71" stroke="#6D6E71" stroke-miterlimit="10"/>
<path d="M57.0397 51.061H57.8456V76.6759H57.0397V51.061Z" fill="#6D6E71" stroke="#6D6E71" stroke-miterlimit="10"/>
<path d="M63.3555 51.061H64.0882V76.6685H63.3555V51.061Z" fill="#6D6E71" stroke="#6D6E71" stroke-miterlimit="10"/>
<path d="M91.7031 51.061H92.4358V76.6685H91.7031V51.061Z" fill="#6D6E71" stroke="#6D6E71" stroke-miterlimit="10"/>
<path d="M71.2245 51.061H71.9572V76.6759H71.2245V51.061Z" fill="#6D6E71" stroke="#6D6E71" stroke-miterlimit="10"/>
<path d="M76.4998 76.6979H75.9064V51.0756H76.4779L76.4998 76.6979Z" fill="#6D6E71" stroke="#6D6E71" stroke-miterlimit="10"/>
<path d="M96.4216 51.0756H96.9931V76.6905H96.4216V51.0756Z" fill="#6D6E71" stroke="#6D6E71" stroke-miterlimit="10"/>
<path d="M90.6774 76.6979H90.1133V51.083H90.6774V76.6979Z" fill="#6D6E71" stroke="#6D6E71" stroke-miterlimit="10"/>
<path d="M48.1448 76.6979H47.5807V51.083H48.1448V76.6979Z" fill="#6D6E71" stroke="#6D6E71" stroke-miterlimit="10"/>
<path d="M99.5721 51.061H100.136V76.6832H99.5721V51.061Z" fill="#6D6E71" stroke="#6D6E71" stroke-miterlimit="10"/>
<path d="M104.862 76.6905H104.298V51.0756H104.862V76.6905Z" fill="#6D6E71" stroke="#6D6E71" stroke-miterlimit="10"/>
<path d="M109.024 51.061H109.61V76.6759H109.046L109.024 51.061Z" fill="#6D6E71" stroke="#6D6E71" stroke-miterlimit="10"/>
<path d="M112.167 51.061H112.731V76.6905H112.167V51.061Z" fill="#6D6E71" stroke="#6D6E71" stroke-miterlimit="10"/>
<path d="M121.619 51.061H122.183V76.6832H121.619V51.061Z" fill="#6D6E71" stroke="#6D6E71" stroke-miterlimit="10"/>
<path d="M84.391 76.6979H83.8268V51.0756H84.391V76.6979Z" fill="#6D6E71" stroke="#6D6E71" stroke-miterlimit="10"/>
<path d="M70.2134 76.6905H69.642V51.0756H70.2134V76.6905Z" fill="#6D6E71" stroke="#6D6E71" stroke-miterlimit="10"/>
<path d="M58.6077 51.0683H59.1718V76.6759H58.6077V51.0683Z" fill="#6D6E71" stroke="#6D6E71" stroke-miterlimit="10"/>
<path d="M79.6504 76.6979H79.0863V51.083H79.6504V76.6979Z" fill="#6D6E71" stroke="#6D6E71" stroke-miterlimit="10"/>
<path d="M119.032 76.6979H118.461V51.083H119.032V76.6979Z" fill="#6D6E71" stroke="#6D6E71" stroke-miterlimit="10"/>
<path d="M44.4009 51.0683H44.9724V76.6832H44.4009V51.0683Z" fill="#6D6E71" stroke="#6D6E71" stroke-miterlimit="10"/>
<path d="M49.134 76.6098V62.0692C49.134 58.4855 49.134 54.9017 49.134 51.318C49.134 51.2225 49.2366 51.1197 49.2879 51.0242C49.3538 51.1417 49.471 51.2592 49.471 51.3841C49.471 54.8112 49.471 58.2382 49.471 61.6653V75.7726C49.4893 75.9925 49.4893 76.2136 49.471 76.4335C49.471 76.5217 49.3465 76.6024 49.2805 76.6905L49.134 76.6098Z" fill="#6D6E71" stroke="#6D6E71" stroke-miterlimit="10"/>
<path d="M87.4609 63.8904V55.078C87.4609 53.8662 87.4609 52.6545 87.4609 51.4502C87.4834 51.3222 87.5307 51.2 87.6002 51.0903C87.6588 51.2152 87.7687 51.34 87.7687 51.4649C87.7687 59.7486 87.7687 68.0323 87.7687 76.316C87.7687 76.3748 87.7687 76.4409 87.7687 76.4849C87.7212 76.5737 87.6647 76.6574 87.6002 76.7346C87.5489 76.6465 87.4609 76.5584 87.4536 76.4702C87.4536 75.6624 87.4536 74.8546 87.4536 74.0395V63.8904H87.4609Z" fill="#6D6E71" stroke="#6D6E71" stroke-miterlimit="10"/>
<path d="M103.324 63.839C103.324 67.9662 103.324 72.0909 103.324 76.2132C103.298 76.3811 103.249 76.5443 103.177 76.6979C103.096 76.5493 103.042 76.3878 103.016 76.2205C103.016 73.283 103.016 70.3651 103.016 67.4668C103.016 64.5685 103.016 61.631 103.016 58.6543C103.016 56.2383 103.016 53.8222 103.016 51.4061C103.016 51.2959 103.126 51.1931 103.192 51.083C103.255 51.2105 103.299 51.3465 103.324 51.4869C103.324 55.57 103.324 59.6531 103.324 63.7362V63.8684V63.839Z" fill="#6D6E71" stroke="#6D6E71" stroke-miterlimit="10"/>
<path d="M74.3678 63.8317C74.3678 67.9588 74.3678 72.0861 74.3678 76.2132C74.3401 76.3814 74.2883 76.5446 74.2139 76.6979C74.1376 76.55 74.0833 76.3916 74.0527 76.2279C74.0527 73.2904 74.0527 70.3529 74.0527 67.4154V55.0045C74.0527 53.8222 74.0527 52.6472 74.0527 51.4649C74.0893 51.3193 74.1486 51.1805 74.2286 51.0536C74.2955 51.1802 74.3425 51.3165 74.3678 51.4575V63.8317Z" fill="#6D6E71" stroke="#6D6E71" stroke-miterlimit="10"/>
<path d="M68.3524 63.8757C68.3524 67.9735 68.3524 72.0714 68.3524 76.1692C68.3276 76.3512 68.2783 76.5291 68.2058 76.6979C68.1257 76.536 68.0713 76.3626 68.0447 76.1838C68.0447 71.8804 68.0447 67.577 68.0447 63.2736C68.0447 59.3227 68.0447 55.3791 68.0447 51.4281C68.0447 51.3033 68.1546 51.1785 68.2132 51.0536C68.2789 51.1782 68.3258 51.3118 68.3524 51.4502C68.3573 55.592 68.3573 59.7339 68.3524 63.8757Z" fill="#6D6E71" stroke="#6D6E71" stroke-miterlimit="10"/>
<path d="M93.2491 63.8317V55.0192C93.2491 53.8295 93.2491 52.6325 93.2491 51.4354C93.2151 51.4031 93.1915 51.3613 93.1814 51.3154C93.1713 51.2694 93.1752 51.2215 93.1925 51.1779C93.2099 51.1342 93.2399 51.0967 93.2788 51.0703C93.3176 51.0439 93.3634 51.0298 93.4104 51.0298C93.4573 51.0298 93.5031 51.0439 93.5419 51.0703C93.5808 51.0967 93.6108 51.1342 93.6282 51.1779C93.6456 51.2215 93.6494 51.2694 93.6393 51.3154C93.6292 51.3613 93.6056 51.4031 93.5715 51.4354C93.5715 53.0878 93.5715 54.7402 93.5715 56.3852V65.9834C93.5715 69.2342 93.5715 72.49 93.5715 75.7506C93.5862 75.9265 93.5862 76.1033 93.5715 76.2793C93.5409 76.4186 93.489 76.5524 93.4177 76.6759C93.3591 76.551 93.2491 76.4262 93.2491 76.3087C93.2491 75.4201 93.2491 74.5388 93.2491 73.6576V63.8317Z" fill="#6D6E71" stroke="#6D6E71" stroke-miterlimit="10"/>
<path d="M117.179 63.8831C117.179 67.9907 117.179 72.1007 117.179 76.2132C117.153 76.38 117.106 76.5428 117.04 76.6979C116.961 76.5484 116.906 76.3872 116.878 76.2205C116.878 73.283 116.878 70.3456 116.878 67.4081V58.5956C116.878 56.1795 116.878 53.7634 116.878 51.3473C116.878 51.2519 116.988 51.1637 117.054 51.0683C117.116 51.1648 117.161 51.2718 117.186 51.3841V58.6323C117.186 60.3875 117.186 62.1426 117.186 63.8978L117.179 63.8831Z" fill="#6D6E71" stroke="#6D6E71" stroke-miterlimit="10"/>
<path d="M46.0714 76.7199C46.0281 76.5837 45.9986 76.4435 45.9834 76.3013C45.9834 74.5486 45.9834 72.7959 45.9834 71.0432C45.9834 68.1057 45.9834 65.1682 45.9834 62.2307C45.9834 58.6176 45.9834 55.007 45.9834 51.3987C45.9834 51.2959 46.0786 51.1858 46.1226 51.083C46.1739 51.1784 46.2765 51.2813 46.2765 51.3841C46.2765 53.8149 46.2765 56.2456 46.2765 58.6764V67.4889C46.2765 70.4264 46.2765 73.3418 46.2765 76.2352C46.2765 76.4041 46.2765 76.573 46.2765 76.742L46.0714 76.7199Z" fill="#6D6E71" stroke="#6D6E71" stroke-miterlimit="10"/>
<path d="M110.87 63.8831V72.6956C110.87 73.922 110.87 75.141 110.87 76.3674C110.87 76.4702 110.782 76.573 110.731 76.6832C110.68 76.5657 110.577 76.4556 110.577 76.3454C110.577 74.5609 110.577 72.7763 110.577 70.9918V58.5075C110.577 56.133 110.577 53.761 110.577 51.3914C110.577 51.2812 110.68 51.1711 110.731 51.0536C110.775 51.1638 110.863 51.2666 110.863 51.3767C110.863 53.1319 110.863 54.8797 110.863 56.6348V63.8831H110.87Z" fill="#6D6E71" stroke="#6D6E71" stroke-miterlimit="10"/>
<path d="M52.7314 63.8611V55.0486C52.7314 53.8222 52.7314 52.6031 52.7314 51.3767C52.7578 51.2543 52.8103 51.139 52.8853 51.0389C52.9484 51.1509 52.9929 51.2724 53.0172 51.3987C53.0172 55.1147 53.0172 58.8306 53.0172 62.5392C53.0172 66.9454 53.0172 71.3394 53.0172 75.7212C53.0319 75.9412 53.0319 76.1621 53.0172 76.3821C52.9834 76.4892 52.9341 76.5906 52.8707 76.6832C52.8267 76.5877 52.7754 76.4996 52.7388 76.4041C52.7317 76.3456 52.7317 76.2864 52.7388 76.2279V63.8611H52.7314Z" fill="#6D6E71" stroke="#6D6E71" stroke-miterlimit="10"/>
<path d="M54.2921 51.0683V76.7199C54.0576 76.4703 54.0064 51.4869 54.2921 51.0683Z" fill="#6D6E71" stroke="#6D6E71" stroke-miterlimit="10"/>
<path d="M55.6257 51.0756V76.742C55.3912 76.4776 55.3472 51.4869 55.6257 51.0756Z" fill="#6D6E71" stroke="#6D6E71" stroke-miterlimit="10"/>
<path d="M60.1683 63.8317V51.5383C60.1683 51.5383 60.1683 51.5383 60.1683 51.4942C60.2123 51.3473 60.2636 51.2005 60.3076 51.0536C60.3787 51.1895 60.4281 51.3357 60.4541 51.4869C60.4541 54.4831 60.4541 57.4745 60.4541 60.4609C60.4541 63.4474 60.4541 66.3849 60.4541 69.2734C60.4541 71.5279 60.4541 73.7824 60.4541 76.0369C60.4297 76.25 60.3806 76.4596 60.3076 76.6612C60.2346 76.4621 60.1854 76.255 60.161 76.0443C60.161 71.9612 60.161 67.8781 60.161 63.795L60.1683 63.8317Z" fill="#6D6E71" stroke="#6D6E71" stroke-miterlimit="10"/>
<path d="M73.0636 63.9271V76.2205C73.0636 76.2205 73.0636 76.2867 73.0636 76.3087L72.9097 76.7052C72.8376 76.5856 72.7879 76.4536 72.7632 76.316C72.7632 71.851 72.7632 67.3836 72.7632 62.9137V51.8614C72.7521 51.6412 72.7521 51.4207 72.7632 51.2005C72.7632 51.1491 72.8438 51.0683 72.8951 51.0683C72.9464 51.0683 73.0123 51.1417 73.027 51.1931C73.0381 51.3104 73.0381 51.4284 73.027 51.5456V63.9271H73.0636Z" fill="#6D6E71" stroke="#6D6E71" stroke-miterlimit="10"/>
<path d="M115.603 63.9271V74.0101C115.603 74.8032 115.603 75.6037 115.603 76.3968C115.603 76.4996 115.508 76.6024 115.464 76.7052C115.406 76.6098 115.31 76.5069 115.31 76.4041C115.31 74.0052 115.31 71.6014 115.31 69.1926V51.5677C115.299 51.4504 115.299 51.3324 115.31 51.2151C115.31 51.1637 115.391 51.083 115.435 51.083C115.467 51.0893 115.497 51.1043 115.522 51.1263C115.546 51.1482 115.564 51.1764 115.574 51.2078C115.589 51.3248 115.589 51.4433 115.574 51.5603V63.9418L115.603 63.9271Z" fill="#6D6E71" stroke="#6D6E71" stroke-miterlimit="10"/>
<path d="M94.8245 63.9271V54.9531C94.8245 53.7855 94.8245 52.6252 94.8245 51.4575C94.8476 51.3159 94.8947 51.1793 94.9637 51.0536C95.0347 51.1738 95.0843 51.3055 95.1102 51.4428C95.1102 57.1611 95.1102 62.8819 95.1102 68.6051C95.1102 71.0187 95.1102 73.4348 95.1102 75.8533C95.125 76.0293 95.125 76.2062 95.1102 76.3821C95.0803 76.4927 95.0359 76.5989 94.9783 76.6979C94.9197 76.6024 94.8245 76.4996 94.8245 76.3968C94.8245 75.1998 94.8245 74.0101 94.8245 72.8131V63.9271Z" fill="#6D6E71" stroke="#6D6E71" stroke-miterlimit="10"/>
<path d="M62.0439 51.0683V65.7557C62.0439 69.3101 62.0439 72.8645 62.0439 76.4188C62.0439 76.5216 61.956 76.6244 61.9047 76.7273C61.8534 76.6318 61.7509 76.529 61.7509 76.4262C61.7509 74.0248 61.7509 71.6234 61.7509 69.222C61.7509 66.2845 61.7509 63.2956 61.7509 60.3287C61.7509 57.3619 61.7509 54.4538 61.7509 51.5163C61.765 51.3709 61.797 51.2278 61.8461 51.0903L62.0439 51.0683Z" fill="#6D6E71" stroke="#6D6E71" stroke-miterlimit="10"/>
<path d="M82.2148 63.839V54.9458C82.2148 53.7561 82.2148 52.5591 82.2148 51.362C82.2148 51.2592 82.3028 51.1564 82.3541 51.0536C82.4205 51.1471 82.4701 51.2514 82.5006 51.362C82.5006 53.1539 82.5006 54.9507 82.5006 56.7523V76.3895C82.5006 76.4923 82.4054 76.5951 82.3614 76.6979C82.3101 76.5951 82.2148 76.4996 82.2148 76.3968C82.2148 75.141 82.2148 73.8853 82.2148 72.6368V63.839Z" fill="#6D6E71" stroke="#6D6E71" stroke-miterlimit="10"/>
<path d="M223.821 178.614C221.677 178.586 219.607 179.406 218.06 180.896C216.514 182.385 215.614 184.426 215.557 186.575C215.562 188.768 216.421 190.872 217.951 192.44C219.481 194.008 221.561 194.915 223.748 194.969C225.893 194.954 227.947 194.102 229.475 192.594C231.003 191.085 231.885 189.04 231.932 186.891C231.973 185.805 231.793 184.723 231.402 183.71C231.011 182.696 230.417 181.774 229.658 180.999C228.898 180.224 227.989 179.613 226.985 179.203C225.982 178.793 224.905 178.592 223.821 178.614Z" fill="white"/>
<path d="M222.898 160.034C225.983 158.301 229.492 158.786 231.69 161.503C237.127 168.274 242.48 175.114 247.751 182.022C248.242 182.668 247.751 184.049 247.751 185.084C246.769 184.82 245.765 184.607 244.82 184.247C244.483 184.122 244.285 183.63 244.029 183.299C239.144 177.062 234.243 170.825 229.324 164.588C227.719 162.561 226.305 162.384 224.151 163.765C223.418 164.22 222.781 164.72 222.107 165.234L161.089 209.913C160.547 210.302 160.004 210.956 159.44 210.978C158.542 211.07 157.642 210.827 156.912 210.295C156.597 209.987 156.986 208.606 157.433 207.982C157.975 207.247 158.898 206.726 159.814 206.006C157.227 202.43 155.418 198.501 150.289 198.119C142.581 197.554 136.089 194.109 130.858 188.389C130.33 187.764 129.663 187.273 128.911 186.954C128.159 186.635 127.343 186.498 126.528 186.553C118.849 186.641 111.141 186.619 103.492 186.553C96.6562 186.553 92.2161 182.146 92.1208 175.287C92.0695 170.94 91.9084 166.578 92.1795 162.252C92.3626 159.256 91.4468 157.721 88.6552 156.377C81.768 152.985 81.0353 144.29 86.9994 139.325C87.4683 138.929 87.9225 138.517 88.6039 137.915C85.8197 136.446 83.2773 135.257 80.8228 133.883C77.4964 132.026 75.3276 129.338 75.1445 125.335C74.9722 122.347 75.8637 119.394 77.6604 117.003C79.457 114.612 82.042 112.938 84.9551 112.278C85.4534 112.153 85.9296 111.918 86.7429 111.61C84.3617 109.759 82.2515 108.151 80.1487 106.469C79.0349 105.654 78.1 104.618 77.4018 103.425C76.7036 102.233 76.257 100.909 76.0896 99.5369C75.2983 92.7219 81.2184 85.9437 88.0398 85.8996C89.3973 85.9725 90.75 86.1196 92.0915 86.3402C92.0915 82.3012 92.2454 78.4163 92.0109 74.5902C91.8522 73.1514 91.2178 71.8071 90.2085 70.7715C85.8124 66.7031 81.1525 62.8623 76.6465 58.8893C74.8211 57.3924 73.5114 55.3582 72.9026 53.0743C72.2938 50.7905 72.4168 48.3726 73.2541 46.1627C74.8954 41.5875 79.504 38.0846 84.3324 38.1874C86.8308 38.2461 89.3 39.0833 92.0915 39.6561C92.0915 35.3086 92.0915 30.7482 92.0915 26.1877C92.1428 18.4107 96.832 14.0192 104.884 14.3863C126.762 15.3851 148.648 15.2015 170.533 14.3863C178.593 14.0999 183.209 18.5062 183.216 26.3933C183.216 38.2657 183.216 50.1405 183.216 62.0178C183.216 62.8109 183.289 63.604 183.333 64.6469C184.943 63.2168 186.633 61.8804 188.396 60.6445C195.899 56.018 203.548 59.9101 204.2 68.6198C204.427 71.7042 204.398 74.8032 204.405 77.9023C204.299 93.1639 207.473 108.269 213.71 122.192C214.521 123.934 215.04 125.797 215.249 127.707C215.982 136.189 216.714 144.686 217.183 153.19C217.375 156.252 218.734 159.124 220.979 161.21C221.638 160.791 222.261 160.394 222.898 160.034ZM116.783 128.192C116.505 131.504 116.886 134.801 115.809 137.577C114.732 140.353 112.211 142.336 110.233 144.789C114.314 149.93 114.937 154.174 111.852 158.47C110.079 160.952 107.756 163.023 104.672 162.877C101.858 162.737 99.096 161.621 96.0627 160.872V164.279H179.296V35.8668C178.292 35.8153 177.332 35.7272 176.365 35.7272C150.494 35.7272 124.615 35.7272 98.7003 35.6611C96.3191 35.6611 95.8429 36.3955 95.8575 38.65C95.9674 54.8062 95.9454 70.9624 95.8575 87.1186C95.8561 87.798 96.0138 88.4682 96.3179 89.0754C96.6221 89.6825 97.0642 90.2096 97.6087 90.6143C101.616 93.5518 105.514 96.6581 109.757 99.9261C111.566 101.483 111.442 101.395 111.706 101.799L113.252 103.51C117.091 108.151 113.156 107.336 112.651 103.128C113.032 105.559 114.417 104.252 115.164 106.565C115.97 109.004 115.962 111.641 115.139 114.075C114.317 116.509 112.726 118.609 110.607 120.055C109.947 120.533 109.266 120.966 108.562 121.443M149.051 194.146C154.656 194.653 158.663 197.084 161.448 201.798C161.722 202.22 162.033 202.615 162.378 202.981C162.609 203.225 162.853 203.456 163.111 203.671L217.498 163.861C217.228 163.253 216.922 162.662 216.582 162.091C214.609 159.359 213.496 156.098 213.388 152.728C212.956 144.569 212.252 136.417 211.527 128.28C211.336 126.623 210.876 125.008 210.164 123.499C203.79 109.265 200.559 93.8195 200.69 78.218C200.69 75.0456 200.69 71.8584 200.427 68.6712C200.009 63.2222 195.935 60.9456 191.078 63.5306C185.78 66.3653 183.611 71.2489 183.333 76.9917C183.113 81.4934 183.274 86.0171 183.274 90.5335C183.274 118.44 183.274 146.37 183.274 174.325C183.274 182.183 178.878 186.553 171.046 186.56H135.291C136.968 188.688 139.057 190.455 141.433 191.752C143.809 193.05 146.423 193.851 149.117 194.109L149.051 194.146ZM96.0334 176.484C96.2385 180.156 99.1913 182.727 103.155 182.778C108.159 182.844 113.164 182.778 118.168 182.778H170.189C177.069 182.778 179.391 180.472 179.399 173.672V168.531H96.0041C96.0041 171.292 95.8868 173.877 96.0334 176.484ZM179.333 24.3151C179.186 22.8931 178.59 21.5555 177.63 20.4983C176.67 19.441 175.397 18.7197 173.999 18.4401C173.019 18.2456 172.022 18.157 171.024 18.1757C149.004 18.1757 126.992 18.1757 104.987 18.1757C103.82 18.1496 102.653 18.2233 101.499 18.396C98.8762 18.844 96.3704 21.1059 96.1506 23.6762C95.9308 26.2465 96.092 28.971 96.092 31.7543H179.377C179.377 29.1326 179.523 26.7091 179.333 24.3151ZM108.54 103.782C103.221 99.6103 97.8871 95.4611 92.4872 91.4074C88.8237 88.6829 84.3763 89.5641 81.5408 93.3682C78.8519 96.9886 79.2915 100.917 82.8523 103.715C88.2937 108.004 93.7718 112.239 99.2865 116.42C101.888 118.396 104.811 118.829 107.749 117.316C110.482 115.913 111.881 113.527 111.962 111.331C112.021 107.608 110.665 105.456 108.54 103.782ZM82.2515 130.256C88.7504 133.663 95.2494 137.071 101.851 140.25C102.739 140.731 103.716 141.025 104.722 141.115C105.727 141.206 106.74 141.09 107.7 140.775C108.659 140.461 109.545 139.954 110.303 139.285C111.061 138.617 111.675 137.801 112.109 136.887C112.598 136.004 112.907 135.031 113.017 134.026C113.126 133.021 113.034 132.004 112.746 131.035C112.458 130.067 111.98 129.165 111.339 128.385C110.699 127.604 109.909 126.959 109.017 126.488C102.584 122.963 96.07 119.571 89.4099 116.501C84.5815 114.298 78.9837 118.748 78.9544 124.931C78.921 126.047 79.2157 127.149 79.802 128.098C80.3882 129.047 81.2401 129.803 82.2515 130.27V130.256ZM107.038 147.491C103.118 145.465 99.1913 143.43 95.1908 141.565C92.3333 140.236 89.4172 141.396 87.754 144.238C86.0908 147.08 86.4865 150.51 89.1022 152.059C93.3834 154.63 97.8365 156.903 102.43 158.86C105.925 160.328 109.91 156.656 109.925 152.074C109.952 151.111 109.692 150.162 109.178 149.348C108.663 148.534 107.918 147.893 107.038 147.506V147.491ZM92.1282 60.6886V48.7036C92.1565 47.0582 91.5715 45.4614 90.4874 44.2255C89.4034 42.9895 87.8984 42.2034 86.2667 42.0208C84.4459 41.7154 82.5755 42.0151 80.9405 42.8743C79.3055 43.7334 77.9957 45.1049 77.2107 46.7795C75.5987 50.2091 76.4047 53.5211 79.6285 56.3264C83.5631 59.7853 87.5342 63.1854 91.4907 66.6076L92.1428 66.3138L92.1282 60.6886Z" fill="#6D6E71"/>
<path d="M223.748 194.969C221.561 194.915 219.481 194.008 217.951 192.44C216.421 190.872 215.562 188.768 215.557 186.575C215.614 184.426 216.514 182.385 218.06 180.896C219.607 179.406 221.677 178.586 223.821 178.614C224.909 178.587 225.99 178.784 226.998 179.192C228.007 179.601 228.921 180.212 229.684 180.988C230.448 181.764 231.045 182.689 231.437 183.706C231.83 184.722 232.011 185.809 231.969 186.898C231.919 189.052 231.032 191.101 229.496 192.609C227.96 194.117 225.898 194.963 223.748 194.969ZM223.748 191.128C224.33 191.135 224.908 191.024 225.447 190.803C225.986 190.582 226.475 190.254 226.885 189.84C227.295 189.425 227.618 188.933 227.834 188.391C228.051 187.849 228.156 187.269 228.144 186.685C228.156 186.124 228.056 185.567 227.849 185.045C227.642 184.524 227.333 184.049 226.941 183.65C226.548 183.25 226.079 182.933 225.562 182.718C225.046 182.502 224.491 182.393 223.931 182.396C223.348 182.381 222.768 182.485 222.226 182.7C221.684 182.916 221.191 183.239 220.777 183.651C220.363 184.063 220.036 184.554 219.816 185.096C219.596 185.637 219.488 186.218 219.499 186.802C219.543 187.918 219.999 188.977 220.777 189.776C221.555 190.575 222.6 191.056 223.711 191.128H223.748Z" fill="#6D6E71"/>
<path d="M135.291 186.589C136.97 188.713 139.061 190.473 141.437 191.765C143.813 193.058 146.425 193.855 149.116 194.109C154.722 194.616 158.729 197.047 161.514 201.762C161.788 202.183 162.099 202.579 162.444 202.944C162.674 203.188 162.919 203.419 163.177 203.634L217.564 163.824C217.249 163.213 216.897 162.622 216.509 162.054C214.311 159.241 213.52 156.062 213.329 152.507C212.89 144.429 212.194 136.351 211.476 128.273C211.285 126.615 210.824 125.001 210.113 123.492C203.739 109.258 200.507 93.8122 200.639 78.2107C200.639 75.0382 200.639 71.851 200.375 68.6639C199.958 63.2148 195.884 60.9383 191.026 63.5233C185.729 66.3579 183.56 71.2415 183.282 76.9843C183.062 81.486 183.223 86.0098 183.223 90.5262C183.223 118.432 183.223 146.363 183.223 174.318C183.223 182.176 178.827 186.545 170.995 186.553H135.291V186.589Z" fill="white"/>
<path d="M96.004 168.48C96.004 171.292 95.8868 173.877 96.004 176.448C96.2092 180.12 99.1619 182.69 103.126 182.741C108.13 182.807 113.134 182.741 118.139 182.741H170.159C177.039 182.741 179.362 180.435 179.369 173.635V168.494L96.004 168.48Z" fill="white"/>
<path d="M179.376 31.7396C179.376 29.1326 179.523 26.7091 179.332 24.3151C179.186 22.8931 178.589 21.5555 177.63 20.4983C176.67 19.441 175.397 18.7197 173.999 18.4401C173.019 18.2456 172.022 18.157 171.024 18.1757C149.004 18.1757 126.992 18.1757 104.987 18.1757C103.82 18.1496 102.653 18.2233 101.499 18.396C98.8761 18.844 96.3703 21.1059 96.1505 23.6762C95.9307 26.2465 96.0919 28.971 96.0919 31.7543L179.376 31.7396Z" fill="white"/>
<path d="M111.962 111.346C112.021 107.608 110.665 105.471 108.54 103.796C103.221 99.625 97.8871 95.4758 92.4872 91.422C88.8237 88.6975 84.3763 89.5788 81.5408 93.3828C78.8519 97.0033 79.2914 100.932 82.8523 103.73C88.2937 108.019 93.7718 112.254 99.2865 116.435C101.888 118.41 104.811 118.844 107.749 117.331C110.482 115.928 111.881 113.541 111.962 111.346Z" fill="white"/>
<path d="M78.9544 124.946C78.9239 126.06 79.22 127.158 79.8061 128.104C80.3922 129.05 81.2424 129.804 82.2515 130.27C88.7504 133.678 95.2494 137.085 101.851 140.265C102.739 140.746 103.716 141.04 104.722 141.13C105.727 141.22 106.74 141.105 107.7 140.79C108.659 140.475 109.545 139.968 110.303 139.3C111.061 138.632 111.675 137.816 112.109 136.902C112.598 136.018 112.907 135.045 113.017 134.04C113.126 133.036 113.034 132.019 112.746 131.05C112.458 130.081 111.98 129.18 111.339 128.399C110.699 127.618 109.909 126.974 109.017 126.503C102.584 122.978 96.07 119.585 89.4099 116.516C84.5815 114.29 78.9837 118.763 78.9544 124.946Z" fill="white"/>
<path d="M109.925 152.096C109.956 151.129 109.698 150.176 109.184 149.357C108.669 148.539 107.922 147.895 107.038 147.506C103.118 145.479 99.1912 143.445 95.1907 141.58C92.3332 140.251 89.4171 141.411 87.7539 144.253C86.0907 147.095 86.4864 150.524 89.1021 152.074C93.3837 154.64 97.8368 156.907 102.43 158.86C105.947 160.328 109.91 156.656 109.925 152.096Z" fill="white"/>
<path d="M92.1281 66.3285V48.7036C92.1565 47.0582 91.5714 45.4614 90.4874 44.2255C89.4034 42.9895 87.8983 42.2034 86.2666 42.0208C84.4459 41.7154 82.5755 42.0151 80.9405 42.8743C79.3055 43.7334 77.9956 45.1049 77.2106 46.7795C75.5987 50.2091 76.4047 53.5211 79.6285 56.3264C83.5484 59.7779 87.5122 63.1707 91.4614 66.6076L92.1281 66.3285Z" fill="white"/>
<path d="M219.433 186.766C219.473 187.896 219.936 188.969 220.728 189.774C221.52 190.579 222.585 191.057 223.711 191.113C224.294 191.12 224.872 191.01 225.411 190.789C225.95 190.567 226.439 190.24 226.849 189.825C227.259 189.411 227.582 188.918 227.798 188.376C228.014 187.834 228.119 187.254 228.108 186.67C228.119 186.109 228.019 185.552 227.812 185.031C227.605 184.509 227.297 184.035 226.904 183.635C226.511 183.235 226.043 182.918 225.526 182.703C225.009 182.488 224.454 182.378 223.895 182.382C223.311 182.363 222.73 182.462 222.186 182.675C221.641 182.887 221.146 183.208 220.729 183.618C220.312 184.028 219.982 184.518 219.759 185.059C219.536 185.6 219.425 186.18 219.433 186.766Z" fill="white"/>
</g>
<defs>
<clipPath id="clip0_8_231">
<rect width="248" height="211" fill="white"/>
</clipPath>
</defs>
</svg>
