<svg width="331" height="492" viewBox="0 0 331 492" fill="none" xmlns="http://www.w3.org/2000/svg">
<g clip-path="url(#clip0_46_327)">
<path d="M166.804 439.451V444.24V444.773H169.457V447.431H166.753V450.147H164.159V447.475H161.477V452.738H150.838V450.117H148.179V444.751H150.89L150.824 446.584C150.824 446.861 150.824 447.139 150.824 447.467H153.498V450.081H158.832V444.773H161.448V436.809H156.173V439.451H158.788V442.109H153.527V444.744H150.941C150.911 444.654 150.891 444.561 150.882 444.467V437.013C150.882 436.962 150.882 436.903 150.882 436.794H153.52V434.1H164.232V431.494C164.378 431.494 164.532 431.494 164.678 431.494H169.062C169.208 431.494 169.347 431.494 169.486 431.494V428.778H164.663C164.516 428.772 164.37 428.755 164.225 428.727V426.15H161.536V428.72H164.232V431.501C164.071 431.501 163.911 431.457 163.75 431.457H158.847V428.815H156.173V431.465H153.527V428.778H150.89V426.157H148.179V423.522C148.27 423.498 148.363 423.481 148.456 423.471H153.199C153.303 423.482 153.406 423.504 153.505 423.536V426.106H156.165V423.463C155.435 423.463 154.704 423.463 154.046 423.463C153.862 423.477 153.679 423.501 153.498 423.536L153.542 420.777H156.209V415.477H158.869V420.755H161.529V412.841H164.254V415.455H166.863V418.097H174.842V415.462H172.204V412.812H174.871V410.104H180.176V412.819H182.894V415.44H188.25V418.163H190.866V420.784H188.243V423.427H182.909V420.799H185.51V418.17H182.923V420.813H180.22V418.17H177.553V423.018C177.553 423.193 177.553 423.376 177.553 423.551C177.275 423.551 176.997 423.485 176.713 423.485C176.128 423.485 175.543 423.485 174.915 423.485V420.842H172.27V431.472H174.878V434.115H169.603V439.473H166.87V436.809H164.283V439.437L166.804 439.451ZM169.479 420.828H164.196V423.471H166.833V426.113H169.479V420.828Z" fill="white"/>
<path d="M180.088 444.744L177.502 444.781V441.576V436.809H180.132V431.486H177.509V428.778H174.864V426.128H177.48V423.544C177.605 423.502 177.735 423.475 177.867 423.463H180.161V426.113H188.155V428.778H193.467V426.15H190.851V423.507H193.497V420.85H196.156V423.478H198.787V426.164H196.193V434.137H198.802V436.809H196.164V439.459H193.504V446.759C193.504 446.963 193.504 447.168 193.504 447.372H190.917H188.126V442.079H185.459V447.365H182.821V450.022H185.415V452.665H180.118V452.169C180.118 449.833 180.118 447.494 180.118 445.153C180.106 444.994 180.084 444.835 180.052 444.678H182.77V442.079H180.125C180.125 442.569 180.125 443.043 180.125 443.54C180.125 444.036 180.11 444.357 180.088 444.744ZM190.786 439.429V431.494H182.858V439.429H190.786Z" fill="white"/>
<path d="M196.113 404.738C196.113 404.92 196.113 405.095 196.113 405.271C196.113 407.621 196.113 409.972 196.113 412.323V412.812H198.743V415.455H196.135V418.17H190.793C190.793 417.265 190.793 416.353 190.793 415.447H193.453V407.512H190.793V410.14H188.17V412.841H185.452V410.14H184.356H180.096V407.49H177.48V404.825H180.081V396.795H177.465V394.174H180.118V391.546H182.778V404.796C182.924 404.796 183.026 404.796 183.128 404.796C184.663 404.796 186.197 404.796 187.732 404.796C188.031 404.796 188.141 404.723 188.134 404.409C188.134 403.679 188.134 402.949 188.134 402.146H185.481V396.831H190.771V404.767H191.232H195.667C195.811 404.755 195.953 404.728 196.091 404.686L196.113 404.738Z" fill="white"/>
<path d="M126.879 394.159V375.565H145.49V394.159H126.879ZM129.531 391.473H142.815V378.222H129.531V391.473Z" fill="white"/>
<path d="M185.51 375.565H204.114V394.152H185.51V375.565ZM188.192 378.215V391.473H201.454V378.215H188.192Z" fill="white"/>
<path d="M126.879 452.731V434.144H145.49V452.731H126.879ZM129.524 450.081H142.808V436.808H129.524V450.081Z" fill="white"/>
<path d="M153.527 394.196V396.831H156.172V412.805H150.89V410.118H148.179V407.475H145.541V404.723C145.892 404.723 146.272 404.781 146.586 404.789C147.09 404.789 147.594 404.789 148.149 404.789V399.474C148.931 399.474 149.669 399.474 150.4 399.474C150.743 399.474 150.853 399.379 150.838 399.036C150.838 398.306 150.838 397.576 150.838 396.795H148.186V388.837H153.491V391.443H150.868V394.166H153.491L153.527 394.196ZM150.911 404.854V407.468H153.505V404.854H150.911Z" fill="white"/>
<path d="M153.527 434.093H148.201V431.472H137.554V428.778H140.17V426.143H134.887V431.406H132.213V430.742C132.213 430.26 132.213 429.778 132.213 429.282C132.213 428.785 132.213 428.741 131.694 428.741H126.915V426.099H132.22V425.617C132.22 424.157 132.22 422.697 132.22 421.185C132.232 421.026 132.254 420.868 132.286 420.711H134.865V423.39H137.532V420.769H140.199V423.412H145.088C145.249 423.412 145.409 423.412 145.57 423.463C145.57 424.347 145.57 425.237 145.57 426.128H142.867V428.778H145.526C145.526 428.574 145.526 428.398 145.526 428.223C145.526 427.544 145.526 426.865 145.526 426.186H148.135V428.778H150.86V431.486H153.491V434.107L153.527 434.093Z" fill="white"/>
<path d="M161.477 399.576V396.875H158.847V388.888H161.448C161.478 389.033 161.498 389.179 161.507 389.326C161.507 390.786 161.507 392.246 161.507 393.707V394.152H164.159V388.896H161.448C161.478 388.724 161.498 388.551 161.507 388.377V378.222H164.174V383.515H169.552V386.158H166.87V394.188H169.552V396.831H166.855V402.146H164.196V399.547H161.485L161.477 399.576Z" fill="white"/>
<path d="M142.815 412.834H134.865V410.184H132.191V412.797H126.886V404.854H129.495V407.497H145.57V410.125H142.845V412.848L142.815 412.834Z" fill="white"/>
<path d="M174.871 386.158H177.494V394.188H174.864V391.546H172.138V394.218H169.508C169.508 394.072 169.508 393.918 169.508 393.772C169.508 391.385 169.508 388.99 169.508 386.603C169.508 386.457 169.508 386.304 169.508 386.158H172.146V388.837H174.82V388.26C174.82 387.53 174.82 386.851 174.871 386.143V386.158Z" fill="white"/>
<path d="M201.491 436.809V444.759H204.107V447.409H203.814H196.427C196.334 447.416 196.242 447.416 196.149 447.409V442.109H198.78V436.809H201.513H201.491Z" fill="white"/>
<path d="M177.502 444.781V450.081H174.835V447.453H172.19V436.809H174.813V444.788H177.516L177.502 444.781Z" fill="white"/>
<path d="M198.772 426.142H201.527V431.428H204.121V436.808H201.505V434.078H198.772C198.772 432.333 198.772 430.588 198.772 428.844C198.772 427.931 198.772 427.019 198.772 426.106V426.142Z" fill="white"/>
<path d="M177.502 378.193V375.58H182.807V383.515H177.502V380.909H180.125V378.186H177.494L177.502 378.193Z" fill="white"/>
<path d="M172.16 402.168V399.511H169.537V396.817H172.175V394.181H174.893C174.893 394.349 174.893 394.51 174.893 394.67C174.893 396.999 174.893 399.321 174.893 401.65V402.146H172.219L172.16 402.168Z" fill="white"/>
<path d="M134.851 402.153H129.539V396.868H134.843V402.161L134.851 402.153Z" fill="white"/>
<path d="M196.149 447.394V452.731H188.192V450.117H193.541V447.394H196.178H196.149Z" fill="white"/>
<path d="M156.085 378.149C156.126 378.219 156.153 378.296 156.165 378.376V383.486H153.527V380.865H150.897V375.565H153.513V378.142H156.107L156.085 378.149Z" fill="white"/>
<path d="M201.527 426.172C201.527 425.362 201.527 424.558 201.527 423.755C201.527 422.784 201.527 421.821 201.527 420.835H198.831V418.207H204.092V426.179H201.498L201.527 426.172Z" fill="white"/>
<path d="M142.779 415.425V418.207C142.619 418.179 142.458 418.162 142.297 418.156H134.873V415.484H142.333C142.479 415.484 142.633 415.484 142.779 415.484V415.425Z" fill="white"/>
<path d="M153.528 420.791H150.868V418.163H148.215V415.506H153.513V420.806L153.528 420.791Z" fill="white"/>
<path d="M169.53 380.894H166.848V375.572H172.131V378.178H169.523V380.902L169.53 380.894Z" fill="white"/>
<path d="M169.537 383.515C169.537 382.639 169.537 381.756 169.537 380.88C170.107 380.88 170.677 380.88 171.247 380.88C172.314 380.88 173.373 380.88 174.44 380.88C174.602 380.888 174.763 380.908 174.922 380.938C174.89 381.023 174.868 381.111 174.856 381.201C174.856 382.792 174.856 384.384 174.856 385.975C174.85 386.041 174.85 386.107 174.856 386.172H172.131V383.515H169.493H169.537Z" fill="white"/>
<path d="M132.257 420.747L130.065 420.791H129.502V423.427H126.872V418.17H132.169C132.169 418.82 132.169 419.47 132.169 420.12C132.18 420.332 132.202 420.544 132.235 420.755L132.257 420.747Z" fill="white"/>
<path d="M198.75 402.139C198.75 401.62 198.794 401.109 198.809 400.591C198.809 400.255 198.809 399.912 198.809 399.54H204.106V404.796H201.505V402.124H198.743L198.75 402.139Z" fill="white"/>
<path d="M172.16 412.834H169.559C169.533 412.736 169.516 412.636 169.508 412.535C169.508 410.921 169.508 409.308 169.508 407.694C169.501 407.629 169.501 407.563 169.508 407.497H172.124V412.834H172.16Z" fill="white"/>
<path d="M166.775 450.146C167.024 450.146 167.265 450.146 167.506 450.146H172.124V452.767H166.782V450.183L166.775 450.146Z" fill="white"/>
<path d="M196.179 402.131H193.511V396.86H196.171V402.131H196.179Z" fill="white"/>
<path d="M137.452 402.139C137.452 401.722 137.503 401.306 137.518 400.89C137.533 400.474 137.518 400 137.518 399.51H142.384C142.533 399.503 142.682 399.503 142.83 399.51C142.83 400.394 142.83 401.277 142.83 402.16H138C137.825 402.16 137.649 402.16 137.474 402.16L137.452 402.139Z" fill="white"/>
<path d="M201.52 410.096L203.317 410.147H204.114V415.447H201.534C201.514 415.414 201.499 415.377 201.491 415.338V410.286C201.487 410.22 201.487 410.155 201.491 410.089L201.52 410.096Z" fill="white"/>
<path d="M142.823 399.576V396.897H145.49V399.576H142.823Z" fill="white"/>
<path d="M169.537 407.497H166.855V404.789H169.523V407.512L169.537 407.497Z" fill="white"/>
<path d="M158.847 388.859H156.195V386.224H158.832V388.874L158.847 388.859Z" fill="white"/>
<path d="M153.528 391.487H156.165V394.196H153.535V391.473L153.528 391.487Z" fill="white"/>
<path d="M145.563 404.752C145.307 404.752 145.059 404.818 144.832 404.825H142.823V402.182H145.585V404.752H145.563Z" fill="white"/>
<path d="M201.527 410.089H198.831V407.526H201.505V410.096L201.527 410.089Z" fill="white"/>
<path d="M148.15 410.118V412.834H145.534V410.125H148.172L148.15 410.118Z" fill="white"/>
<path d="M164.218 412.87V410.169H166.804V412.863H164.218V412.87Z" fill="white"/>
<path d="M142.786 415.433V412.834H145.497V415.425H142.757L142.786 415.433Z" fill="white"/>
<path d="M142.779 418.207H145.555V420.748H142.786V418.178L142.779 418.207Z" fill="white"/>
<path d="M156.092 378.149C156.127 377.971 156.152 377.791 156.165 377.609C156.165 376.945 156.165 376.273 156.165 375.58H158.81V378.149H156.085H156.092Z" fill="white"/>
<path d="M145.556 420.748H148.15V423.493H145.512V420.74L145.556 420.748Z" fill="white"/>
<path d="M174.908 380.931C174.908 380.624 174.842 380.318 174.835 380.004C174.835 379.42 174.835 378.836 174.835 378.193H177.509V380.902H174.908V380.931Z" fill="white"/>
<path d="M148.193 383.515H150.846C150.846 384.333 150.846 385.136 150.846 385.939C150.846 386.012 150.729 386.143 150.67 386.143C149.852 386.143 149.034 386.143 148.201 386.143L148.193 383.515Z" fill="white"/>
<path d="M198.743 402.124C198.743 402.504 198.802 402.854 198.809 403.256C198.809 403.759 198.809 404.263 198.809 404.869L196.12 404.738C196.12 404.007 196.12 403.277 196.12 402.547C196.12 402.401 196.12 402.248 196.12 402.102H198.699L198.743 402.124Z" fill="white"/>
<path d="M169.53 404.789V402.168H172.16V404.781H169.537L169.53 404.789Z" fill="white"/>
<path d="M134.844 402.161H137.445C137.445 402.423 137.51 402.693 137.518 402.956C137.518 403.569 137.518 404.183 137.518 404.825H134.858V402.182L134.844 402.161Z" fill="white"/>
<path d="M161.47 399.532V402.139H158.876V399.576H161.478L161.47 399.532Z" fill="white"/>
<path d="M204.129 450.132V452.724H201.505V450.132H204.129Z" fill="white"/>
<path d="M188.177 412.834H190.815V415.469H188.177V412.834Z" fill="white"/>
<path d="M185.51 434.136H188.133V436.75H185.51V434.136Z" fill="white"/>
<path d="M132.228 380.887H140.148V388.823H132.228V380.887Z" fill="white"/>
<path d="M190.837 388.83V380.894H198.787V388.83H190.837Z" fill="white"/>
<path d="M132.213 447.394V439.48H140.148V447.394H132.213Z" fill="white"/>
<path d="M331.008 15.4257V0.0216945H283.739C258.456 0.0216945 58.902 -0.0440096 33.6198 0.0216945C23.6896 0.0216945 14.7677 3.00027 8.0087 10.6877C2.07542 17.4333 0.00756836 25.6025 0.00756836 34.3923C0.00756836 104.477 0.00756836 254.355 0.00756836 324.461C0.00756836 324.593 0.00756836 324.732 0.00756836 324.863V341.311V351.648C0.00756836 387.177 0.00756836 422.694 0.00756836 458.199C0.00756836 459.119 0.00754338 460.046 0.0733064 460.958C1.01591 477.304 11.1507 488.649 27.27 491.438C27.9029 491.58 28.5275 491.758 29.1406 491.971H301.429C301.801 491.796 302.187 491.655 302.583 491.547C319.952 488.627 329.809 477.983 330.62 460.418C330.818 456.257 330.847 452.088 330.832 447.92V429.829C330.832 428.654 330.891 427.478 330.942 426.296C331.03 424.188 330.994 422.077 330.832 419.973V351.685V341.347C330.832 239.871 330.832 79.2609 330.832 15.4257H331.008ZM315.546 399.021C315.412 399.785 315.346 400.56 315.349 401.335C315.561 419.827 315.451 438.319 315.422 456.819C315.416 458.658 315.282 460.495 315.02 462.316C313.917 469.894 309.591 474.574 302.057 476.026C299.334 476.475 296.574 476.668 293.815 476.603C208.415 476.632 123.016 476.632 37.6167 476.603C35.5269 476.603 33.4298 476.603 31.3473 476.435C22.1478 475.705 16.6383 470.332 15.6373 461.155C15.4643 459.24 15.3935 457.318 15.4253 455.395C15.4253 420.84 15.4253 386.27 15.4253 351.685H315.561L315.546 399.021ZM15.4107 341.347V324.98C15.4107 324.25 15.4107 323.52 15.4107 322.841V322.388C15.4107 254.1 15.4107 106.733 15.4107 38.7726C15.4107 36.2612 15.4107 33.7425 15.5861 31.2457C16.3898 21.9084 22.0966 16.2944 31.4569 15.579C33.4517 15.4257 35.4685 15.4257 37.4779 15.4257H315.531V341.347H15.4107Z" fill="white"/>
</g>
<defs>
<clipPath id="clip0_46_327">
<rect width="331" height="492" fill="white"/>
</clipPath>
</defs>
</svg>
