<svg width="29" height="29" viewBox="0 0 29 29" fill="none" xmlns="http://www.w3.org/2000/svg">
<g clip-path="url(#clip0_565_983)">
<path d="M16.7085 0C16.8818 0.0487842 17.0552 0.0887018 17.224 0.141921C17.8244 0.320837 18.3526 0.685056 18.7326 1.18227C19.1127 1.67949 19.325 2.28411 19.3393 2.90931C19.3659 4.94938 19.3393 6.98945 19.3393 9.02508C19.3454 9.10773 19.3343 9.19075 19.3066 9.2689C19.279 9.34704 19.2354 9.4186 19.1786 9.47904C19.1217 9.53949 19.053 9.58752 18.9766 9.62007C18.9002 9.65262 18.8179 9.66899 18.7349 9.66815C18.6518 9.66538 18.5701 9.64589 18.4947 9.61086C18.4193 9.57582 18.3518 9.52596 18.2962 9.46425C18.2406 9.40255 18.1981 9.33027 18.1711 9.25176C18.1442 9.17324 18.1334 9.09011 18.1394 9.00734V3.20202C18.1653 2.93467 18.1319 2.6649 18.0414 2.41193C17.9509 2.15896 17.8057 1.92901 17.616 1.73845C17.4264 1.54789 17.1969 1.40141 16.9441 1.30943C16.6912 1.21745 16.4211 1.18224 16.1531 1.2063H6.60787V1.25952L7.38553 1.53005C8.35871 1.8538 9.33634 2.17311 10.3095 2.5013C10.8489 2.646 11.3211 2.97328 11.6454 3.42714C11.9696 3.881 12.1258 4.43322 12.087 4.9893C12.087 10.3615 12.087 15.7322 12.087 21.1014C12.087 22.0372 12.087 22.9685 12.087 23.9043C12.087 23.9797 12.087 24.0506 12.087 24.1526C12.1848 24.1526 12.2737 24.1526 12.367 24.1526H16.1575C16.421 24.172 16.6856 24.1343 16.9331 24.042C17.1806 23.9497 17.4051 23.8051 17.5913 23.618C17.7775 23.431 17.9209 23.2059 18.0117 22.9583C18.1024 22.7106 18.1385 22.4463 18.1172 22.1835V16.4846C18.1144 16.3526 18.1324 16.2209 18.1705 16.0944C18.2139 15.968 18.3004 15.8609 18.415 15.792C18.5296 15.723 18.6649 15.6966 18.7971 15.7174C18.9334 15.7286 19.0618 15.7863 19.1605 15.8807C19.2592 15.9752 19.3224 16.1008 19.3393 16.2363C19.3393 16.3294 19.3393 16.427 19.3393 16.5201V22.1835C19.3644 22.609 19.299 23.035 19.1474 23.4335C18.9958 23.832 18.7614 24.194 18.4596 24.4956C18.1578 24.7972 17.7955 25.0316 17.3964 25.1835C16.9973 25.3354 16.5706 25.4012 16.1442 25.3767H12.0781V26.3524C12.0781 27.776 11.4516 28.5964 10.0696 28.9645C10.0696 28.9645 10.0429 28.9867 10.0251 29H9.2919L8.70533 28.8049C6.42123 28.0421 4.13417 27.2793 1.84415 26.5164C1.28793 26.3773 0.798445 26.0474 0.461317 25.5845C0.12419 25.1216 -0.0391083 24.555 -7.95024e-06 23.9841V12.0098C-7.95024e-06 8.84029 -7.95024e-06 5.66932 -7.95024e-06 2.49687C-0.0179249 2.01409 0.112531 1.53738 0.373855 1.13072C0.635179 0.724054 1.01487 0.406879 1.46199 0.221746C1.6504 0.142554 1.84329 0.0744322 2.03968 0.0177367L16.7085 0ZM10.8961 15.6996C10.8961 12.134 10.8961 8.56681 10.8961 4.99817C10.9314 4.68931 10.8498 4.37843 10.6673 4.12653C10.4848 3.87463 10.2145 3.6999 9.90958 3.63664L8.30094 3.10445C6.49677 2.51313 4.69261 1.91293 2.88844 1.30387C2.63044 1.18868 2.33872 1.17347 2.0701 1.26119C1.80147 1.34891 1.57519 1.53329 1.43533 1.7784C1.30036 2.04499 1.23176 2.34012 1.23536 2.63878C1.23536 9.10491 1.23536 15.5696 1.23536 22.0327C1.23536 22.7024 1.23536 23.3632 1.23536 24.0417C1.20992 24.3327 1.28954 24.6231 1.45986 24.8606C1.63018 25.0981 1.87996 25.267 2.16411 25.3368C4.53411 26.1321 6.90412 26.923 9.27413 27.7094C9.45248 27.7706 9.64181 27.7932 9.8296 27.776C10.1396 27.7391 10.4235 27.5844 10.6221 27.3441C10.8207 27.1037 10.9189 26.7961 10.8961 26.4854C10.8961 22.8931 10.8961 19.2979 10.8961 15.6996Z" fill="white"/>
<path d="M29 12.9145C28.8489 13.0786 28.6978 13.2427 28.5556 13.3979C27.0744 14.8762 25.6064 16.3442 24.1518 17.8018C24.0734 17.8853 23.9871 17.9611 23.8941 18.028C23.775 18.1067 23.6311 18.1394 23.4896 18.1198C23.348 18.1002 23.2185 18.0297 23.1253 17.9215C23.0346 17.8173 22.9824 17.6851 22.9775 17.5471C22.9727 17.409 23.0154 17.2735 23.0987 17.1632C23.1628 17.0815 23.2342 17.0058 23.312 16.937L26.6715 13.5753C26.7426 13.4999 26.8137 13.429 26.9336 13.2959H16.5752C16.4262 13.3014 16.2771 13.2895 16.1309 13.2604C16.0031 13.2284 15.8897 13.1548 15.8087 13.0511C15.7277 12.9475 15.6837 12.8198 15.6837 12.6883C15.6837 12.5569 15.7277 12.4292 15.8087 12.3255C15.8897 12.2219 16.0031 12.1482 16.1309 12.1162C16.2771 12.0871 16.4262 12.0752 16.5752 12.0807H26.9159L26.6803 11.8235C25.5339 10.6793 24.3785 9.5351 23.2409 8.37758C23.0953 8.23409 23.0001 8.04737 22.9698 7.84539C22.9683 7.74106 22.9948 7.63823 23.0465 7.54754C23.0982 7.45685 23.1733 7.38161 23.2639 7.3296C23.3546 7.27758 23.4575 7.25069 23.562 7.25171C23.6666 7.25272 23.769 7.28161 23.8586 7.33537C23.9514 7.39918 24.0378 7.47197 24.1163 7.55268L28.7823 12.1961C28.8622 12.2759 28.9289 12.3601 29 12.4444V12.9145Z" fill="white"/>
</g>
<defs>
<clipPath id="clip0_565_983">
<rect width="29" height="29" fill="white"/>
</clipPath>
</defs>
</svg>
