<svg width="262" height="197" viewBox="0 0 262 197" fill="none" xmlns="http://www.w3.org/2000/svg">
<path d="M128.101 41.7448C128.128 63.3025 128.207 84.8604 128.149 106.418C128.131 113.107 123.76 117.558 117.695 117.531C111.691 117.505 107.599 112.992 107.604 106.193C107.619 85.1449 107.691 64.0965 107.741 43.05C110.158 47.274 113.555 50.2872 118.632 49.8911C123.528 49.5091 126.544 46.3247 128.101 41.7448Z" fill="#F10062"/>
<path d="M135.426 100.418C135.428 91.6625 135.349 82.9058 135.457 74.1515C135.525 68.6972 138.369 64.8659 143.002 63.467C147.251 62.1841 151.776 63.8056 154.364 67.5631C155.86 69.7337 156.336 72.1892 156.335 74.7803C156.329 91.9125 156.362 109.045 156.321 126.177C156.303 133.409 152.096 138.017 145.747 137.963C139.589 137.91 135.482 133.331 135.438 126.308C135.383 117.678 135.425 109.048 135.426 100.418ZM156.003 94.1C156.08 88.3798 151.789 83.7958 146.222 83.6517C140.404 83.501 135.794 87.947 135.729 93.7706C135.664 99.6492 140.14 104.265 145.894 104.253C151.494 104.24 155.927 99.7885 156.003 94.1Z" fill="#FFE509"/>
<path d="M80.4001 105.044C80.2764 86.2746 79.9823 67.5046 80.5514 48.7403C82.777 54.0264 86.0736 56.6507 90.5956 56.4886C95.7688 56.3033 98.971 53.4615 100.58 48.6588C100.673 56.6084 100.831 64.5579 100.844 72.5077C100.862 83.3672 100.77 94.2269 100.726 105.086C98.7798 100.627 95.7657 97.4546 90.578 97.4412C85.3859 97.4277 82.365 100.596 80.4001 105.044Z" fill="#26E0E7"/>
<path d="M183.852 62.8784C183.876 74.5654 183.9 86.2524 183.924 97.9401C181.815 93.281 178.735 90.085 173.111 90.3361C167.985 90.565 165.394 93.8224 163.466 97.9927C163.489 86.269 163.513 74.5454 163.537 62.8225C164.313 64.1041 164.938 65.5116 165.889 66.6445C171.076 72.8195 179.459 71.0371 183.852 62.8784Z" fill="#26E0E7"/>
<path d="M135.539 45.7655C135.87 39.9906 140.802 35.4283 146.35 35.765C152.009 36.1084 156.584 41.1755 156.233 46.7123C155.869 52.4651 150.904 57.0503 145.403 56.7142C139.719 56.367 135.219 51.3713 135.539 45.7655Z" fill="#F10062"/>
<path d="M183.852 62.8784C179.459 71.0371 171.076 72.8195 165.889 66.6445C164.938 65.5116 164.313 64.1041 163.537 62.8225C163.434 60.8052 163.132 58.7868 163.771 56.7924C165.352 51.8551 170.352 48.6464 175.249 49.4493C180.308 50.2787 183.946 54.5931 183.982 59.8409C183.989 60.8531 183.898 61.8659 183.852 62.8784Z" fill="#FFE509"/>
<path d="M100.58 48.6588C98.971 53.4615 95.7688 56.3033 90.5956 56.4886C86.0736 56.6507 82.777 54.0264 80.5514 48.7403C80.5717 46.7427 80.1914 44.7415 80.927 42.771C82.8583 37.5978 87.4419 35.3988 93.9149 36.6068C97.4192 37.2608 100.564 41.6567 100.632 46.0203C100.646 46.8993 100.599 47.7792 100.58 48.6588Z" fill="#FFE509"/>
<path d="M107.572 134.279C107.571 128.338 111.946 123.939 117.827 123.969C123.636 123.998 128.192 128.536 128.2 134.302C128.208 139.922 123.444 144.673 117.798 144.674C112.015 144.676 107.573 140.159 107.572 134.279Z" fill="#FFE509"/>
<path d="M128.101 41.7448C126.544 46.3247 123.528 49.5091 118.632 49.8911C113.555 50.2872 110.158 47.274 107.741 43.05C107.257 40.6398 107.269 38.2317 107.744 35.8216C110.248 32.0003 113.265 28.6777 118.246 28.9979C123.272 29.321 126.395 32.4776 128.102 37.1033C128.102 38.6504 128.102 40.1976 128.101 41.7448Z" fill="#26E0E7"/>
<path d="M80.4001 105.044C82.365 100.596 85.3859 97.4277 90.5779 97.4412C95.7657 97.4546 98.7798 100.627 100.726 105.086C100.945 106.882 101.06 108.669 100.245 110.371C99.0069 115.247 95.6472 117.933 90.8292 118.091C85.4637 118.268 82.5414 115.087 80.3801 110.761C80.3868 108.855 80.3934 106.95 80.4001 105.044Z" fill="#44239D"/>
<path d="M163.465 97.9927C165.394 93.8224 167.985 90.565 173.111 90.3361C178.735 90.085 181.815 93.281 183.924 97.9401C183.984 99.5608 184.173 101.195 183.443 102.737C182.91 106.859 180.36 109.237 176.591 110.414C171.094 112.131 166.976 109.828 163.465 103.219C163.465 101.477 163.465 99.7348 163.465 97.9927Z" fill="#F10062"/>
<path d="M128.102 37.1033C126.395 32.4776 123.272 29.321 118.246 28.9979C113.265 28.6777 110.248 32.0003 107.744 35.8216C107.702 32.1595 107.526 28.4908 107.649 24.8322C107.827 19.566 111.808 15.4782 116.923 15.0389C122.029 14.6004 126.616 17.9069 127.735 23.1182C128.726 27.7308 128.071 32.4373 128.102 37.1033Z" fill="#F10062"/>
<path d="M163.465 103.219C166.976 109.828 171.094 112.131 176.591 110.414C180.36 109.237 182.91 106.859 183.443 102.737C184.531 107.319 184.342 112.002 183.647 116.532C182.871 121.59 177.697 124.946 172.717 124.386C167.493 123.799 163.625 119.822 163.439 114.584C163.304 110.801 163.447 107.008 163.465 103.219Z" fill="#26E0E7"/>
<path d="M80.3801 110.761C82.5414 115.087 85.4637 118.268 90.8292 118.091C95.6472 117.933 99.0069 115.247 100.245 110.371C101.386 114.814 101.344 119.348 100.297 123.713C99.0369 128.966 94.4398 131.668 88.986 131.002C84.284 130.429 80.5325 126.419 80.3152 121.41C80.1615 117.868 80.3464 114.311 80.3801 110.761Z" fill="#26E0E7"/>
<path d="M156.003 94.1C155.927 99.7885 151.494 104.24 145.894 104.253C140.14 104.265 135.664 99.6492 135.729 93.7706C135.794 87.947 140.404 83.501 146.222 83.6517C151.789 83.7958 156.08 88.3798 156.003 94.1Z" fill="#F10062"/>
<path d="M46.424 162.6H50.312L58.456 185H54.936L53.384 180.744H43.352L41.816 185H38.28L46.424 162.6ZM44.584 177.416H52.152L48.36 167.016L44.584 177.416ZM61.2638 185V162.6H64.5918V181.672H74.2398V185H61.2638ZM86.3978 185.416C84.8404 185.416 83.3898 185.117 82.0458 184.52C80.7124 183.912 79.5444 183.075 78.5418 182.008C77.5498 180.931 76.7711 179.688 76.2057 178.28C75.6511 176.872 75.3738 175.373 75.3738 173.784C75.3738 172.109 75.6724 170.568 76.2698 169.16C76.8671 167.752 77.6831 166.531 78.7178 165.496C79.7524 164.451 80.9311 163.64 82.2538 163.064C83.5871 162.488 84.9844 162.2 86.4458 162.2C88.0991 162.2 89.6884 162.584 91.2138 163.352C92.7391 164.12 94.0671 165.272 95.1978 166.808L92.2218 168.424C91.4538 167.464 90.5578 166.739 89.5338 166.248C88.5204 165.757 87.4804 165.512 86.4138 165.512C85.3791 165.512 84.3978 165.725 83.4698 166.152C82.5418 166.568 81.7204 167.155 81.0058 167.912C80.2911 168.659 79.7258 169.539 79.3098 170.552C78.9044 171.555 78.7018 172.648 78.7018 173.832C78.7018 174.973 78.8991 176.045 79.2938 177.048C79.6991 178.051 80.2538 178.931 80.9578 179.688C81.6724 180.435 82.4938 181.021 83.4218 181.448C84.3604 181.875 85.3631 182.088 86.4298 182.088C87.2191 182.088 87.9764 181.96 88.7018 181.704C89.4271 181.448 90.0991 181.085 90.7178 180.616C91.3471 180.136 91.8964 179.565 92.3658 178.904C92.8351 178.243 93.2084 177.507 93.4858 176.696H88.7338V173.752H97.3898C97.4111 175.352 97.1338 176.856 96.5578 178.264C95.9924 179.672 95.2031 180.915 94.1898 181.992C93.1871 183.059 92.0191 183.896 90.6858 184.504C89.3524 185.112 87.9231 185.416 86.3978 185.416ZM110.758 185.416C109.243 185.416 107.819 185.117 106.486 184.52C105.152 183.912 103.979 183.075 102.966 182.008C101.952 180.941 101.158 179.709 100.582 178.312C100.006 176.904 99.7175 175.4 99.7175 173.8C99.7175 172.2 100.006 170.701 100.582 169.304C101.158 167.896 101.952 166.659 102.966 165.592C103.979 164.525 105.152 163.693 106.486 163.096C107.819 162.488 109.243 162.184 110.758 162.184C112.283 162.184 113.712 162.488 115.046 163.096C116.379 163.693 117.552 164.525 118.566 165.592C119.579 166.659 120.368 167.896 120.934 169.304C121.51 170.701 121.798 172.2 121.798 173.8C121.798 175.4 121.51 176.904 120.934 178.312C120.368 179.709 119.579 180.941 118.566 182.008C117.552 183.075 116.379 183.912 115.046 184.52C113.712 185.117 112.283 185.416 110.758 185.416ZM110.758 182.088C111.824 182.088 112.822 181.869 113.75 181.432C114.678 180.995 115.494 180.397 116.198 179.64C116.912 178.872 117.467 177.992 117.862 177C118.267 175.997 118.47 174.931 118.47 173.8C118.47 172.669 118.267 171.603 117.862 170.6C117.467 169.597 116.912 168.717 116.198 167.96C115.494 167.192 114.678 166.595 113.75 166.168C112.822 165.731 111.824 165.512 110.758 165.512C109.691 165.512 108.694 165.731 107.766 166.168C106.838 166.605 106.016 167.208 105.302 167.976C104.598 168.733 104.043 169.613 103.638 170.616C103.243 171.608 103.046 172.669 103.046 173.8C103.046 174.941 103.243 176.013 103.638 177.016C104.043 178.008 104.598 178.888 105.302 179.656C106.016 180.413 106.838 181.011 107.766 181.448C108.694 181.875 109.691 182.088 110.758 182.088ZM124.826 185V162.6H133.066C134.282 162.6 135.376 162.899 136.346 163.496C137.317 164.093 138.085 164.899 138.65 165.912C139.226 166.915 139.514 168.035 139.514 169.272C139.514 170.317 139.317 171.272 138.922 172.136C138.538 173 137.994 173.736 137.29 174.344C136.597 174.952 135.802 175.389 134.906 175.656L140.314 185H136.458L131.21 175.96H128.154V185H124.826ZM128.154 172.632H132.714C133.354 172.632 133.936 172.472 134.458 172.152C134.992 171.832 135.413 171.405 135.722 170.872C136.032 170.339 136.186 169.736 136.186 169.064C136.186 168.392 136.032 167.789 135.722 167.256C135.413 166.712 134.992 166.285 134.458 165.976C133.936 165.656 133.354 165.496 132.714 165.496H128.154V172.632ZM160.052 162.6V165.928H152.916V185H149.588V165.928H142.468V162.6H160.052ZM176.72 162.6H180.048V185H176.72V174.664H166.592V185H163.264V162.6H166.592V171.336H176.72V162.6ZM184.369 185V162.6H187.697V185H184.369ZM192.014 185L196.35 162.6H199.038L204.782 177.688L210.494 162.6H213.182L217.534 185H214.142L211.246 170.008L205.886 184.152H203.646L198.302 170.008L195.406 185H192.014ZM221.275 185V162.6H224.603V185H221.275Z" fill="white"/>
</svg>
