<svg width="22" height="21" viewBox="0 0 22 21" fill="none" xmlns="http://www.w3.org/2000/svg">
<g clip-path="url(#clip0_14_509)">
<path d="M7.65012 21.001H7.5544C7.04132 19.9453 6.38083 18.9675 5.81415 17.9397C5.72322 17.7746 5.5691 17.765 5.41212 17.7305C4.41947 17.5126 3.42969 17.2823 2.43705 17.0664C2.20635 17.0165 2.08383 16.9503 2.11733 16.6643C2.23986 15.6365 2.32984 14.6039 2.43896 13.5733C2.45428 13.4245 2.46193 13.2959 2.35185 13.1741C1.56501 12.3008 0.780084 11.4259 -0.00292969 10.5494V10.4535C0.783913 9.58018 1.57076 8.7069 2.3576 7.83362C2.39346 7.79159 2.41927 7.7419 2.43304 7.68834C2.44681 7.63478 2.44818 7.57878 2.43705 7.52461C2.33558 6.49299 2.25709 5.45944 2.12978 4.43166C2.08957 4.1025 2.16519 3.98926 2.48395 3.92496C3.46415 3.72632 4.43766 3.49504 5.41403 3.27816C5.55091 3.24745 5.69354 3.25033 5.77969 3.09775C6.35403 2.05845 7.03271 1.07385 7.5544 0.000960586H7.65012C8.68967 0.465431 9.73113 0.92798 10.7688 1.39725C10.8321 1.42961 10.9018 1.44743 10.9728 1.44942C11.0438 1.45141 11.1144 1.43753 11.1794 1.40876L14.3507 0H14.4464C14.9653 1.05561 15.6162 2.03542 16.1867 3.06224C16.2824 3.2273 16.4317 3.2369 16.5887 3.27144C17.5814 3.48928 18.5711 3.71864 19.5638 3.93456C19.7945 3.98446 19.9161 4.04972 19.8816 4.33665C19.7591 5.3654 19.67 6.39798 19.5619 7.42864C19.5456 7.57739 19.537 7.70406 19.648 7.8269C20.4355 8.70018 21.2208 9.57538 22.0038 10.4525V10.5485C21.1652 11.3747 20.4377 12.3017 19.6432 13.1683C19.6071 13.2102 19.5812 13.2599 19.5674 13.3135C19.5536 13.3671 19.5524 13.4232 19.5638 13.4773C19.6653 14.508 19.7447 15.5415 19.8701 16.5693C19.9103 16.8975 19.8356 17.0127 19.5169 17.077C18.5367 17.2746 17.5632 17.5059 16.5868 17.7238C16.4499 17.7545 16.3073 17.7516 16.2211 17.9042C15.6392 18.9415 14.9768 19.9309 14.4464 21H14.3507L11.1919 19.5836C11.1337 19.5578 11.0706 19.5453 11.007 19.547C10.9434 19.5486 10.881 19.5644 10.8243 19.5932L7.65012 21.001ZM15.5721 8.086C15.5627 7.80666 15.4711 7.53633 15.309 7.30893C15.1469 7.08153 14.9214 6.90718 14.6609 6.80775C14.1554 6.61582 13.6902 6.73386 13.3026 7.206C12.293 8.43755 11.2905 9.6771 10.2949 10.9246C10.1102 11.1559 9.9982 11.1847 9.779 10.9717C9.35782 10.56 8.92419 10.1569 8.46568 9.78746C7.91336 9.3441 7.23181 9.44007 6.7666 9.97939C6.30138 10.5187 6.31 11.2125 6.81829 11.6924C7.61757 12.4476 8.43792 13.1808 9.24486 13.9274C9.9312 14.5627 10.6185 14.3468 11.0837 13.8065C12.4975 12.1626 13.8712 10.4842 15.2601 8.81629C15.4385 8.61136 15.5485 8.35572 15.575 8.08504L15.5721 8.086Z" fill="#10A54A"/>
</g>
<defs>
<clipPath id="clip0_14_509">
<rect width="22" height="21" fill="white"/>
</clipPath>
</defs>
</svg>
