<svg width="25" height="25" viewBox="0 0 25 25" fill="none" xmlns="http://www.w3.org/2000/svg">
<path fill-rule="evenodd" clip-rule="evenodd" d="M19.1966 8.77194H18.752V7.89474H19.1966C19.848 7.89474 20.4173 8.23708 20.7287 8.74785C20.7287 8.74783 20.7287 8.74787 20.7287 8.74785L22.0678 10.9406L21.3022 11.3919L19.9629 9.19891C19.8064 8.94217 19.5219 8.77194 19.1966 8.77194Z" fill="#AFAFAF"/>
<path fill-rule="evenodd" clip-rule="evenodd" d="M5.35693 8.77194C4.12402 8.77194 3.12479 9.75364 3.12479 10.9649V23.2456C3.12479 23.7301 3.52447 24.1228 4.01765 24.1228H20.5355C21.0287 24.1228 21.4284 23.7301 21.4284 23.2456V19.2983H22.3212V23.2456C22.3212 24.2146 21.5218 25 20.5355 25H4.01765C3.03136 25 2.23193 24.2146 2.23193 23.2456V10.9649C2.23193 9.26918 3.63091 7.89474 5.35693 7.89474H12.4993V8.77194H5.35693Z" fill="#AFAFAF"/>
<path d="M20.5359 22.3684H19.6431V23.2456H20.5359V22.3684Z" fill="#AFAFAF"/>
<path d="M18.7498 22.3684H17.8569V23.2456H18.7498V22.3684Z" fill="#AFAFAF"/>
<path d="M16.9641 22.3684H16.0713V23.2456H16.9641V22.3684Z" fill="#AFAFAF"/>
<path fill-rule="evenodd" clip-rule="evenodd" d="M15.6251 5.70175C14.1458 5.70175 12.9466 6.87994 12.9466 8.33333C12.9466 9.06992 13.2541 9.73551 13.7509 10.2134L13.1262 10.8401C12.4649 10.204 12.0537 9.31516 12.0537 8.33333C12.0537 6.39548 13.6527 4.82455 15.6251 4.82455C17.5976 4.82455 19.1966 6.39548 19.1966 8.33333C19.1966 9.31525 18.7853 10.2035 18.1242 10.84L17.4993 10.2135C17.9962 9.73507 18.3037 9.06982 18.3037 8.33333C18.3037 6.87994 17.1045 5.70175 15.6251 5.70175Z" fill="#AFAFAF"/>
<path fill-rule="evenodd" clip-rule="evenodd" d="M15.6251 7.45614C15.1319 7.45614 14.7322 7.84881 14.7322 8.33333H13.8394C13.8394 7.36435 14.6388 6.57895 15.6251 6.57895V7.45614Z" fill="#AFAFAF"/>
<path fill-rule="evenodd" clip-rule="evenodd" d="M8.03564 1.75439C6.80287 1.75439 5.8035 2.73622 5.8035 3.94737C5.8035 5.15852 6.80287 6.14036 8.03564 6.14036C9.26842 6.14036 10.2678 5.15852 10.2678 3.94737C10.2678 2.73622 9.26842 1.75439 8.03564 1.75439ZM4.91064 3.94737C4.91064 2.25176 6.30975 0.877197 8.03564 0.877197C9.76153 0.877197 11.1606 2.25176 11.1606 3.94737C11.1606 5.64298 9.76153 7.01755 8.03564 7.01755C6.30975 7.01755 4.91064 5.64298 4.91064 3.94737Z" fill="#AFAFAF"/>
<path fill-rule="evenodd" clip-rule="evenodd" d="M8.03557 3.50878C7.78883 3.50878 7.58915 3.70496 7.58915 3.94738H6.69629C6.69629 3.2205 7.29572 2.63159 8.03557 2.63159V3.50878Z" fill="#AFAFAF"/>
<path fill-rule="evenodd" clip-rule="evenodd" d="M18.7499 2.63159C17.7638 2.63159 16.9641 3.41724 16.9641 4.38597C16.9641 4.71215 17.0544 5.01613 17.2115 5.27741L16.4427 5.72349C16.2069 5.33125 16.0713 4.87383 16.0713 4.38597C16.0713 2.93278 17.2707 1.75439 18.7499 1.75439C20.229 1.75439 21.4284 2.93278 21.4284 4.38597C21.4284 5.83917 20.229 7.01755 18.7499 7.01755C18.4895 7.01755 18.2371 6.98076 17.9983 6.91224L18.2487 6.07024C18.4073 6.11575 18.5754 6.14036 18.7499 6.14036C19.7359 6.14036 20.5356 5.35471 20.5356 4.38597C20.5356 3.41724 19.7359 2.63159 18.7499 2.63159Z" fill="#AFAFAF"/>
<path fill-rule="evenodd" clip-rule="evenodd" d="M0.892857 13.1579V14.0351H0V13.1579H0.892857Z" fill="#AFAFAF"/>
<path fill-rule="evenodd" clip-rule="evenodd" d="M0.892857 7.89474V12.2807H0V7.89474H0.892857Z" fill="#AFAFAF"/>
<path fill-rule="evenodd" clip-rule="evenodd" d="M4.01786 6.14035V7.01754H3.125V6.14035H4.01786Z" fill="#AFAFAF"/>
<path fill-rule="evenodd" clip-rule="evenodd" d="M4.01786 4.38596V5.26315H3.125V4.38596H4.01786Z" fill="#AFAFAF"/>
<path fill-rule="evenodd" clip-rule="evenodd" d="M1.78592 4.82455V5.70175H0.893066V4.82455H1.78592Z" fill="#AFAFAF"/>
<path fill-rule="evenodd" clip-rule="evenodd" d="M1.78592 0.438599V3.94737H0.893066V0.438599H1.78592Z" fill="#AFAFAF"/>
<path fill-rule="evenodd" clip-rule="evenodd" d="M15.6248 2.63159V3.50878H14.7319V2.63159H15.6248Z" fill="#AFAFAF"/>
<path fill-rule="evenodd" clip-rule="evenodd" d="M15.6248 0.877197V1.75439H14.7319V0.877197H15.6248Z" fill="#AFAFAF"/>
<path fill-rule="evenodd" clip-rule="evenodd" d="M12.9466 0.438599V3.94737H12.0537V0.438599H12.9466Z" fill="#AFAFAF"/>
<path fill-rule="evenodd" clip-rule="evenodd" d="M24.1072 9.21054V10.0877H23.2144V9.21054H24.1072Z" fill="#AFAFAF"/>
<path fill-rule="evenodd" clip-rule="evenodd" d="M24.1072 3.94736V8.33332H23.2144V3.94736H24.1072Z" fill="#AFAFAF"/>
<path fill-rule="evenodd" clip-rule="evenodd" d="M24.9998 0V2.19298H24.1069V0H24.9998Z" fill="#AFAFAF"/>
<path fill-rule="evenodd" clip-rule="evenodd" d="M22.7679 0.877197V1.75439H21.875V0.877197H22.7679Z" fill="#AFAFAF"/>
<path fill-rule="evenodd" clip-rule="evenodd" d="M4.46436 10.0877H20.5358C21.5221 10.0877 22.3215 10.8731 22.3215 11.8421V15.7895H21.4286V11.8421C21.4286 11.3576 21.029 10.9649 20.5358 10.9649H4.46436V10.0877Z" fill="#AFAFAF"/>
<path fill-rule="evenodd" clip-rule="evenodd" d="M19.1965 16.2281C18.4569 16.2281 17.8572 16.8172 17.8572 17.5439C17.8572 18.2705 18.4569 18.8597 19.1965 18.8597H22.3215V16.2281H19.1965ZM16.9644 17.5439C16.9644 16.3328 17.9638 15.3509 19.1965 15.3509H22.3215C22.8145 15.3509 23.2144 15.7437 23.2144 16.2281V18.8597C23.2144 19.344 22.8145 19.7369 22.3215 19.7369H19.1965C17.9638 19.7369 16.9644 18.755 16.9644 17.5439Z" fill="#AFAFAF"/>
<path d="M19.6429 17.1053H18.75V17.9824H19.6429V17.1053Z" fill="#AFAFAF"/>
</svg>
