<svg width="64" height="64" viewBox="0 0 64 64" fill="none" xmlns="http://www.w3.org/2000/svg">
<g clip-path="url(#clip0_14_377)">
<path d="M32 -1.00634e-05C38.3427 -0.00717576 44.5448 1.86858 49.8204 5.38958C55.096 8.91058 59.2078 13.9184 61.6347 19.7784C64.0616 25.6384 64.6944 32.087 63.4529 38.307C62.2114 44.527 59.1515 50.2386 54.6609 54.7179C50.1703 59.1973 44.4512 62.2428 38.2281 63.4687C32.0049 64.6946 25.558 64.0457 19.704 61.6041C13.8501 59.1625 8.85264 55.0382 5.34488 49.7538C1.83711 44.4693 -0.0230926 38.2626 -3.23079e-05 31.9199C0.0211745 23.4469 3.40195 15.3281 9.40082 9.34424C15.3997 3.36038 23.5269 -3.66021e-05 32 -1.00634e-05ZM32 3.88076C26.4405 3.88366 21.0065 5.53406 16.3845 8.6235C11.7625 11.7129 8.15968 16.1028 6.03117 21.2387C3.90266 26.3746 3.34392 32.0261 4.42553 37.4793C5.50715 42.9326 8.18059 47.943 12.1082 51.8777C16.0358 55.8124 21.0413 58.4949 26.4926 59.5864C31.9439 60.6779 37.5964 60.1294 42.7361 58.0101C47.8758 55.8909 52.2723 52.2961 55.37 47.6796C58.4678 43.0632 60.1281 37.6323 60.141 32.0728C60.1458 28.3735 59.4216 24.7095 58.0097 21.2903C56.5978 17.871 54.5259 14.7635 51.9125 12.1454C49.299 9.52721 46.1953 7.44973 42.7786 6.03164C39.3619 4.61356 35.6993 3.88267 32 3.88076Z" fill="#006838"/>
<path d="M45.8339 41.2323L48.6079 42.7759C48.7827 42.8705 48.9501 42.987 49.2123 43.1472C45.63 49.7802 39.8635 52.9183 32.6189 53.1076C24.901 53.3042 18.785 50.1952 14.8022 43.1399L18.217 41.225C21.1294 46.7732 26.0004 49.2341 32.0072 49.2341C38.0141 49.2341 42.7977 46.8241 45.8339 41.2323Z" fill="#006838"/>
</g>
<defs>
<clipPath id="clip0_14_377">
<rect width="64" height="64" fill="white"/>
</clipPath>
</defs>
</svg>
