<svg width="179" height="201" viewBox="0 0 179 201" fill="none" xmlns="http://www.w3.org/2000/svg">
<g clip-path="url(#clip0_14_360)">
<path d="M16.3931 175.542C16.4436 177.728 17.3444 179.809 18.9046 181.343C20.4648 182.878 22.5616 183.744 24.7503 183.759C26.9806 183.702 29.1009 182.779 30.6602 181.184C32.2196 179.59 33.0949 177.45 33.1 175.22C33.0432 173.035 32.1273 170.96 30.5505 169.444C28.9737 167.929 26.8631 167.095 24.6755 167.123C23.5694 167.1 22.4702 167.303 21.4455 167.719C20.4207 168.136 19.492 168.758 18.7163 169.546C17.9407 170.335 17.3345 171.273 16.935 172.304C16.5355 173.335 16.351 174.437 16.3931 175.542Z" fill="white"/>
<path d="M27.6132 149.404C29.8567 147.256 31.1938 144.332 31.3508 141.231C31.8665 132.588 32.5467 123.945 33.3242 115.317C33.5358 113.373 34.0688 111.477 34.9015 109.707C41.2598 95.5404 44.495 80.1729 44.3874 64.6469C44.3874 61.5019 44.3874 58.3421 44.5967 55.2121C45.262 46.3225 53.0661 42.3932 60.7206 47.0994C62.5171 48.3564 64.2417 49.7131 65.886 51.1633C65.9383 50.11 66.0055 49.3032 66.0055 48.4964C66.0055 36.4196 66.0055 24.3403 66.0055 12.2585C66.0055 4.23556 70.7298 -0.254002 78.945 0.0448052C101.273 0.851584 123.602 1.03834 145.922 0.0448052C154.145 -0.328704 158.922 4.13851 158.974 12.0494C158.974 16.6884 158.974 21.3199 158.974 25.7497C161.822 25.1894 164.349 24.3453 166.89 24.2557C171.824 24.1436 176.518 27.7218 178.2 32.3683C179.05 34.618 179.174 37.0774 178.553 39.4008C177.932 41.7243 176.598 43.7948 174.739 45.3215C170.134 49.3629 165.41 53.2698 160.895 57.4009C159.872 58.4618 159.226 59.8291 159.056 61.2928C158.824 65.2221 158.974 69.1738 158.974 73.2451C160.343 73.021 161.723 72.8714 163.108 72.7969C170.09 72.8417 176.107 79.7366 175.3 86.6615C175.131 88.0572 174.677 89.4033 173.966 90.6163C173.254 91.8294 172.302 92.8835 171.166 93.7134C169.043 95.3942 166.89 97.0301 164.438 98.9425C165.037 99.2022 165.648 99.4316 166.27 99.6298C169.239 100.302 171.874 102.005 173.705 104.435C175.536 106.866 176.446 109.867 176.272 112.904C176.092 116.975 173.872 119.71 170.478 121.607C167.974 123.004 165.38 124.244 162.54 125.708C163.235 126.321 163.698 126.739 164.177 127.142C170.239 132.192 169.521 141.037 162.472 144.496C159.632 145.885 158.69 147.484 158.877 150.472C159.153 154.879 158.996 159.316 158.937 163.739C158.847 170.694 154.31 175.168 147.335 175.198C139.501 175.198 131.637 175.243 123.841 175.198C123.008 175.139 122.173 175.277 121.404 175.602C120.635 175.927 119.954 176.428 119.416 177.066C114.093 182.862 107.508 186.388 99.5989 186.979C94.3663 187.367 92.5199 191.356 89.8812 195.002C90.7748 195.56 91.5916 196.233 92.3106 197.004C92.7666 197.646 93.1628 199.05 92.8414 199.364C92.0967 199.905 91.1784 200.153 90.2624 200.059C89.6943 200.059 89.1337 199.372 88.588 198.968C67.832 183.829 47.081 168.682 26.3349 153.527C25.6472 153.027 24.9595 152.519 24.2494 152.033C22.0517 150.599 20.609 150.8 18.9719 152.87C13.9536 159.204 8.9527 165.549 3.96926 171.904C3.70763 172.24 3.49831 172.733 3.15445 172.867C2.18268 173.233 1.15859 173.443 0.164392 173.719C0.164392 172.666 -0.343918 171.261 0.164392 170.604C5.59135 163.602 11.0731 156.647 16.6097 149.74C18.8523 146.938 22.4628 146.453 25.5799 148.246C26.2452 148.582 26.903 148.978 27.6132 149.404ZM142.192 108.953C141.445 108.474 140.78 108.026 140.114 107.548C137.951 106.077 136.327 103.942 135.488 101.466C134.649 98.9891 134.641 96.3069 135.465 93.8254C136.212 91.4649 137.632 92.7945 138.021 90.3219C137.505 94.6023 133.536 95.4315 137.408 90.7178L138.993 88.9698C139.255 88.5515 139.127 88.6486 140.974 87.0724C145.302 83.7407 149.279 80.5958 153.368 77.6002C153.926 77.19 154.38 76.653 154.69 76.0335C155.001 75.4141 155.16 74.7298 155.154 74.037C155.094 57.6026 155.094 41.1682 155.154 24.7338C155.154 22.433 154.676 21.6934 152.246 21.7008C125.844 21.7905 99.4494 21.7532 73.0098 21.7607C72.023 21.7607 71.0438 21.8577 70.0197 21.9026V152.534H154.937V149.067C151.843 149.814 149.025 150.965 146.162 151.099C143.007 151.256 140.637 149.142 138.828 146.617C135.681 142.247 136.317 137.9 140.48 132.693C138.47 130.198 135.868 128.084 134.799 125.357C133.73 122.63 134.052 119.187 133.798 115.818M114.923 175.22H78.5713C70.5504 175.22 66.0878 170.738 66.0878 162.783C66.0878 134.366 66.0878 105.954 66.0878 77.5479C66.0878 72.9537 66.2448 68.3521 66.0205 63.7655C65.7365 57.9313 63.5238 52.9561 58.1193 50.08C53.1632 47.4431 49.0145 49.7514 48.5885 55.3092C48.3418 58.5288 48.2969 61.7709 48.3119 65.0204C48.4539 80.8888 45.1566 96.5999 38.6465 111.074C37.9263 112.613 37.4593 114.257 37.2636 115.945C36.5161 124.222 35.7686 132.506 35.3574 140.805C35.2484 144.237 34.1132 147.557 32.0983 150.337C31.7175 150.907 31.3657 151.495 31.0442 152.1L86.5323 192.604C86.8119 192.371 87.0765 192.122 87.3247 191.857C87.6738 191.487 87.989 191.087 88.2665 190.661C91.1071 185.821 95.196 183.393 100.915 182.877C103.656 182.614 106.316 181.801 108.736 180.487C111.156 179.172 113.285 177.384 114.998 175.228L114.923 175.22ZM154.997 156.792H69.9674V162.021C69.9674 168.945 72.352 171.284 79.3636 171.284H132.437C137.543 171.284 142.648 171.343 147.754 171.284C151.79 171.224 154.81 168.587 155.012 164.882C155.192 162.29 155.072 159.66 155.072 156.799L154.997 156.792ZM70.0197 17.7118H154.982C154.982 14.8657 155.192 12.154 154.93 9.4946C154.668 6.83522 152.142 4.5717 149.466 4.12349C148.288 3.9478 147.098 3.87288 145.907 3.89944C123.452 3.89944 100.997 3.89944 78.5414 3.89944C77.5204 3.88624 76.5008 3.97887 75.499 4.17584C74.072 4.46027 72.7738 5.19398 71.7945 6.26944C70.8151 7.34489 70.2063 8.70555 70.0571 10.152C69.8627 12.5947 70.0197 15.0599 70.0197 17.7118ZM138.791 98.6811C138.873 100.922 140.286 103.35 143.089 104.777C146.079 106.271 149.069 105.875 151.723 103.865C157.344 99.6073 162.933 95.2996 168.49 90.942C172.123 88.0884 172.579 84.0992 169.828 80.4164C166.943 76.5469 162.353 75.6505 158.668 78.4145C153.151 82.5455 147.709 86.7661 142.289 91.0017C140.122 92.6974 138.731 94.8787 138.791 98.6811ZM172.474 112.523C172.474 106.233 166.733 101.677 161.8 103.947C155.012 107.07 148.344 110.521 141.796 114.1C140.886 114.58 140.081 115.237 139.428 116.032C138.775 116.827 138.287 117.744 137.994 118.73C137.7 119.716 137.606 120.75 137.717 121.772C137.828 122.795 138.143 123.785 138.642 124.685C139.084 125.614 139.711 126.444 140.484 127.124C141.257 127.804 142.161 128.32 143.139 128.64C144.118 128.96 145.152 129.078 146.178 128.986C147.204 128.894 148.2 128.595 149.107 128.106C155.834 124.864 162.48 121.383 169.103 117.932C170.132 117.458 171 116.693 171.599 115.732C172.198 114.771 172.502 113.655 172.474 112.523ZM140.877 140.163C140.877 144.794 144.951 148.559 148.524 147.065C153.207 145.073 157.748 142.762 162.114 140.148C164.79 138.564 165.104 134.994 163.489 132.192C161.874 129.391 158.817 128.114 155.902 129.473C151.82 131.371 147.814 133.432 143.814 135.502C142.919 135.894 142.161 136.544 141.638 137.369C141.115 138.194 140.849 139.157 140.877 140.133V140.163ZM159.026 52.9487L159.699 53.2549C163.728 49.7663 167.787 46.3001 171.794 42.7966C175.083 39.9057 175.905 36.5367 174.261 33.0406C173.459 31.3379 172.122 29.9436 170.454 29.0698C168.787 28.196 166.879 27.8906 165.021 28.2C163.357 28.3857 161.821 29.1853 160.715 30.4426C159.609 31.6998 159.012 33.3241 159.041 34.9978C159.041 39.069 159.041 43.1403 159.041 47.2115L159.026 52.9487Z" fill="#6D6E71"/>
<path d="M16.3931 175.542C16.35 174.436 16.5337 173.334 16.9328 172.302C17.3318 171.27 17.9378 170.33 18.7136 169.541C19.4893 168.752 20.4184 168.13 21.4437 167.712C22.469 167.295 23.5688 167.092 24.6756 167.115C26.8631 167.087 28.9738 167.921 30.5505 169.437C32.1273 170.952 33.0432 173.027 33.1001 175.213C33.0949 177.443 32.2196 179.582 30.6603 181.177C29.1009 182.771 26.9806 183.695 24.7503 183.751C22.5629 183.737 20.4672 182.871 18.9072 181.339C17.3472 179.806 16.4455 177.727 16.3931 175.542ZM29.1457 175.422C29.1538 174.831 29.0432 174.245 28.8207 173.697C28.5981 173.15 28.2681 172.653 27.85 172.235C27.4319 171.817 26.9343 171.487 26.3865 171.265C25.8387 171.042 25.2518 170.932 24.6606 170.94C24.0902 170.939 23.5253 171.052 22.9989 171.271C22.4725 171.491 21.9952 171.813 21.595 172.22C21.1948 172.626 20.8796 173.108 20.668 173.637C20.4564 174.166 20.3525 174.733 20.3624 175.303C20.3504 175.897 20.4578 176.487 20.6784 177.039C20.8989 177.59 21.2281 178.092 21.6464 178.514C22.0647 178.937 22.5636 179.271 23.1135 179.497C23.6634 179.722 24.253 179.836 24.8475 179.83C25.9826 179.757 27.0503 179.265 27.8442 178.451C28.6381 177.637 29.1018 176.558 29.1457 175.422Z" fill="#6D6E71"/>
<path d="M114.998 175.228C113.283 177.389 111.149 179.181 108.723 180.496C106.298 181.812 103.632 182.625 100.885 182.885C95.1661 183.4 91.0772 185.828 88.2367 190.669C87.9591 191.095 87.6439 191.495 87.2948 191.864C87.0466 192.129 86.782 192.379 86.5024 192.611L31.0144 152.108C31.3405 151.489 31.6998 150.888 32.0908 150.308C34.3334 147.446 35.1407 144.212 35.335 140.596C35.7835 132.379 36.4937 124.162 37.2337 115.945C37.4295 114.257 37.8964 112.613 38.6166 111.074C45.1267 96.5999 48.424 80.8889 48.282 65.0204C48.282 61.7933 48.282 58.5513 48.5586 55.3092C48.9846 49.7589 53.1334 47.4506 58.0894 50.0801C63.4939 52.9561 65.7066 57.9313 65.9906 63.7655C66.2149 68.3522 66.0579 72.9538 66.0579 77.5479C66.0579 105.935 66.0579 134.346 66.0579 162.783C66.0579 170.776 70.543 175.221 78.5414 175.221H114.998V175.228Z" fill="white"/>
<path d="M155.072 156.799C155.072 159.66 155.192 162.29 155.072 164.912C154.87 168.647 151.85 171.254 147.814 171.314C142.708 171.381 137.603 171.314 132.497 171.314H79.4236C72.4119 171.314 70.0423 168.975 70.0273 162.051V156.821L155.072 156.799Z" fill="white"/>
<path d="M70.0199 17.7118C70.0199 15.0599 69.8629 12.5948 70.0572 10.1595C70.2064 8.71305 70.8153 7.3524 71.7946 6.27694C72.7739 5.20148 74.0722 4.46777 75.4992 4.18334C76.501 3.98637 77.5206 3.89375 78.5415 3.90695C100.997 3.90695 123.452 3.90695 145.908 3.90695C147.098 3.88038 148.288 3.9553 149.466 4.131C152.142 4.57921 154.698 6.88754 154.93 9.5021C155.162 12.1167 154.982 14.8881 154.982 17.7193L70.0199 17.7118Z" fill="white"/>
<path d="M138.791 98.681C138.731 94.8787 140.122 92.7049 142.29 91.0017C147.709 86.7661 153.151 82.5454 158.668 78.4144C162.36 75.6505 166.943 76.5468 169.828 80.4164C172.579 84.0992 172.123 88.0883 168.49 90.9419C162.943 95.2946 157.354 99.6023 151.723 103.865C149.069 105.875 146.087 106.308 143.089 104.777C140.309 103.327 138.873 100.922 138.791 98.681Z" fill="white"/>
<path d="M172.474 112.523C172.502 113.655 172.198 114.771 171.599 115.732C171 116.693 170.132 117.458 169.103 117.932C162.48 121.405 155.842 124.864 149.107 128.106C148.201 128.595 147.204 128.894 146.178 128.986C145.152 129.078 144.119 128.96 143.14 128.64C142.161 128.32 141.257 127.804 140.484 127.124C139.711 126.444 139.084 125.614 138.642 124.685C138.143 123.785 137.829 122.795 137.717 121.772C137.606 120.75 137.7 119.716 137.994 118.73C138.287 117.744 138.775 116.827 139.428 116.032C140.081 115.237 140.886 114.58 141.796 114.099C148.359 110.521 155.012 107.07 161.8 103.947C166.733 101.677 172.444 106.233 172.474 112.523Z" fill="white"/>
<path d="M140.877 140.133C140.843 139.152 141.106 138.183 141.629 137.352C142.153 136.521 142.914 135.866 143.814 135.472C147.814 133.402 151.82 131.341 155.902 129.443C158.817 128.084 161.792 129.264 163.489 132.162C165.186 135.061 164.79 138.534 162.114 140.118C157.747 142.732 153.207 145.043 148.524 147.035C144.951 148.53 140.884 144.765 140.877 140.133Z" fill="white"/>
<path d="M159.026 52.9187V47.1741C159.026 43.1029 159.026 39.0316 159.026 34.9604C158.997 33.2867 159.594 31.6624 160.7 30.4052C161.806 29.1479 163.342 28.3483 165.007 28.1625C166.864 27.8532 168.772 28.1586 170.44 29.0324C172.107 29.9062 173.444 31.3005 174.246 33.0032C175.89 36.4993 175.068 39.8683 171.779 42.7593C167.78 46.2628 163.736 49.7215 159.707 53.2176L159.026 52.9187Z" fill="white"/>
<path d="M29.1457 175.422C29.1041 176.572 28.6325 177.664 27.8242 178.482C27.0159 179.301 25.9297 179.787 24.7802 179.845C24.1857 179.851 23.596 179.737 23.0462 179.512C22.4963 179.286 21.9975 178.952 21.5792 178.529C21.1609 178.107 20.8317 177.605 20.6111 177.054C20.3905 176.502 20.2831 175.912 20.2951 175.318C20.2852 174.748 20.3891 174.181 20.6007 173.652C20.8123 173.123 21.1275 172.641 21.5277 172.235C21.928 171.828 22.4052 171.506 22.9316 171.286C23.4579 171.067 24.0229 170.954 24.5933 170.955C25.1888 170.938 25.7818 171.041 26.3364 171.259C26.8911 171.476 27.3961 171.803 27.8212 172.22C28.2463 172.637 28.5827 173.136 28.8103 173.686C29.0379 174.236 29.152 174.827 29.1457 175.422Z" fill="white"/>
<path d="M111.731 64.5348C107.262 64.5348 102.893 65.8593 99.1768 68.3407C95.4606 70.8221 92.5642 74.3489 90.8539 78.4753C89.1436 82.6017 88.6961 87.1423 89.568 91.5228C90.4399 95.9034 92.5921 99.9271 95.7524 103.085C98.9127 106.243 102.939 108.394 107.323 109.266C111.706 110.137 116.25 109.69 120.379 107.981C124.508 106.271 128.037 103.377 130.52 99.6633C133.003 95.9496 134.329 91.5836 134.329 87.1172C134.323 81.1299 131.94 75.3894 127.703 71.1557C123.467 66.9219 117.723 64.5408 111.731 64.5348Z" fill="#006838"/>
<path d="M108.24 89.926L114.669 83.4866C115.319 82.8293 115.969 82.1719 116.635 81.5295C116.801 81.3334 117.006 81.1737 117.236 81.0607C117.467 80.9476 117.719 80.8835 117.976 80.8725C118.232 80.8614 118.489 80.9036 118.728 80.9965C118.968 81.0893 119.186 81.2307 119.368 81.4118C119.55 81.5929 119.693 81.8098 119.787 82.0488C119.882 82.2878 119.925 82.5436 119.916 82.8003C119.906 83.057 119.843 83.3089 119.732 83.5402C119.62 83.7714 119.461 83.977 119.266 84.144C116.072 87.3462 112.872 90.5435 109.668 93.7358C109.495 93.9469 109.277 94.1169 109.03 94.2337C108.783 94.3504 108.513 94.411 108.24 94.411C107.967 94.411 107.697 94.3504 107.45 94.2337C107.203 94.1169 106.986 93.9469 106.812 93.7358C105.616 92.5406 104.413 91.3453 103.224 90.1426C103.033 89.9757 102.878 89.7715 102.769 89.5425C102.66 89.3135 102.599 89.0646 102.589 88.8112C102.58 88.5577 102.623 88.305 102.715 88.0686C102.806 87.8322 102.946 87.617 103.124 87.4364C103.302 87.2558 103.515 87.1135 103.751 87.0183C103.986 86.9231 104.238 86.8769 104.492 86.8827C104.746 86.8885 104.996 86.9461 105.226 87.0519C105.457 87.1578 105.663 87.3097 105.833 87.4982C106.625 88.2751 107.403 89.0744 108.24 89.926Z" fill="white"/>
</g>
<defs>
<clipPath id="clip0_14_360">
<rect width="179" height="200.059" fill="white"/>
</clipPath>
</defs>
</svg>
